<svg id="Layer_1" data-name="Layer 1" xmlns="http://www.w3.org/2000/svg" viewBox="0 0 540 540"><defs><style>.cls-1,.cls-10,.cls-11,.cls-12,.cls-13,.cls-14,.cls-15,.cls-16,.cls-17,.cls-18,.cls-19,.cls-2,.cls-20,.cls-21,.cls-22,.cls-23,.cls-24,.cls-25,.cls-26,.cls-27,.cls-28,.cls-29,.cls-3,.cls-30,.cls-31,.cls-32,.cls-33,.cls-34,.cls-35,.cls-36,.cls-37,.cls-38,.cls-39,.cls-4,.cls-40,.cls-41,.cls-42,.cls-43,.cls-44,.cls-45,.cls-46,.cls-47,.cls-48,.cls-49,.cls-5,.cls-50,.cls-51,.cls-52,.cls-53,.cls-54,.cls-55,.cls-56,.cls-57,.cls-58,.cls-59,.cls-6,.cls-60,.cls-61,.cls-7,.cls-8,.cls-9{fill-rule:evenodd;}.cls-2{fill:#4f7f42;}.cls-3{fill:#1b2523;}.cls-4{fill:#333f2c;}.cls-5{fill:#1d2e19;}.cls-6{fill:#2f3533;}.cls-7{fill:#434746;}.cls-8{fill:#1d291b;}.cls-9{fill:#2f3937;}.cls-10{fill:#344031;}.cls-11{fill:#2d3832;}.cls-12{fill:#333e3c;}.cls-13{fill:#2a3433;}.cls-14{fill:#343e3c;}.cls-15{fill:#d7ede6;}.cls-16{fill:#62918a;}.cls-17{fill:#a5a7a6;}.cls-18{fill:#abd392;}.cls-19{fill:#79a75b;}.cls-20{fill:#263629;}.cls-21{fill:#7ec8ac;}.cls-22{fill:#197170;}.cls-23{fill:#abadac;}.cls-24{fill:#fff;}.cls-25{fill:#fefefe;}.cls-26{fill:#124846;}.cls-27{fill:#d3eae3;}.cls-28{fill:#aaacab;}.cls-29{fill:#cde5dd;}.cls-30{fill:#134847;}.cls-31{fill:#f2f2f2;}.cls-32{fill:#0f403f;}.cls-33{fill:#96d4d0;}.cls-34{fill:#1d2c29;}.cls-35{fill:#f7f7f7;}.cls-36{fill:#1f2e2c;}.cls-37{fill:#0f413f;}.cls-38{fill:#1c1919;}.cls-39{fill:#1c1518;}.cls-40{fill:#124847;}.cls-41{fill:#134947;}.cls-42{fill:#124746;}.cls-43{fill:#114745;}.cls-44{fill:#252021;}.cls-45{fill:#114746;}.cls-46{fill:#242d29;}.cls-47{fill:#3c4e47;}.cls-48{fill:#384943;}.cls-49{fill:#3f5c52;}.cls-50{fill:#243931;}.cls-51{fill:#23372f;}.cls-52{fill:#de8081;}.cls-53{fill:#aa4a56;}.cls-54{fill:#4c3236;}.cls-55{fill:#fdfdfd;}.cls-56{fill:#493034;}.cls-57{fill:#9f4550;}.cls-58{fill:#be3d58;}.cls-59{fill:#7b3750;}.cls-60{fill:#95d4d0;}.cls-61{fill:#acacac;}</style></defs><path class="cls-1" d="M275.37,484.77a3.54,3.54,0,0,1-2.58-1.11,5.94,5.94,0,0,1-1.21-1.45l-.56-1c-1.38-2.47-2.76-4.94-4.08-7.45a18.31,18.31,0,0,1-1.19-2.78c-.93-.18-1.81-.4-2.68-.61l-.18-.05a1.75,1.75,0,0,0-.42-.07,84.58,84.58,0,0,1-9.34,1.1c-1.41.12-2.83.23-4.24.38s-2.91.29-4.36.4h-.34a4.25,4.25,0,0,1-4.1-5.58,23.15,23.15,0,0,1,3-6.45q2-2.76,4-5.48a10.22,10.22,0,0,1,.05-3.21c0-.19.06-.38.08-.57l.18-1.76c.16-1.58.33-3.15.5-4.72h-.08c-.59-.11-1.18-.22-1.76-.35a2.33,2.33,0,0,0-.56-.05,13.36,13.36,0,0,0-1.62.16l-.92.11c-1.69.2-3.38.42-5.07.64l-2.29.31c-.25,0-.51.07-.77.09l-.45,0A4.19,4.19,0,0,1,230.1,440c.08-.38.17-.76.26-1.13a4.24,4.24,0,0,1,.73-2.67l.16-.55c.08-.22.17-.52.23-.76l-.28-.23a14.06,14.06,0,0,1-1.27-1.14,57.53,57.53,0,0,1-7.51-9.73c-2-3.25-3.91-6.59-5.69-9.73-4-.89-7.61-1.76-10.95-2.68-1.84-.5-3.61-1.13-5.32-1.74l-.45-.16L199,411l-4.31,6.59q-6.93,10.58-13.87,21.13a122.64,122.64,0,0,1-11.61,14.54,48.7,48.7,0,0,1-4.71,4.47,18.09,18.09,0,0,1-10.46,4.35,31.09,31.09,0,0,0-8.94,2.1,78.16,78.16,0,0,1-11.91,3.24,10.27,10.27,0,0,1-1.11.18l-.5,0a4.17,4.17,0,0,1-4.07-5.38l-4-.44a22.07,22.07,0,0,1-3.54,1l-1.38.33c-3,.8-6,1.55-9,2.31l-2,.5a18.47,18.47,0,0,1-1.83.35,4.27,4.27,0,0,1-.7,0,4.14,4.14,0,0,1-3.25-1.52,4.32,4.32,0,0,1-.81-3.68,16.77,16.77,0,0,1,.48-1.78l.42-1.34a6,6,0,0,0-1.32,1.49A3.94,3.94,0,0,1,99.14,461a4.67,4.67,0,0,1-2.23.75h-.18a4,4,0,0,1-3.92-4.07,21.74,21.74,0,0,1,1.71-9.32,23.77,23.77,0,0,1,4.28-6.65c-.35-.57-2.1-3.47-2.62-4.35-3.41-5.71-7-11.86-10.22-18.13a151.4,151.4,0,0,1-12.32-33.45A98.89,98.89,0,0,1,71,362c0-3.42,0-6.83.1-10.25,0-2.12,0-4.24.07-6.37v-.12l-.05,0C61.8,340,51,333.89,40.67,327.24c-5.55-3.59-11-7.49-16.2-11.26L21,313.46a32.89,32.89,0,0,1-7.79-7.68,19.45,19.45,0,0,1-3.73-8.73,19.09,19.09,0,0,1-.92-5.68l0-.86a52.54,52.54,0,0,1,.58-10.21c1.36-10.56,3.54-21.09,5.65-31.27l.13-.6a168.72,168.72,0,0,1,9.09-29.06A227.18,227.18,0,0,1,34,197.65a133.67,133.67,0,0,1,18.51-27c.26-.28.27-.37.29-.53.74-5.11,1.69-10.52,2.9-16.52A81.77,81.77,0,0,1,68,123.77a136.19,136.19,0,0,1,8.07-11l.3-.37a9.68,9.68,0,0,1,2.42-2.33A12.75,12.75,0,0,1,87.73,107c.52,0,1.06,0,1.59.05a41.26,41.26,0,0,1,9.4,1.79l1.29.39a174.67,174.67,0,0,1,20.2,7c4.26,1.88,8.47,4,12.54,6a1.47,1.47,0,0,0,.65.2,1.25,1.25,0,0,0,.31,0,85.68,85.68,0,0,1,13.42-2l.78-.07c1.37-.12,2.76-.21,4.14-.31,1-.07,2.1-.14,3.14-.23,2.13-.17,4.38-.26,6.86-.26,3.54,0,7.08.18,10.52.35l.9,0c1.71.08,3.42.23,5.12.38l2.1.17h2.05l.39,0a15.22,15.22,0,0,1,1.64-.11,6.91,6.91,0,0,1,2.87.57l3.21.35.36-2.23a3.69,3.69,0,0,1,.21-1.54,3.88,3.88,0,0,1,.5-1c4.41-11.32,9.5-19,16.47-25A127.43,127.43,0,0,1,243,70.15a74.89,74.89,0,0,1,17.8-4.63c8.29-1.22,16.79-1.74,24.1-2.14,5.05-.27,10.09-.49,15.14-.7l7.26-.32c8.25-.37,17.05-.81,25.89-1.72,3.84-.39,7.73-.64,11.49-.88l4.92-.32.68,0c7.38-.53,15-1.07,22.44-2a48.7,48.7,0,0,0,20.5-7.57,70.35,70.35,0,0,0,10.93-8.51A18.34,18.34,0,0,0,408,35.91c1.06-2.25,2.06-4.52,3.07-6.79l.12-.28a8.71,8.71,0,0,1,1.85-2.95,5.39,5.39,0,0,1,3.82-1.67,5,5,0,0,1,2.42.61,22.55,22.55,0,0,1,3.51,2.23,31.93,31.93,0,0,1,10.76,14.53c.36,1,.71,2,1.08,3l.09-.06a13.27,13.27,0,0,1,3.34-2.71,45.38,45.38,0,0,1,16.5-9.33l.5-.17a10.3,10.3,0,0,1,2-.55,4.47,4.47,0,0,1,1.93-.43h.25a5.76,5.76,0,0,1,.7-.05,4.41,4.41,0,0,1,.52,0c3.37.38,5.39,2.65,5.24,5.91a17.93,17.93,0,0,1-.58,3.4l-.07.24A64.13,64.13,0,0,1,462,50.45c-.22.54-.41,1.09-.61,1.63,1.39-.32,2.8-.6,4.25-.81a47.58,47.58,0,0,1,6.76-.41c.95,0,1.89,0,2.84,0a7.47,7.47,0,0,1,3.24.76c3.23,1.64,4.35,4.76,2.85,7.94-1.06,2.27-2.23,4.45-3.52,6.86-.54,1-1.1,2-1.66,3-.81,1.44-1.58,2.8-2.28,4.19a36.24,36.24,0,0,0-3.59,10.1,40.21,40.21,0,0,0-.51,10.12c.52,6.68,2.49,13.27,4.23,19.08a67.66,67.66,0,0,0,7,15.64c11.08,18.46,20.57,37.27,30.12,56.52a177.43,177.43,0,0,1,9.77,23.1l.2.59a55.53,55.53,0,0,1,2.18,7.86,4.41,4.41,0,0,1,.5,2.34,152.35,152.35,0,0,1,2.06,29.6,126.43,126.43,0,0,1-1.3,14.13c-.43,3.14-1,7.29-2,11.44a55.54,55.54,0,0,1-11.6,23.24l-1.68,2a4.2,4.2,0,0,1-.75,1,5.06,5.06,0,0,1-1.25,1.36,41.8,41.8,0,0,1-4.78,5l-.26.24A166.16,166.16,0,0,1,488,318.5a24.09,24.09,0,0,1-9.22,4.31l.93,1.55a121.67,121.67,0,0,1,12.77,30.7c.93,3.35,1.9,6.92,2.55,10.59a4.47,4.47,0,0,1,.51,2.35l.31,1.83c.33,2,.67,4,1,6,.14.92.22,1.85.29,2.78l.05.58a7.51,7.51,0,0,1,.38,3.66V384a99.35,99.35,0,0,1-.29,18.05l-.15,1.22a48.43,48.43,0,0,1-1.07,6.62l0,.28a4.36,4.36,0,0,1-.51,2.52,88.52,88.52,0,0,1-5.46,17,110.32,110.32,0,0,1-13.51,22.95,54.92,54.92,0,0,1-11.88,11.13,9.4,9.4,0,0,1-5.55,1.95h-.48l-.11.09c-1.7,1.52-3.43,3-5.18,4.48l-1.91,1.64-.55.45a5.22,5.22,0,0,1-3.24,1.33,4.92,4.92,0,0,1-3.46-1.64l-.8-.76c-1.56-1.48-3.17-3-4.72-4.59a.66.66,0,0,0-.13-.12,29.49,29.49,0,0,1-3,.12l-2.05,0h-.61a3,3,0,0,0-.93.08,6.74,6.74,0,0,1-4.57,2.21L427,469c-2.59.44-5.19.81-7.79,1.19-2.09.3-4.19.57-6.29.84l-.58,0a4.16,4.16,0,0,1-3.86-5.9c.09-.2.19-.41.28-.62-1.34-.25-2.67-.5-4-.73l-.49.09a75.79,75.79,0,0,1-8.08,1c-.41,0-.83,0-1.24,0-1.26,0-2.44-.11-3.59-.21l-1-.09a4.37,4.37,0,0,1-3.55-2.21,4.31,4.31,0,0,1,.15-4.25c.64-1.18,1.33-2.4,2.09-3.69l-.37-.48-1-1.26A60.61,60.61,0,0,1,379,437.85l-.83-2c-.65-1.6-1.31-3.19-1.93-4.8-3.91-.52-7.82-1-11.73-1.58-1.76,2.59-3.51,5.14-5.28,7.68a135.6,135.6,0,0,1-15.84,19,78.54,78.54,0,0,1-13.7,10.61,36.52,36.52,0,0,1-6.53,3.13c-2.2.83-4.4,1.66-6.61,2.44a9.2,9.2,0,0,1-1.84,2.7q-2.66,2.78-5.32,5.52l-.47.48a6.86,6.86,0,0,1-1.11.91,5.13,5.13,0,0,1-3,1,5,5,0,0,1-3-1c-.42-.31-.83-.68-1.24-1l-5.21-4.76a6.37,6.37,0,0,1-1.48-1.69h-1c-.69,0-1.39,0-2.09,0a22.89,22.89,0,0,1-5,4c-1.5.94-2.95,2-4.48,3.07L279.12,483c-.4.28-.82.55-1.26.83l-.55.36A3.51,3.51,0,0,1,275.37,484.77Z"/><path class="cls-2" d="M458.31,35.27a1,1,0,0,1,1.06-.31c2.41.58,2.79,1.18,2.22,3.67a99,99,0,0,1-5.32,15.52c-2.24,8.26-5.71,16.08-8.54,24.14-2.51,7.14-4.53,14.42-4.25,22.06A67.31,67.31,0,0,0,447.31,119c6.46,19.48,13.1,38.89,22.33,57.31,4.64,9.25,6.43,19.33,8,29.44a71.73,71.73,0,0,1,.92,9,41.31,41.31,0,0,1-3.93,18C470.45,242.26,463,249,455,255.15c-6.45,5-13.85,8.1-21.43,10.86-2.21.8-4.38,1.69-6.62,2.41a3.93,3.93,0,0,1-3.8-.49c-4.61-3.34-9.38-6.46-13.95-9.87-.28-.23-.57-.47-.86-.69l-1.19-.81c-8.48-6.13-17.35-11.73-25.5-18.32-6.89-5.59-13.46-11.55-20.18-17.35-6.46-5.57-12.89-11.18-19.22-16.91-1.64-1.49-4-2.55-4.17-5.28,2.89-1.79,6.27-2.21,9.43-3.23,9.48-3.08,19.16-5.57,28.41-9.3,8.65-3.49,17-7.66,23.28-14.88a100.72,100.72,0,0,0,15.23-24.45c4.38-9.64,6-20,8.08-30.28a241.29,241.29,0,0,1,11-39.67A119.34,119.34,0,0,1,455.87,40.2c1.07-1.21,2.44-2.26,2.77-4A2.52,2.52,0,0,1,458.31,35.27Z"/><path class="cls-3" d="M458.37,462.1a3.55,3.55,0,0,0-2.2,1c-2.31,2.07-4.69,4.06-7,6.08l-.39.31c-1.07.82-1.17.84-2.11-.06-1.82-1.73-3.66-3.44-5.42-5.24a3.42,3.42,0,0,0-2.87-1.15c-1.59.09-3.19.07-4.78.05s-3.13-.07-4.32,1.38c-.65.79-1.81.84-2.79,1-2.56.43-5.13.8-7.7,1.16-2.08.3-4.15.57-6.23.83-.64.08-1-.35-.75-.91.57-1.3,1.19-2.58,1.77-3.88a.63.63,0,0,0-.44-1c-2.63-.5-5.26-1-7.9-1.47a4.72,4.72,0,0,0-1.49.12,76.77,76.77,0,0,1-7.72,1,32.88,32.88,0,0,1-5.26-.26c-.78-.07-1-.49-.6-1.23q1.32-2.42,2.75-4.79a1.2,1.2,0,0,0,0-1.56c-.8-1-1.54-2-2.32-3a56.71,56.71,0,0,1-8.24-14c-1-2.48-2.05-4.95-3-7.45a2.06,2.06,0,0,0-1.81-1.46c-4.57-.6-9.14-1.19-13.7-1.85a1.5,1.5,0,0,0-1.63.84q-2.88,4.26-5.82,8.5a134,134,0,0,1-15.43,18.52,76.91,76.91,0,0,1-13.1,10.13,32.14,32.14,0,0,1-5.89,2.81c-2.35.88-4.7,1.77-7.07,2.61a1.93,1.93,0,0,0-1.38,1.29,5.46,5.46,0,0,1-1.32,2.12c-1.91,2-3.84,4-5.76,6a3.8,3.8,0,0,1-.59.47,1.39,1.39,0,0,1-1.84,0,12.57,12.57,0,0,1-1-.82c-1.73-1.57-3.47-3.15-5.2-4.74a2.75,2.75,0,0,1-.83-.92c-.56-1.59-1.77-1.76-3.2-1.71-1.26.05-2.52,0-3.77-.07a1.45,1.45,0,0,0-1.3.61,17.09,17.09,0,0,1-4.79,4c-2.33,1.48-4.55,3.15-6.82,4.72-.54.39-1.1.73-1.72,1.14a5.29,5.29,0,0,1-.7-.75c-1.55-2.78-3.11-5.55-4.59-8.37a17.28,17.28,0,0,1-1.29-3.26,1.43,1.43,0,0,0-1.38-1.17c-1.23-.2-2.45-.5-3.67-.8a4.47,4.47,0,0,0-2-.11c-4.37.84-8.82,1-13.23,1.43q-2.13.23-4.26.39a.72.72,0,0,1-.79-1,19.5,19.5,0,0,1,2.49-5.45q2.11-3,4.28-5.91a1.68,1.68,0,0,0,.41-1.8,7.7,7.7,0,0,1,0-3.24c.29-2.75.57-5.5.89-8.24.19-1.59,0-1.46-1.38-1.76-1.14-.25-2.3-.43-3.45-.68a12.85,12.85,0,0,0-4.24.17c-2.42.28-4.82.61-7.23.93-.25,0-.5.08-.75.1-.84.06-1.11-.23-.95-1,.12-.57.25-1.14.38-1.71.24-.33.2-.74.34-1.1.3-1.3,1-2.65.79-3.88s-1.68-2-2.59-3a53.72,53.72,0,0,1-7.05-9.13c-2-3.21-3.84-6.48-5.7-9.75a2.85,2.85,0,0,0-2.07-1.56c-3.68-.8-7.34-1.68-11-2.67-2.33-.64-4.6-1.52-6.89-2.3-1.23-.43-1.23-.45-2,.67-.61.91-1.19,1.83-1.79,2.74Q187,423,177.87,436.81a119.74,119.74,0,0,1-11.28,14.12,46.38,46.38,0,0,1-4.38,4.14,14.63,14.63,0,0,1-8.44,3.51,35.12,35.12,0,0,0-9.94,2.33A74.17,74.17,0,0,1,132.47,464a6.5,6.5,0,0,1-.75.12c-.61.07-.95-.31-.77-.91.3-.95.64-1.9,1-2.85.1-.31.16-.63.3-1.13l-9.3-1a.58.58,0,0,1-.84-.39c.25-.87,1.06-1,1.73-1.27,2.25-1,2.6-1.87,1.6-4.11a17.22,17.22,0,0,0-4.59-5.59,8.69,8.69,0,0,0-7.54-2,1,1,0,0,1-.78-.7,1.53,1.53,0,0,1,.94-1.08,8,8,0,0,1,1.39-.5,3.74,3.74,0,0,1,1.85,0,12.91,12.91,0,0,1,4.75,2,15.45,15.45,0,0,1,5.17,5.72c1.19,2.07,2.13,4.22.71,6.59,4,1.25,4.91.91,6.67-2.61a21.69,21.69,0,0,1,3.95-5.48c2.72-2.77,6.23-2.55,8.65.52a24,24,0,0,1,3.26,5.93c.68,1.68,1.53,2.14,3.42,2,6.28-.66,10.13-4.86,13.9-9.15,11.1-12.65,19.19-27.41,28.61-41.24,1.17-1.72.05-2.1-1.16-2.69a326.37,326.37,0,0,1-33.91-19.59c-.88-1.05-3.07-1-2.6-3.15,1.44-.56,2.37.48,3.4,1.14,9.48,6,19.09,11.83,29,17.16,9.19,5,19.08,7.68,29.2,9.87,11.16,2.41,22.37,4.4,33.71,5.73,3.33.39,3.43.42,4.31-2.87a204.41,204.41,0,0,1,7.91-23.07,89.63,89.63,0,0,1,3.91-8.44,4.62,4.62,0,0,0,.24-4.32c-.64-1.46-1-3-1.56-4.51-1.75-4.85-.11-9.24,1.82-13.58.27-.6.79-1.31,1.52-1s.52,1.16.32,1.81c-.73,2.4-1.82,4.68-2.06,7.23-.31,3.39.92,6.4,2.09,9.46,2.41-4.15,4.52-8.51,7.09-12.6.49-.8.83-2.28,2.38-1.3a1.37,1.37,0,0,1,.14.75c-3.05,6.1-6.62,11.93-9.6,18.08-1.48,3.07-3,6.12-4.32,9.28-.37.8-.64,1.64-1,2.45a305.75,305.75,0,0,0-11.09,36.62,20.52,20.52,0,0,0-.79,3.45c-1.13,5.56-1.56,11.22-2.36,16.83a17.08,17.08,0,0,0-.11,3.5c.07.94.52,1.65,1.5,1.71,3.35.19,5.29,2.56,7.39,4.7a13.2,13.2,0,0,1,2.34,4.37c.54,1.66,1.81,1.94,3.27,2.21s1.83-.71,2.38-1.66c1-1.67,2.54-2.84,3.81-4.27,3.21-2.92,6.33-4.52,12.13.67,2.22,2.16,4.55,4.24,5.39,7.42.34,1.26,1.42,1.24,2.45,1.27a2.24,2.24,0,0,0,2.53-1.6c1.13-3.56,3.79-5.6,7-7.08,3.09-1.4,5.11-1,7.55,1.27a18.14,18.14,0,0,1,2.95,3.75,2.51,2.51,0,0,0,3.38,1.16c11.1-3.57,20-10.25,27.68-18.9,11.48-13,20.66-27.46,28.67-42.72a90.61,90.61,0,0,0,10.1-36.83c.45-7.21.26-14.41.37-21.61.06-3.35-.77-6.67-.46-10,.09-.94-.26-2.46.93-2.52,1.4-.07,1.36,1.48,1.35,2.54-.1,7.88,1.05,15.75.47,23.62-.31,4.31-.08,8.68-1.13,12.94,0,.33.56.08.23.12-.11,0-.14-.07-.1-.24.55-2.25,2-4,3.27-5.88,6.07-8.77,13.26-16.66,19.94-24.94,1.16-1.44,2.31-2.88,3.56-4.24.56-.61,1-1.35,2.05-1.23,1.3,1.2,0,1.93-.57,2.67-4.89,6-9.84,11.86-14.76,17.79-.43.52-.82,1.07-1.21,1.61-5.09,6.12-10,12.36-13,19.88a84.29,84.29,0,0,1-8.32,25.43c-.88,1.38-.16,2.8,0,4.15,2.19,15.4,7.52,29.55,16.92,42.05a4.57,4.57,0,0,0,1.2,1.24c1.11.13,1.23-1,1.85-1.48,2.93-3,4.15-3.18,7.63-.94,2.9,1.87,5.26,4.3,5.45,8,.1,1.9,1.23,2.12,2.6,2.38s2.81.69,3.65-1.1a28.57,28.57,0,0,1,2.41-4.41c3.58-5,8.87-5.2,12.75-.36,1.42,1.76,2.75,3.64,2.77,6.06,0,1.1.61,1.37,1.59,1.46,3.78.39,4.27.1,6.15-3.19s4.21-6.53,8.83-6.37c4.91.18,9.68,4.95,9.39,9.49A1.53,1.53,0,0,1,458.37,462.1Z"/><path class="cls-4" d="M195,118.44a1.68,1.68,0,0,1,.06-.24c3.51-9.09,8.06-17.51,15.62-23.94A125.17,125.17,0,0,1,244.3,73.43a72.72,72.72,0,0,1,17-4.4c7.89-1.16,15.83-1.68,23.79-2.11,7.45-.4,14.9-.68,22.36-1,8.71-.4,17.41-.85,26.09-1.74,5.42-.56,10.87-.81,16.3-1.2,7.78-.55,15.55-1.09,23.29-2a52.49,52.49,0,0,0,22-8.09,73.21,73.21,0,0,0,11.49-9,21.55,21.55,0,0,0,4.69-6.48c1.07-2.27,2.09-4.57,3.1-6.86a6.69,6.69,0,0,1,1.24-2.17,1.66,1.66,0,0,1,2.06-.43,18.48,18.48,0,0,1,3,1.87,28.58,28.58,0,0,1,9.63,12.93c.91,2.59,1.84,5.17,2.83,7.93,1.64-.88,2.48-2.57,4-3.39a.61.61,0,0,1,.27.69c-5.42,6.38-9.65,13.7-15.35,19.84a41.89,41.89,0,0,1-17.09,10.75c-8.38,3-16.81,5.88-25.68,6.93-10.56,1.25-21.05,3.07-31.66,3.87a89.1,89.1,0,0,0-43.64,15.2,31.68,31.68,0,0,0-10.67,13.28c5.69-.35,11.32-1.9,16.9,0,1.27.7,2.74,1.21,2.86,3l-.33.25a1.59,1.59,0,0,1-.81,0c-4.07-2.74-8.64-2.24-13.1-1.8a94.68,94.68,0,0,0-22.12,5.26c-1.25.44-2.48,1.06-3.88.76a.93.93,0,0,1-.72-.89,4.28,4.28,0,0,1,2.56-1.46A104.38,104.38,0,0,1,288.35,119a3.8,3.8,0,0,0,3.06-2.29c4.68-10.68,14-16.06,23.78-21,11-5.5,22.82-7.38,34.88-8.76,13.13-1.5,26.38-2.37,39.23-5.73A148.79,148.79,0,0,0,407,75.52a36.94,36.94,0,0,0,10.43-6.44,5.71,5.71,0,0,1,.58-.51,5.45,5.45,0,0,1,.6-.44c2.11-1.2,3.33-3.28,4.82-5.06,2.57-3.09,4.8-6.44,7.12-9.71a3.12,3.12,0,0,0,.76-2.8c-1.86-6.2-3.81-12.35-8.62-17.05a16.57,16.57,0,0,0-2.65-2.3,5.82,5.82,0,0,0-2.41-1.47c-1.17-.06-1.56.82-2,1.64a27,27,0,0,0-1.09,2.54c-4,10.81-12.94,16.72-22.3,22.21-8.18,4.79-17.18,6.35-26.44,7.15-7.25.63-14.5,1.24-21.76,1.79-5.75.43-11.52.81-17.27,1.21-7.18.49-14.37.75-21.54,1.35-3.75.32-7.52.33-11.28.52-7.51.38-15,.71-22.55,1.15a87.31,87.31,0,0,0-42.83,13.76,161.25,161.25,0,0,0-16.13,11.56,49.58,49.58,0,0,0-12,15.29c-1.52,2.89-2.84,5.88-4.32,8.79a1,1,0,0,1-.72.37A.49.49,0,0,1,195,118.44Z"/><path class="cls-5" d="M407.6,256.27l.95.57a4,4,0,0,0,.54.46c4.79,3.36,9.6,6.72,14.38,10.11a2.88,2.88,0,0,0,3,.48c6.59-2.44,13.25-4.67,19.52-7.92a70.44,70.44,0,0,0,11.9-7.9c2.54-2.07,4.84-4.38,7.17-6.67A42.61,42.61,0,0,0,477,223.69a33,33,0,0,0,1-9.44c-.18-2.41-.62-4.81-.79-7.21a55.89,55.89,0,0,0-1.17-7.42c-1.11-5.39-2.06-10.83-4-16-.84-2.28-1.75-4.53-2.78-6.73-1.91-4.1-3.9-8.16-5.84-12.24-1.58-3.33-2.85-6.79-4.14-10.24-2.53-6.82-5.1-13.63-7.62-20.45A185.58,185.58,0,0,1,444,109a40,40,0,0,1-1.16-11.94,71.55,71.55,0,0,1,1.67-10.37,133.26,133.26,0,0,1,4.81-14.51c2.18-6.06,4.42-12.1,6.63-18.15.47-.08.75,0,.49.56-.18.72-.36,1.44-.54,2.14.51.43,1,.15,1.44,0a77.47,77.47,0,0,1,8.81-2,55.59,55.59,0,0,1,9-.34,3.77,3.77,0,0,1,1.7.38c1.46.74,1.95,1.78,1.25,3.26-1.07,2.27-2.25,4.49-3.43,6.7-1.31,2.43-2.75,4.8-4,7.26a40.17,40.17,0,0,0-3.92,11.09,43.62,43.62,0,0,0-.55,11c.54,6.82,2.42,13.31,4.37,19.82a72,72,0,0,0,7.36,16.45c10.95,18.25,20.53,37.22,30,56.27a175.67,175.67,0,0,1,9.59,22.63,49.62,49.62,0,0,1,2.36,8.71,2.6,2.6,0,0,1,.13,1.17.48.48,0,0,1-.52.47c-.71-.34-.78-1-.94-1.68-2.57-10.85-7.13-20.95-12-30.88-10-20.31-20.54-40.33-32-59.87-5.19-8.83-7.46-18.81-9.24-28.84-2.13-12,1-22.91,7.4-33.07a58,58,0,0,0,3.47-6.69c.83-1.83.3-2.78-1.7-2.88-6-.33-11.83,1-17.56,2.68a2.57,2.57,0,0,0-1.63,1.8c-3.56,10.37-8.41,20.32-10.3,31.24-1.37,7.94-.25,15.67,1.89,23.35,4,14.16,9.66,27.7,14.57,41.52,2.43,6.82,5.87,13.17,8.94,19.68,4.81,10.16,6.74,21,8.35,32a43.67,43.67,0,0,1-4.94,28.44C469,245,461.85,251.3,454,256.83c-6.85,4.79-14.52,8-22.38,10.73-1.32.46-2.8.62-3.76,1.81a.94.94,0,0,0,.43.72c2.09,1.38,4.15,2.79,6.09,4.37l.85.62c.54.57,1.53.93.94,2-1.16.39-1.91-.43-2.69-1-8.15-5.88-16.44-11.56-24.62-17.38-.86-.61-2-1.07-1.88-2.44A.49.49,0,0,1,407.6,256.27Z"/><path class="cls-6" d="M122.21,457.74l.7.49a26.74,26.74,0,0,1-5.27,1.53c-3.63,1-7.29,1.88-10.94,2.8-.49.12-1,.2-1.48.28s-.91-.26-.77-.91a14.78,14.78,0,0,1,.39-1.45l2.7-8.56c-.41-.49-.8-.19-1.15,0L103,453.4a11.16,11.16,0,0,0-5.41,4.31c-.05.07-.09.16-.16.2a1.53,1.53,0,0,1-.63.28c-.3,0-.39-.28-.39-.52a18.36,18.36,0,0,1,1.38-7.85,19.93,19.93,0,0,1,4.17-6.23c.18-.17.36-.35.53-.53.78-.84.79-.85.15-1.93-1.11-1.87-2.25-3.73-3.36-5.6-3.52-5.89-7-11.82-10.12-17.93a147.12,147.12,0,0,1-12-32.67A95.49,95.49,0,0,1,74.56,362c0-5.53.12-11.06.17-16.6,0-2.51.34-2-1.87-3.27-10.23-5.73-20.41-11.52-30.26-17.88-6.7-4.32-13.1-9.05-19.56-13.69a29.17,29.17,0,0,1-7-6.84,15.92,15.92,0,0,1-3.17-7.54c-.25-.5,0-.67.46-.74a1.65,1.65,0,0,1,.82,1.17c1.12,4.77,4.24,8.14,7.76,11.23a327.44,327.44,0,0,0,41.54,27.34c7.38,4.14,14.62,8.53,22.27,12.17,17.14,8.16,34.71,15.15,53.25,19.46,1.53.36,3.44-.1,4.44,1.69a1.3,1.3,0,0,1-.81.82c-4.7-.18-9.1-1.72-13.58-2.95-1.6-.44-3.19-.91-4.8-1.29A291.59,291.59,0,0,1,92.64,352.8c-4.94-2.07-9.64-4.65-14.45-7-1.21-.59-2.09-.75-2.1,1-.06,13.55-.56,27.13,3.17,40.39a135.16,135.16,0,0,0,4.24,13.39,19.71,19.71,0,0,0,.88,2.55,130.65,130.65,0,0,0,6.91,15.43,23.06,23.06,0,0,0,1.12,2.22c4.65,8.51,9.77,16.74,14.74,25.06,1.26,2.1,1.23,2.06,2.64.18.71-.93,1.24-2.27,2.85-1.95l.53.45c.23.77-.27,1.27-.72,1.75-3.69,3.9-4.19,9.14-5.86,13.89-.08.23.11.47.37.57,4.1-.79,8.09-2,12.14-2.92C120.11,457.61,121.15,457,122.21,457.74Z"/><path class="cls-2" d="M505.63,298.1a1.57,1.57,0,0,1-.87,1c-1.43.62-2.28,1.92-3.33,3a122.73,122.73,0,0,1-17.36,14.23,16.81,16.81,0,0,1-9.4,2.94c-2.05.05-3.37-.57-4.2-2.38-3-4.61-3-4.9,2.35-5.65,10.46-1.46,18.92-7.26,27.78-12.22,1-.58,2-1.23,3-1.75S505.47,296.62,505.63,298.1Z"/><path class="cls-7" d="M13.37,295.58l-.46.61a18.55,18.55,0,0,1-.89-5.91,49.7,49.7,0,0,1,.55-9.52c1.38-10.63,3.57-21.12,5.74-31.61a165,165,0,0,1,8.91-28.45,221.71,221.71,0,0,1,9.93-21.39,131.56,131.56,0,0,1,18-26.24,4.23,4.23,0,0,0,1.17-2.4c.78-5.46,1.76-10.9,2.86-16.31A77.86,77.86,0,0,1,71,125.76c2.49-3.68,5-7.32,7.87-10.74a7.32,7.32,0,0,1,2.12-2.1,1.16,1.16,0,0,1,.26.67,3.57,3.57,0,0,1-.49,1.38c-6.6,8.08-12.56,16.59-16.3,26.39-3.35,8.81-4.95,18.07-6.45,28a131.38,131.38,0,0,1,11.45-10.68c2.74-2.2,5.35-4.57,8.16-6.69.78-.6,1.86-1.87,2.73-.74.67.87-.68,1.7-1.4,2.33-1.08.92-2.28,1.71-3.38,2.62-4.66,4.08-9.45,8-13.93,12.32-12.18,11.69-20.84,25.76-27.9,40.89C28,221.56,23.12,234,20.28,247.05c-2.59,12-5.15,23.94-6.53,36.11a73.89,73.89,0,0,0-.05,10.31C13.73,294.19,14.11,295,13.37,295.58Z"/><path class="cls-8" d="M505.63,298.1c-.23-.23-.43-.59-.7-.66a1.35,1.35,0,0,0-.9.25c-4.93,3.15-10.1,5.9-15.2,8.75a40.21,40.21,0,0,1-13.1,4.81c-2.3.38-4.55,1-7,1.51.45,1.56,1.65,2.58,2.2,3.94.25.46-.05.58-.42.65a1.9,1.9,0,0,1-1-.85l-.64-.81c-4.89-7.08-9.68-14.23-15.44-20.68A150.38,150.38,0,0,0,441,282.3a4.9,4.9,0,0,1-2-2.53.62.62,0,0,1,.46-.55,2.37,2.37,0,0,1,2,.86,156.24,156.24,0,0,1,13.23,13.39,177.66,177.66,0,0,1,12,15.53c1.12,1.6,2.36,1.93,4.28,1.67,9.56-1.27,17.78-5.75,25.88-10.56,1.59-.94,3.1-2,4.76-2.81,6.36-3,9.88-8.35,12.62-14.43,3-6.64,4.32-13.71,5.37-20.87,1.26-8.67,1.19-17.38.93-26.08a128.39,128.39,0,0,0-1.21-13.25c-.14-1.07-.45-2.16.42-3.1,0-.14,0-.29,0-.44s.22-.25.4-.09a149.25,149.25,0,0,1,2.1,29.47A121.24,121.24,0,0,1,521,262.23a112.58,112.58,0,0,1-2,11.1,51.71,51.71,0,0,1-10.85,21.77l-2.1,2.49a1.24,1.24,0,0,1-.39.43Z"/><path class="cls-9" d="M81,113.53l0-.61c2.3-2.22,5.17-2.56,8.15-2.37a38.41,38.41,0,0,1,8.61,1.64c7.12,2.16,14.26,4.25,21.08,7.26,4.2,1.85,8.32,3.9,12.44,6a4.54,4.54,0,0,0,3.36.4,87.25,87.25,0,0,1,13.65-1.91c2.41-.22,4.84-.35,7.25-.54a135.85,135.85,0,0,1,17.82.13c2.42.12,4.84.37,7.25.56,0,.56-.37.74-.79.91a24.41,24.41,0,0,1-6.5.14,142,142,0,0,0-37.72,2c-7,1.28-13.26,4.61-19.7,7.4-1.92.83-3.88,1.57-5.75,2.49-2,.6-3.75,1.87-5.81,2.35-.58.13-1.26.26-1.61-.32s.21-1,.65-1.4c8.74-3.59,17.19-7.87,26.3-11.33-2.86-1.93-6-2.93-8.84-4.28a140,140,0,0,0-29.24-9.72A20,20,0,0,0,87,112a8.27,8.27,0,0,0-3.78.95C82.54,113.34,81.87,114,81,113.53Z"/><path class="cls-10" d="M179.9,124.54l.65-.5h2.38c1.19.42,2.47-.08,3.67.32,2,.21,4,.45,6,.62,1.25.11,1.33,0,1.53-1.34.23-1.56.49-3.11.74-4.67.07-.23.19-.25.34-.07l.46,0c.82,1.08.31,2.26.09,3.34-.33,1.69.19,2.41,1.91,2.67,4.35.63,8.72,1.11,13,2,10,1.53,20,3.07,29.84,5.5,5.47,1.35,10.29,1.34,15.29-1.59A73,73,0,0,1,269.32,125c.9-.31,1.81-1,2.85-.37l.63.44c-.09.83-.79,1-1.39,1.25A314.81,314.81,0,0,0,241.66,140a2.27,2.27,0,0,1-1.19.33c-1.28-1-.16-1.53.43-2a24.66,24.66,0,0,1,3.21-1.83c1.19-.73.45-.92-.31-1.08-2.86-.6-5.71-1.28-8.59-1.83-13-2.46-26-4.92-39.05-6.58-4.47-.57-8.95-1.11-13.46-1.32C181.67,125.59,180.44,125.88,179.9,124.54Z"/><path class="cls-11" d="M470.47,317.2l.5-.5c1.5,2.06,1.5,2,4,2.05a14.91,14.91,0,0,0,8.71-2.64c3-2,5.81-4.21,8.61-6.45a111.21,111.21,0,0,0,11.45-10.47c.28-.3.62-.62,1-.06a39.56,39.56,0,0,1-5,5.25,162.73,162.73,0,0,1-13.83,11.28,19.38,19.38,0,0,1-12.13,4.11,1.67,1.67,0,0,0-.48.11c-.21.56.22.94.46,1.35q1.44,2.49,2.94,5A118.1,118.1,0,0,1,489.08,356a105.5,105.5,0,0,1,2.6,11,1.11,1.11,0,0,1-.05,1.13.72.72,0,0,1-.73-.14c-1.66-4.22-2.36-8.7-3.56-13.05a129.48,129.48,0,0,0-15.72-34.59C471,319.39,470,318.55,470.47,317.2Z"/><path class="cls-12" d="M458.37,462.1c0-.17,0-.34,0-.5a62.35,62.35,0,0,0,8-5.53c5.78-4.82,9.71-11,13.52-17.35A89.37,89.37,0,0,0,490.86,411c.16-.72.19-1.53,1-1.93a.73.73,0,0,1,.69.2l-.09,1c-.15.32-.1.71-.29,1a83.89,83.89,0,0,1-5.37,16.92,105.43,105.43,0,0,1-13.07,22.2,52.47,52.47,0,0,1-11.14,10.42A5.55,5.55,0,0,1,458.37,462.1Z"/><path class="cls-4" d="M456.41,54.61l-.49-.56c1.12-2.85,2.31-5.67,3.32-8.55.79-2.26,1.35-4.6,2-6.9a3.67,3.67,0,0,0,.11-.74c.14-1.57,0-1.83-1.6-2.59a1.91,1.91,0,0,1-.38-.31,3.16,3.16,0,0,1,.74-.08c1.52.17,2.17.78,2.11,2.24a15.85,15.85,0,0,1-.55,2.94,61.91,61.91,0,0,1-3,9A38,38,0,0,1,456.41,54.61Z"/><path class="cls-13" d="M492.55,409.3H492a2.27,2.27,0,0,1-.49-2.11,128.16,128.16,0,0,0,1.38-21.44,3.14,3.14,0,0,1,.14-.73c.18-.45.37-.88,1-.86a97.44,97.44,0,0,1-.27,17.5A55.09,55.09,0,0,1,492.55,409.3Z"/><path class="cls-4" d="M458.31,35.27l.53.55a2.33,2.33,0,0,0-.17.26,3.77,3.77,0,0,1-.85.43c-.3.13-.6.27-.91.39A47.39,47.39,0,0,0,443,44c-.73.51-1.36,1.25-2.37,1.24a.76.76,0,0,1-.54-.43,42.33,42.33,0,0,1,15.51-8.88A7.63,7.63,0,0,1,458.31,35.27Z"/><path class="cls-14" d="M494,384.15l-.46.54c-1-.12-1.09-1-1.12-1.67a105.15,105.15,0,0,0-1.65-13.13,1.84,1.84,0,0,1,.37-1.86h.39c.15-.24.28-.23.41,0,.46,2.77.94,5.54,1.36,8.32.19,1.22.25,2.46.36,3.7.36.82-.07,1.73.32,2.54C494,383.12,494,383.64,494,384.15Z"/><path class="cls-4" d="M437.08,47.3a9.73,9.73,0,0,1,3.05-2.51c.06.07.12.15.19.22-.37,1.63-1.07,2.84-3.05,2.49A1.8,1.8,0,0,0,437.08,47.3Z"/><path class="cls-15" d="M186.6,124.36a8.29,8.29,0,0,1-3.67-.32C184.17,123.93,185.43,123.63,186.6,124.36Z"/><path class="cls-16" d="M494,382.61a3.15,3.15,0,0,1-.32-2.54A3.91,3.91,0,0,1,494,382.61Z"/><path class="cls-2" d="M520.16,219a2.59,2.59,0,0,1-.4.09c0-.37.08-.74.11-1.11A.92.92,0,0,1,520.16,219Z"/><path class="cls-16" d="M492,368.05h-.2l-.21,0,.12-1A1,1,0,0,1,492,368.05Z"/><path class="cls-16" d="M492.17,411.35a.84.84,0,0,1,.29-1A1.05,1.05,0,0,1,492.17,411.35Z"/><path class="cls-17" d="M234.3,437.94A1,1,0,0,1,234,439,.9.9,0,0,1,234.3,437.94Z"/><path class="cls-18" d="M195.16,118.9,195,119h-.17c-.14-.25-.06-.42.19-.53A1.25,1.25,0,0,1,195.16,118.9Z"/><path class="cls-2" d="M505.68,298a.38.38,0,0,1,.39-.43A.41.41,0,0,1,505.68,298Z"/><path class="cls-19" d="M313,120.81c-.55-1.15-1.78-1.58-2.61-2.43-.19-1.1.69-1.44,1.37-1.85A91.72,91.72,0,0,1,333,106.8c.84-.25,1.93-.84,2.48.21.44.83-.47,1.52-1,2.09-3.21,3.2-6.47,6.35-8.81,10.3a18.94,18.94,0,0,0-2.83,6.67c-.59,3.68,1,5.57,4.68,6.32,7.87,1.62,15-.62,21.86-4,11.57-5.72,23.21-11.33,34.77-17.09A47.21,47.21,0,0,0,395,103.71c3.24-3,2.75-7.29-1-9.72-.93-.6-2.68-.81-2.4-2.15s2.05-1.1,3.25-1.31c7-1.22,13.18-4.22,19.32-7.61,8.31-4.57,14.63-11.06,19.84-18.86a222.81,222.81,0,0,1,16.72-22.34A24.11,24.11,0,0,1,458.86,36l0-.15c.32,0,.66.09,1,.15.07,0,.13.09.29.21-1,1.27-2,2.64-3.15,3.8a79,79,0,0,0-9.89,12.59,138.09,138.09,0,0,0-10.55,18.5,105.42,105.42,0,0,0-5.44,14.54c-1.09,3.76-2.19,7.52-3.24,11.3-1.62,5.87-3.15,11.74-4.3,17.73-1,5.31-2.09,10.61-3.29,15.89a97.79,97.79,0,0,1-3.76,13,84.46,84.46,0,0,1-5.64,11.75c-2.11,3.71-4.35,7.33-6.78,10.83a51.27,51.27,0,0,1-8.54,9.81,42,42,0,0,1-5.55,3.86c-2.42,1.49-4.92,2.84-7.41,4.21a55.33,55.33,0,0,1-6.88,3c-4.84,1.89-9.78,3.4-14.73,4.93q-9.21,2.86-18.4,5.79c-1.5.48-3.13.53-4.54,1.33-.23.11-.53.29-.71.15-2.88-2.29-6.26-4-7-8.26-3.79-20.77-8.15-41.41-13.95-61.73C315.5,126.26,313.64,123.79,313,120.81Z"/><path class="cls-20" d="M313,120.81a6.27,6.27,0,0,1,1.78,2.69,53.92,53.92,0,0,1,3.68,10.63c1.62,6.3,3.23,12.61,4.72,19,1.77,7.55,3.44,15.12,4.9,22.74.7,3.69,1.46,7.37,2.17,11.05.31,1.64.58,3.29.81,4.94a3.41,3.41,0,0,0,1,2.21c1.67,1.52,3.34,3,5,4.54a3.67,3.67,0,0,0,.88.46,40.3,40.3,0,0,0,5.44,5.17,13.43,13.43,0,0,1,1.12,1c2.66,2.54,5.44,4.94,8.26,7.31,2,1.67,3.85,3.47,5.8,5.17s4.07,3.47,6.09,5.22c1.7,1.47,3.37,3,5.08,4.47,3.1,2.67,6.23,5.3,9.32,8,2.53,2.19,5.12,4.29,7.85,6.23q5.73,4,11.44,8.13l9.17,6.55-.6.05c-.8.61-1.46.05-2-.36-9.07-6.54-18.57-12.51-27.14-19.73-.45-.38-.86-.8-1.27-1.21-8.48-7.21-16.82-14.58-25.22-21.89-6.24-5.44-12.33-11-18.66-16.85-.14,1.72.49,3.12.51,4.57,0,.78.58,1.65-.32,2.31a1.05,1.05,0,0,1-.76-.1c-.92-.9-.94-2.13-1.12-3.26-3.44-21.54-8.1-42.81-13.54-63.92a86.6,86.6,0,0,0-3.79-11.44c-.36-1.1-1.3-2-.88-3.36A1.55,1.55,0,0,0,313,120.81Z"/><path class="cls-20" d="M409.09,257.3l-.54-.46Z"/><path class="cls-16" d="M333,203c-.41-2.54-.83-5.09-1.24-7.6.53-.45.8,0,1.07.24,2,1.8,4,3.59,5.94,5.42,6.78,6.37,13.86,12.4,20.83,18.55,5.46,4.82,11,9.53,16.54,14.29a5.73,5.73,0,0,1,.63.77c-1.16,1.52-3,1.71-4.6,2.36-4.64,1.9-9.55,3.19-13.59,6.39s-5.26,6.57-3.36,11.5a74.5,74.5,0,0,0,9.84,17.48,138,138,0,0,0,17.36,19.5c7.09,6.56,15.65,9.91,25.14,11a93.11,93.11,0,0,0,26-.4c5.77-1,7.75-3.24,8-9.09a21.83,21.83,0,0,0-2.23-10.71c-.75-1.51-.72-1.52-.14-2.7a156.12,156.12,0,0,1,28,32.4c.73,1.12,1.49,2.23,2.23,3.34.15.19.31.37.44.57s.36.63.55.94a9.67,9.67,0,0,0,.55,1.12c2.65,4,4.94,8.12,7.29,12.26A98.53,98.53,0,0,1,484,343.09a148,148,0,0,1,6.56,22c.22,1,.4,1.95.61,2.93.6,3.76,1.24,7.51,1.8,11.28.17,1.23.11,2.5.16,3.74a2.27,2.27,0,0,0,.44,1.64c0,3.67.08,7.34-.06,11-.1,2.65-.49,5.28-.78,7.92-.21,1.9-.47,3.79-.7,5.68-.73.74-.5,1.75-.7,2.61a97.4,97.4,0,0,1-14.43,32.82,64.2,64.2,0,0,1-6.23,8.16,50.18,50.18,0,0,1-9,7.57,10.08,10.08,0,0,1-3.29,1.15c-.25-.13-.42-.37-.33-.6a3.66,3.66,0,0,0-.83-3.74,12.38,12.38,0,0,0-5-4.06,7.43,7.43,0,0,0-9.2,2.33,27.17,27.17,0,0,0-3.27,5.64c-.25.63-.52,1-1.21,1-2,0-4,0-6,0-.51,0-.79-.33-.59-.82.66-1.66.05-3.1-.73-4.53a11.42,11.42,0,0,0-5.31-5.15,5.28,5.28,0,0,0-6.79,1.4,15.76,15.76,0,0,0-2.46,3.48c-.63,1.28-1.31,2.53-1.94,3.8a1,1,0,0,1-1.21.64c-1.72-.34-3.44-.66-5.16-1-.43-.1-.75-.41-.5-.92a4.17,4.17,0,0,0-.34-3.87,12.86,12.86,0,0,0-6.65-6.2,3.27,3.27,0,0,0-3.9.76l-1.41,1.41c-2.85-1.95-4.54-4.93-6-7.82a111.07,111.07,0,0,1-10-27.8c-.51-2.36.57-3.68,3.08-3.77,3.1-.11,6.16-.59,9.25-.74,8.66-.43,15.52-4.79,21.92-10.13a9.53,9.53,0,0,1,1.78-1.38,2.67,2.67,0,0,1,1.47-.22c7.72,1.17,14.54-1.64,21.09-5.07,5.22-2.72,7.8-7.93,10.3-12.94A99.49,99.49,0,0,0,454.53,364a31.25,31.25,0,0,0,1.05-11.42,144.21,144.21,0,0,0,4.68-14.32,7.11,7.11,0,0,0-1-6,43,43,0,0,0-8.63-9.43c-2.74-2.26-5.79-1.75-8.78-.43a136.45,136.45,0,0,0-15.33,8.06c-3.46,2-7,4-10.41,6.1-.76.47-1.48,1.17-2.52.75a1.74,1.74,0,0,0-1.44.86q-4.95,6-9.92,12c-3.09,3.75-6.23,7.46-9.25,11.27a91.25,91.25,0,0,0-8,11.58c-.23.4-.35.94-1,1.05a20.33,20.33,0,0,1,0-2.21,145.25,145.25,0,0,0,.71-23.59c-.17-3.76-.24-7.53-.39-11.3a4.26,4.26,0,0,0-.24-2,1,1,0,0,0-.38-.28c-.16-.07-.31,0-.33.24,0,.58-.07,1.16,0,1.74.16,4.27.4,8.54.47,12.81.08,4.78.17,9.57-.06,14.34-.4,8.62-1.33,17.18-3.84,25.5a90.63,90.63,0,0,1-5.3,13.55,204.48,204.48,0,0,1-11.51,20.61,219.6,219.6,0,0,1-12.87,18.3,106.72,106.72,0,0,1-11.49,12.64,70.57,70.57,0,0,1-13,9.44,11,11,0,0,1-1.59.74c-3,1.16-5.92,2.32-8.9,3.45-1.26.47-1.26.42-2-.68s-1.37-2.11-2.09-3.14a14,14,0,0,0-2.62-2.7,4.54,4.54,0,0,0-4.73-.7,16.21,16.21,0,0,0-4.4,2.39,8.22,8.22,0,0,0-3.58,5.81,1,1,0,0,1-1.16,1c-1.17,0-2.35,0-3.52-.06s-1.25-.2-1.31-1.37a4.46,4.46,0,0,0-.93-2.55c-.71-.92-1.46-1.83-2.23-2.71s-1.39-1.45-2.08-2.18a32.29,32.29,0,0,1,5.26-5.32c8-7.13,15.23-15.07,22.48-23,6.93-7.54,13.22-15.59,19.67-23.52a66.57,66.57,0,0,0,12.53-23.87c1.74-6,3.46-12.08,5-18.18a48.05,48.05,0,0,0,1-18.69,30,30,0,0,0-4.84-11.76,8.1,8.1,0,0,0-4.5-3.47c-4-1.21-8.09-2-12.28-.54-7.36,2.53-14.86,4.7-21.66,8.67-6.62,3.86-12.47,8.75-18.23,13.75-2.33,2-4.82,3.91-6.56,6.55a1.19,1.19,0,0,1-1.26.64c-.15-.35-.43-.61-.75-.36a3.34,3.34,0,0,0-.71,1q-3.48,6.27-6.93,12.53l-.95,1.7a38.19,38.19,0,0,1-2.27-5.68,12.56,12.56,0,0,1-.44-6.2,13.19,13.19,0,0,1,.51-1.94c.36-1.11.81-2.2,1.1-3.33.21-.8,1.15-1.48.46-2.44-.9.4-.94,1.31-1.2,2.07-.55,1.58-1.06,3.17-1.55,4.77a10.24,10.24,0,0,0,.07,6.65c.61,1.74,1.12,3.51,1.8,5.22.91,2.31,1.07,1.86-.23,4.43-1.89,3.74-3.54,7.58-5.08,11.47a217.88,217.88,0,0,0-7,20.94c-.27.95-.23,2.19-1,2.74s-2.1.12-3.17,0c-2.72-.41-5.45-.82-8.19-1.14-5.4-.63-10.75-1.56-16.08-2.61-7.14-1.39-14.24-2.95-21.29-4.73a76.15,76.15,0,0,1-13.63-5.05c-6.45-3-12.59-6.64-18.72-10.25q-8.12-4.8-16-9.94c-.62-.4-1.18-1-2-.68-2.91-.59-5.45-2.1-8-3.4-7.84-3.93-15.85-7.51-23.54-11.72-.88-.48-2.17-.6-2.18-2a37.39,37.39,0,0,1,6.74,1.78,103.35,103.35,0,0,0,11.9,2.69c1.57-.82,3.2-.27,4.67.13,5.3,1.43,10.73,1.66,16.13,1.92,23.64,1.15,47-1.49,70.12-6.06a202.85,202.85,0,0,0,60-21.71,73.93,73.93,0,0,0,25-23.19c.38-.56.74-1.12,1.08-1.7A76.19,76.19,0,0,1,305,335.45c-5.32,4.7-11.44,8.17-17.75,11.29A217.82,217.82,0,0,1,225,366.55c-10,1.61-20,3.16-30.1,3.87-15.19,1.07-30.4,1.56-45.52-.9-.27-.71.25-1.07.67-1.45a26.28,26.28,0,0,0,6.79-8.83c.25-.57.78-.77,1.19-1.14-1.08,0-1.08,0-1.45-.85,1.42-.76,3-.47,4.44-.42a97.59,97.59,0,0,0,30.32-3.5,173.8,173.8,0,0,0,35-14.54,188.18,188.18,0,0,0,18.19-11.17c1.19-.82,2.32-1,3.44-.06s2,.81,2.5-.54c1.79-4.68,6.16-6.94,9.56-10.08,1.51-1.4,3.72-1.47,5.63-2a169,169,0,0,0,20-7.41c5.3-2.24,7.41-6.59,8.37-11.37.1-.77-.48-.38-.16-.49.11,0,.16,0,.13.22-1,5.43-3.49,9.46-8.84,11.85a167.21,167.21,0,0,1-46.57,12.75c-5.13.68-10.26,1.49-15.38,2.23a4.64,4.64,0,0,1-2.48-.1c-1.19-1.34.24-1.93.86-2.62,5.88-6.51,12.1-12.69,18.32-18.87a56.48,56.48,0,0,0,4.93-5.33c.47-.61,1-1,.19-1.7,2.77-1.35,5.85-1.09,8.78-1.64,6.07-1.16,12.18-2.16,18.29-3.13,5.72-.9,10.8-3.46,15.83-6.18,3.28-1.78,3.4-5,3.7-8,.35-3.44-.4-6.83-1-10.21-1.61-9.74-3.07-19.52-7-28.71-1.21-2.86-2.73-5.56-4.05-8.37a8.28,8.28,0,0,1-1.15-3c1.62-5.46,3.95-10.67,6-16,7.54-19.44,15.15-38.86,21.84-58.61,2.72-8,4.7-16.25,6.92-24.41.19-.71.09-1.54.87-2a34.66,34.66,0,0,1,2.74,7.24c2.69,9.67,5.14,19.39,7.21,29.21,1.21,5.8,2.5,11.59,3.68,17.4.85,4.18,1.59,8.37,2.34,12.56s1.42,8.23,2.13,12.35a1.72,1.72,0,0,0,.25.43c1.72,6.87,2.52,13.9,3.72,20.86,1.93,11.19,3.95,22.38,4.85,33.72a61,61,0,0,1,.35,7.28,51.37,51.37,0,0,0-.37-7.44c-1.31-15.6-4.54-30.9-6.89-46.34C333.67,208.39,332.64,205.77,333,203Z"/><path class="cls-21" d="M281.26,362.51c1.4-1.66,2.45-3.65,4.23-4.93,2.25-1.63,4.07-3.71,6.23-5.44,3.53-2.81,7-5.63,10.7-8.27a60.24,60.24,0,0,1,9.6-5.41c6-2.82,12.37-4.61,18.61-6.77a5,5,0,0,1,3.2-.2,8.46,8.46,0,0,0,2.73.3,12.63,12.63,0,0,1,8.1,2.89,6.18,6.18,0,0,1,1.51,1.67c2.06,3.35,4.1,6.73,4.77,10.68a25.39,25.39,0,0,1,.75,6,8.53,8.53,0,0,0,0,1,45.46,45.46,0,0,1-1.49,13.38c-1.76,7.32-3.75,14.56-6.14,21.68a50.41,50.41,0,0,1-3.45,8.61,78.93,78.93,0,0,1-7.43,11.3c-2.37,2.92-4.62,5.93-7,8.85-1.94,2.4-4,4.73-6,7.1-1.39,1.66-2.75,3.35-4.13,5l-.33.38c-2.51,2.69-5.08,5.33-7.52,8.09-4.5,5.09-9.31,9.88-14.18,14.6-2.47,2.38-5.09,4.6-7.54,7a9.67,9.67,0,0,1-1.89,1.21c-1-.74-2-1.47-3-2.23a4.75,4.75,0,0,0-5.62-.34c-1,.56-1.93,1.29-2.89,1.95-4,.46-8.08.83-12.05-.47-1-.92-1.91-1.88-2.91-2.75a6.38,6.38,0,0,0-4.73-2,3.2,3.2,0,0,1-.75-.09,1.3,1.3,0,0,1-1.18-1.39c0-1.42.05-2.85.2-4.26q.61-5.35,1.35-10.69c.3-2.15.69-4.29,1.05-6.44,1.42-.17,1.53,1.07,1.89,1.9a32.57,32.57,0,0,0,3.15,6.27c2.35,3.23,4.89,4.31,8.71,3.19,8.87-2.62,16.82-7,22.24-14.61,4.2-5.91,6.28-12.92,8-19.92a77,77,0,0,0,2.14-14.88,2.77,2.77,0,0,1,.2-.72,108.28,108.28,0,0,1,10-11.3,1,1,0,0,1,.7.21c1.9,2.68,2.83,5.85,4.5,8.66a70.71,70.71,0,0,0,4.21,6.54c2.3,3.06,4.06,2.84,5.59-.64a55.62,55.62,0,0,0,2.84-10.13,97,97,0,0,0,2.4-16.35,2.07,2.07,0,0,0-1.4-2.32,1,1,0,0,1-.42-.61c2.66-2.66,6.3-3.7,9.41-5.59,1.93-1.18,4-2.16,5.94-3.27.88-.49,1.58-1.07,1.27-2.17-1.59-5.8-2.69-11.78-7.64-16-3.44-3-7.59-3.68-11.62-1.57a33.73,33.73,0,0,0-3.59,2.31c-6.38,4.48-12.86,8.79-19.37,13.08-4.75,3.11-8.31,7-10,12.74A149.94,149.94,0,0,1,288,382.2c-.7,1.72-.51,3.63-1.44,5.27a3,3,0,0,1-1.2.35c-3,0-5.92.09-8.88,0-1.47-.22-1.7-1.23-1.38-2.41,2-7.5,3-15.27,6-22.5A.83.83,0,0,1,281.26,362.51Z"/><path class="cls-16" d="M161,384.13c3.27,2,6.53,4.08,9.82,6.06,6.82,4.1,13.64,8.2,20.75,11.78,1.94,1,3.91,1.87,5.79,2.77.27.68-.15,1.05-.4,1.44-6.9,10.5-13.76,21-20.73,31.47a104.34,104.34,0,0,1-10.76,13.25,31,31,0,0,1-5.09,4.47,13.26,13.26,0,0,1-5.8,2.23c-1.16.16-2.32.32-3.48.46-.66.07-1-.17-1.21-.91a21.75,21.75,0,0,0-3.39-7,14.41,14.41,0,0,0-1.28-1.53,4.66,4.66,0,0,0-6.35,0,30.62,30.62,0,0,0-4.91,6.94c-1.52,3.06-.82,2.57-4.35,2.42a7.08,7.08,0,0,1-3.09-.64c0-.13,0-.25,0-.3,1.5-1.84,1.06-3.76.12-5.63a17,17,0,0,0-5.5-6.4c11.45-14.51,21.47-30.05,32.4-45a42.39,42.39,0,0,0,7-15.42A1.2,1.2,0,0,1,161,384.13Z"/><path class="cls-21" d="M415.66,399.67a6.12,6.12,0,0,1-1.84,2c-3.42,2.54-6.74,5.22-10.64,7.05a35.19,35.19,0,0,1-9.35,2.64c-2.56.43-5.17.13-7.7.83a11.41,11.41,0,0,1-2.75.09,15.1,15.1,0,0,0-1.51,0A2.05,2.05,0,0,0,380,415c.48,2,1,4.06,1.53,6.07a113.14,113.14,0,0,0,4.69,13.48c.35.85.7,1.7,1,2.56a37.68,37.68,0,0,0,6,10.66c.84,1,1.5,2.21,2.24,3.32a4.12,4.12,0,0,1-1.51,2c-8-10.61-12.41-22.83-16.23-35.35-1.14-3.76-1.95-7.59-2.77-11.43a9.37,9.37,0,0,1,0-2c1.67-3.62,3.3-7.26,4.61-11A64.6,64.6,0,0,0,383,379.53a3.27,3.27,0,0,1,.41-.87c1.72-1.73,2.58-4,3.88-6,3-4.67,6-9.37,9.21-13.95a25.48,25.48,0,0,1,3.19-4.12c4.25-5.13,8.53-10.23,12.8-15.36.47-.56,1.1-1,1.14-1.88l6.69-3.94q4.11-2.4,8.24-4.78c2.1-1.21,4.2-2.42,6.31-3.61a11.1,11.1,0,0,1,1.79-.9,48.23,48.23,0,0,0,5-2.3,11,11,0,0,1,5.08-1.13,6.41,6.41,0,0,1,4.37,1.63,51.19,51.19,0,0,1,8.88,9.82,12.37,12.37,0,0,1,1.35,4,3,3,0,0,1-.18,1.23,93.14,93.14,0,0,1-2.91,9.83c-.44,1.35-.93,2.69-1.35,4a2,2,0,0,1-.89,1.17c-2.3-2-3.67-4.72-5.62-7-4.55-5.3-13.66-5.62-19.09-2A99,99,0,0,0,412.68,359a18.81,18.81,0,0,0-4.68,8.51c-1.44,6.31-2.48,12.62-1,19.12,1.17,5.1,3,9.6,8.05,12a2.19,2.19,0,0,1,.49.6C415.59,399.42,415.63,399.55,415.66,399.67Z"/><path class="cls-21" d="M161,384.13a11,11,0,0,1-.84,4.37,60.27,60.27,0,0,1-9.61,16.93c-1.55,2-3,4-4.45,6.06-4.56,6.49-9.12,13-13.62,19.51-3.14,4.54-6.53,8.88-9.86,13.27a2,2,0,0,1-1.47.83,21.91,21.91,0,0,0-4.5-2c-1-4.55-3.76-8.34-5.39-12.61-.42-1.09-1.06-2.08-1.54-3.15-.37-.84-.77-1.7-.15-2.61,1.31-.82,2.77-.45,4.17-.5a5.29,5.29,0,0,0,4.82-2.64c3.71-6.55,7.82-12.86,11.59-19.38,4.29-7.41,2.53-14.13-1.64-20.73a13.7,13.7,0,0,0-2-2.55c-3.11-3-6.59-4-10.77-2.3-6.16,2.48-12.11,5.3-17.21,9.66a4.55,4.55,0,0,1-2.81,1.51,1.56,1.56,0,0,1-.68-.54c-1-1.67-.73-3.58-.91-5.38-.85-8.64-2.2-17.25-1.81-26,.05-1.23-.23-2.54.78-3.56a24.91,24.91,0,0,1,4.38,1.8,199.41,199.41,0,0,0,21.65,8.41c1.75.55,3.44,1.26,5.16,1.89.1.13.18.32.31.38,3.63,1.67,6.92,4,10.65,5.46,2.32.91,4.49,2.19,6.74,3.28,4.56,2.22,9.15,4.4,13.71,6.63a6.08,6.08,0,0,1,2.33,1.41c.15.52.59.75,1,1C159.62,383.16,160.28,383.65,161,384.13Z"/><path class="cls-22" d="M300.89,393.67l-.18.57c-1.1,4.8-1.08,9.77-2.36,14.55-2.09,7.78-4.29,15.53-9.31,22-3.38,4.35-7.92,7.4-12.81,9.88a43.93,43.93,0,0,1-7.67,3.09c-4.59,1.3-7.42.38-9.84-3.7-1.93-3.26-3.93-6.61-3.72-10.66a42.86,42.86,0,0,1,1.67-7.32c2.18-8.24,4.51-16.44,7.43-24.46.66-1.8,1.39-3.58,2.08-5.38a19,19,0,0,1,11.88-4.53,30,30,0,0,1,7,.13c.87.65.6,1.52.29,2.28-5.12,12.83-7.26,26.47-10.94,39.7-.13.48-.25,1-.28,1,7.69-11.15,15.45-22.8,23.61-34.17,1.61-2.24,1.23-4.26-1.09-5.78a10.87,10.87,0,0,0-5.48-1.58,15.6,15.6,0,0,1-5.4-1,.83.83,0,0,1,0-1.07l1.06-.17c3.68-1.44,10.8.26,13.14,3.2C300.68,391.24,301.53,392.27,300.89,393.67Z"/><path class="cls-16" d="M220.63,411.42c4,.8,8,1.65,12,2.39s7.9,1.38,11.87,2,8.12.92,12.31,1.67c-.19.9-.31,1.7-.51,2.47-1.28,5-2.64,10-3.54,15.13-.28,1.57-.53,3.13-.79,4.7a.75.75,0,0,1-.88.68c-1-.11-2-.27-3-.46a22.18,22.18,0,0,1-11-5.6,66.12,66.12,0,0,1-13.25-16.62c-.9-1.6-1.83-3.19-2.73-4.79A2.54,2.54,0,0,1,220.63,411.42Z"/><path class="cls-15" d="M109.6,424.88a3.64,3.64,0,0,0,.59,2.13c1.92,4.06,3.85,8.1,5.76,12.16.49,1.05.94,2.13,1.36,3.21.23.62-.41.56-.71.76l-1.93,0c-.31.17-.71.08-1,.33l-1,.65a6.51,6.51,0,0,0-2.92,3,11.35,11.35,0,0,1-1,1.83c-.56-.07-.66-.43-.81-.69-4.8-8.11-9.84-16.07-14.39-24.33-.56-1-1.09-2.06-1.64-3.09.64-1.16,1.65-.58,2.41-.36,4.81,1.38,9.68,2.47,14.56,3.55A1.33,1.33,0,0,1,109.6,424.88Z"/><path class="cls-23" d="M296.85,469.67a5.94,5.94,0,0,1,1.7-4.37,15.5,15.5,0,0,1,5-3.34,4.45,4.45,0,0,1,5.12.78,20.89,20.89,0,0,1,4,5.42,2.12,2.12,0,0,1,0,2.16,9.79,9.79,0,0,1-1.24,1.87c-1.84,1.94-3.72,3.83-5.63,5.71-.64.64-1.06.65-1.75,0-2-1.78-4-3.59-5.93-5.41A3.71,3.71,0,0,1,296.85,469.67Z"/><path class="cls-24" d="M276.12,479.63c-.26.2-.53.42-.86.14a1.33,1.33,0,0,1-.27-.41c-1.41-2.56-2.9-5.07-4.19-7.68-2-4.13-1.68-5.8,1.63-9.1a20.36,20.36,0,0,1,3.65-3,4.09,4.09,0,0,1,5.29.26c.76.65,1.54,1.28,2.31,1.91a2.13,2.13,0,0,1,.13,2.34c-2.19,4.84-4.3,9.7-6.74,14.41A4.35,4.35,0,0,1,276.12,479.63Z"/><path class="cls-23" d="M413,466.52a3.75,3.75,0,0,1,.15-.87c1.48-3.17,2.93-6.37,4.66-9.42a15.73,15.73,0,0,1,2.32-2.94,4.27,4.27,0,0,1,5.06-1,9.33,9.33,0,0,1,4.13,3.16c.3.4.59.81.85,1.24,2.17,3.54.57,7.21-3.52,7.89-3.62.6-7.26,1.05-10.9,1.57Z"/><path class="cls-23" d="M448.92,453.47a10,10,0,0,1,8.1,5.14,2,2,0,0,1-.22,2.57,25,25,0,0,1-2.27,2.33c-2,1.71-3.95,3.38-5.95,5-.85.72-1,.71-1.68,0-1.87-1.81-3.75-3.61-5.58-5.45-1.06-1.06-1.1-1.3-.35-2.62.87-1.53,1.77-3.05,2.76-4.49A5.54,5.54,0,0,1,448.92,453.47Z"/><path class="cls-23" d="M132,462.83c1.35-4.12,2.94-8.13,5.82-11.51a22.27,22.27,0,0,1,2.06-2.17,3,3,0,0,1,4.1-.33,5.79,5.79,0,0,1,1.6,1.56,22.56,22.56,0,0,1,3.15,6c.43,1.2.23,1.69-.89,2.2-.75.34-1.53.66-2.32.93-3.95,1.34-7.94,2.52-12,3.47A1.65,1.65,0,0,1,132,462.83Z"/><path class="cls-16" d="M363.86,424.64c0-.33,0-.52.09-.64,3.31-5.32,6.25-10.84,9.37-16.26,0-.05.15,0,.31-.08a15.43,15.43,0,0,1,.67,3.31A55.17,55.17,0,0,0,376,419.8c.55,1.92,1.29,3.79,1.95,5.68.05.16.12.31.17.47.15.53-.07.87-.54.81-2.73-.37-5.46-.68-8.17-1.13C367.56,425.33,365.68,425.41,363.86,424.64Z"/><path class="cls-23" d="M122.21,457.74l-14.67,3.66a14.47,14.47,0,0,1-1.47.22c0-1.67,1.32-2.47,2.34-3.33,3.92-3.29,7.38-7,11-10.59a3.62,3.62,0,0,1,1.83-1.24,14,14,0,0,1,4.2,4.79,10.41,10.41,0,0,1,.94,2.29c.5,1.75-.09,2.83-1.84,3.46C123.8,457.28,123,457.5,122.21,457.74Z"/><path class="cls-23" d="M395,453.6a16.9,16.9,0,0,1,2.45-3.14,2.53,2.53,0,0,1,3.18-.63,11.63,11.63,0,0,1,5.85,5.28,4.86,4.86,0,0,1,.74,2.37,1.16,1.16,0,0,1-.71,1.21,10.36,10.36,0,0,1-1.42.49,53,53,0,0,1-12.67,1.45,1.51,1.51,0,0,1-1.18-.29c-.32-.3-.19-.58.1-.82a2,2,0,0,0,2.24-1.77C393.86,456.32,394.55,455,395,453.6Z"/><path class="cls-16" d="M281.12,362.89c-.69,3-1.36,6-2.09,9-1.07,4.45-2.19,8.89-3.28,13.33a6.9,6.9,0,0,0-.23,1.48c0,.38.42.46.73.56a.82.82,0,0,1-.76.83,20.25,20.25,0,0,0-6.5,2.25c-.61.29-1.4,1.15-2-.12a151.41,151.41,0,0,1,8.07-16.67c1.52-2.87,3.12-5.71,4.71-8.55A6.47,6.47,0,0,1,281.12,362.89Z"/><path class="cls-25" d="M121.27,446.46a5.77,5.77,0,0,1-1.76,2.07c-4,3.82-8,7.63-11.92,11.44-.53.52-1,1.1-1.52,1.65-.13-.05-.33-.07-.4-.18a.59.59,0,0,1,0-.47,108.53,108.53,0,0,1,4.06-11.87,14.27,14.27,0,0,1,3.49-4.55,5.84,5.84,0,0,1,4.62,0A9.86,9.86,0,0,1,121.27,446.46Z"/><path class="cls-26" d="M255,429.41a10.88,10.88,0,0,0,1,3.6c1.07,2.53,1.89,5.18,3.51,7.47a12.82,12.82,0,0,0,1.85,2,3.22,3.22,0,0,0,2,1,15.11,15.11,0,0,0,5.22-.34,48.56,48.56,0,0,0,11.79-5.5c1.39-.91,2.65-2,4-3.05a9.46,9.46,0,0,1,.74-.68c2.91-1.89,4.64-4.75,6.27-7.68a72,72,0,0,0,6.22-16.63,61,61,0,0,0,1.66-9.09c.2-1.82.3-3.65.63-5.45a.91.91,0,0,1,.82-.81c.41,2.61-.15,5.18-.49,7.73a81.08,81.08,0,0,1-6.75,22.76,30.7,30.7,0,0,1-8.74,11.13,47,47,0,0,1-15.36,8.27c-.71.24-1.44.43-2.17.6a7.66,7.66,0,0,1-8.34-3.21,27.87,27.87,0,0,1-2.72-5.08c-.46-1.07-.88-2.17-1.33-3.24a1,1,0,0,0-.7-.66A10.1,10.1,0,0,1,255,429.41Z"/><path class="cls-23" d="M276.12,479.63c.58-1.39,1.11-2.78,1.74-4.14,1.58-3.42,3.21-6.8,4.78-10.22.52-1.12,1.22-2.21,1-3.54a24.49,24.49,0,0,1,4.14,4.31c.25.33.5.67.73,1a2.63,2.63,0,0,1,0,3.05,10.85,10.85,0,0,1-3.13,3.2c-1.64,1.14-3.31,2.26-5,3.38Z"/><path class="cls-27" d="M375,404.33a45.74,45.74,0,0,1,1.64,6.52,157.58,157.58,0,0,0,7.74,23.56A99.5,99.5,0,0,0,393,450.83a5.24,5.24,0,0,1,1,2.26c-.76.06-.91-.64-1.26-1a68.75,68.75,0,0,1-11.87-21.13c-1.25-3.38-2.44-6.77-3.69-10.15a38.35,38.35,0,0,1-1.67-7.33c-.38-2.4-.65-4.81-1-7.22A2.41,2.41,0,0,1,375,404.33Z"/><path class="cls-25" d="M244.92,466.1a12.65,12.65,0,0,1,1.91-3.77c1-1.44,2-2.88,3.08-4.27.55-.7.86-1.82,1.86-1.88a6.59,6.59,0,0,1,3.69.4,13.67,13.67,0,0,1,4.23,3.46c.15,1.31-.89,1.7-1.74,2.1-3.67,1.74-7.41,3.3-11.19,4.77C246.24,467.11,244.67,468.27,244.92,466.1Z"/><path class="cls-28" d="M244.92,466.1c.12.55.3.91,1,.61,2.52-1.12,5.05-2.19,7.56-3.28,1.68-.73,3.35-1.48,5-2.22.55-.24,1.05-.52,1.19-1.17a10.69,10.69,0,0,1,2.59,4.73c.16.6,0,1-.61,1.14-1.3.25-2.62.48-3.94.62-3.65.37-7.3.7-11,1-.41,0-.83.05-1.25.06C244.36,467.64,244.27,467.42,244.92,466.1Z"/><path class="cls-16" d="M261.08,460.14H266a30.22,30.22,0,0,1,7.11.48c-.62.67-1.22,1.35-1.86,2a9.47,9.47,0,0,0-2.27,3.22c-.44,1.09-.5,1.08-1.62.92-.82-.12-1.63-.3-2.44-.42a2,2,0,0,1-1.87-1.94C262.84,462.8,261.78,461.54,261.08,460.14Z"/><path class="cls-29" d="M396.46,358.69a3.78,3.78,0,0,1-.29,1.19q-5.57,8.76-11.16,17.5a9.57,9.57,0,0,1-1.12,1.65c-.49.51-.35-.22-.52-.37a44.09,44.09,0,0,1,4.62-8.85A98.22,98.22,0,0,1,396.46,358.69Z"/><path class="cls-17" d="M236.16,434.83c1.34,1,2.42,1.94,3.57,2.73s2.2,1.34,3.66,2.2c-3,.4-5.61.76-8.2,1.09-.4,0-.69-.22-.59-.58A34.14,34.14,0,0,1,236.16,434.83Z"/><path class="cls-30" d="M267,390.2a.83.83,0,0,0,.93,0c1-.46,1.93-.94,2.91-1.37a11,11,0,0,1,4.5-1.24,2.8,2.8,0,0,0,.9-.35,90.65,90.65,0,0,1,9.47,0c0,.29,0,.59,0,.89l-.13.18-.21-.06c-2.25,0-4.51-.22-6.75,0a22.66,22.66,0,0,0-8.39,2.14c-1.33.67-2.71,1.26-4.07,1.88C266.46,391.57,266.74,390.88,267,390.2Z"/><path class="cls-31" d="M395,453.6c.44.74,0,1.43-.16,2.11a29.87,29.87,0,0,1-.92,3.33c-.4,1.34-1.17,1.47-2.58.48A26.56,26.56,0,0,1,395,453.6Z"/><path class="cls-21" d="M113.68,443.45a.77.77,0,0,1,1-.33A1,1,0,0,1,113.68,443.45Z"/><path class="cls-21" d="M156.38,357.55c.56.66,1.45.18,2.11.62-.5.41-1.07.66-1.2,1.42a6.94,6.94,0,0,1-1.75,3.22c-1,1.2-1.91,2.49-2.92,3.69a8.67,8.67,0,0,1-3.29,2.58c-2,.62-3.94,0-5.84-.66a33.28,33.28,0,0,0-5.13-1.12c-6.05-1.33-11.93-3.29-17.85-5.1-10.35-3.16-20.21-7.56-30.05-12-6.81-3.06-13.36-6.6-19.85-10.28-8.37-4.76-16.78-9.45-24.91-14.62s-16.08-10.91-23.9-16.69a1.91,1.91,0,0,1-.28-.4c-4.23-11.26-5-22.61-1.07-34.14,2.1-6.13,2.78-12.58,4.07-18.89.22-1.07.06-2.42,1.42-3,1.35,1.45.67,3.12.55,4.74-.33,4.33-.61,8.66.26,13a9.23,9.23,0,0,0,4.81,6.42,102.26,102.26,0,0,0,28,9.91c2.17.46,3.08-.26,3.55-2.47.85-4,.9-8.11,1.27-12.18a3.25,3.25,0,0,0,.21-1.23c-.3-5.4.74-10.75.52-16.15,0-5.71,0-11.41,0-17.12-.06-1.73.23-3.48-.23-5.19-.46-6.57-.87-13.16-1.75-19.7-.38-2.86-1.07-5.53-3.38-7.6-2.7-2.43-6-2.76-8.87-.5C49,205.58,47,207,45.59,209a2.23,2.23,0,0,1-1.6,1.12c-1.44-1.11-.15-2.11.23-3,4.77-11.61,11.56-22.12,18-32.81,3.95-6.53,8.73-12.48,13.2-18.65,1.15-1.34,2.81-2,4-3.29a4,4,0,0,0,.56-.78s0-.15-.07-.2-.16-.13-.19-.12a3.89,3.89,0,0,0-.86.45c-2.65,2.14-5.29,4.3-7.93,6.45l-1.18.91c-.68-.69-.5-1.53-.42-2.37,1.22-13.63,5.16-26.58,10-39.3.38-1,1.2-1.85,1.15-3l.47-.87c.79-.44,1.56-.93,2.38-1.3a6.27,6.27,0,0,1,3.58-.74,4.09,4.09,0,0,1,1.91,1.16c5.58,6.95,11.8,13.5,14.58,22.28.31,1,1,2,.12,3.06a6.61,6.61,0,0,0-.77.63s0,.36.11.37a1.63,1.63,0,0,0,.73,0c1.24-.49,2.47-1,3.7-1.51a6.39,6.39,0,0,1,2.3-.88,113.84,113.84,0,0,1,12.28-2.41,6.27,6.27,0,0,1,2.24-.14c1.16.22,1.36.84.7,1.78a4.8,4.8,0,0,1-1.29,1.17c-3.87,2.65-7.61,5.46-10.57,7.22,5-2.23,11.41-4.09,17.77-6.09a108,108,0,0,1,28.11-5c5.78-.23,11.55-.4,17.32-.31s11.19-.6,16.81-.6a291.3,291.3,0,0,1,48,3.54c1.14.19,2.39.14,3.07,1.36-1.16.65-2.33,1.28-3.47,2-.39.23-.61.58-.12,1,.92,1.11.3,2.25,0,3.35-2.18,8.86-4.42,17.71-6.42,26.83,25.55-17.33,52.51-32.34,78.32-49.2a2.22,2.22,0,0,1,.37,0l1.29,2.74c0,2.47-.93,4.73-1.56,7.06q-1.8,6.63-3.62,13.26c-1.06,3.87-2.4,7.65-3.75,11.42-2.48,7-4.92,14-7.62,20.95-2.5,6.46-4.86,13-7.34,19.45-1.67,4.37-3.45,8.7-5.15,13q-2.68,6.88-5.3,13.8a4.87,4.87,0,0,1-.92,1.76c-1.17-.2-1.55-1.23-2.07-2a40.27,40.27,0,0,0-16.25-14.59c-5.57-2.8-11-2-16.38.74-10.5,6-18.32,14.66-24.51,25-6.49,10.78-11.33,22.15-13.44,34.64a89.2,89.2,0,0,0-1.23,19.23c.25,4.82,2,6.77,6.6,7.29a130.42,130.42,0,0,0,18.54.59,12.51,12.51,0,0,0,1.72-.36c3.44-.25,6.88-.54,10.3-1a3.15,3.15,0,0,1,2.82.51l1.42.25a45,45,0,0,1-3.37,4.07c-3.6,3.61-7.22,7.2-10.78,10.85-3.85,3.95-7.64,7.95-11.45,11.93a4.49,4.49,0,0,0-.42.62c-.45,1.21-1.54,1.07-2.53,1.19-7.62,1-15.27,1.77-22.93,2.38-5.74.45-11.5.83-17.25,1.2-7.34.46-14.69.66-22,1.36-3.42.33-6.86.35-10.27.45-5.61.17-11.2.7-16.81.67a159.39,159.39,0,0,1-41.35-6c-11.58-3.17-22.72-7.58-33.8-12.1-7.11-2.91-14.19-6-21.08-9.43-4.39-2.19-5.33-3.34-6.71-8.12a11,11,0,0,0,6.37,8c5.49,2.48,10.92,5.13,16.52,7.33a20.65,20.65,0,0,1,6.66,4.37c2.86,2.7,6,5.13,8.69,8a9.6,9.6,0,0,1,1.81,2.39c.89,1.84,1.7,3.6,4.22,1.71.86-.64,2,.08,2.81.59,7.73,4.57,15.82,8.44,23.88,12.36a244.25,244.25,0,0,0,36.58,14.65c6.83,2.06,13.94,2.7,21,3.55C154.92,356.88,155.81,356.75,156.38,357.55Z"/><path class="cls-19" d="M272.17,124.58a127.58,127.58,0,0,0-14.79,6.19c-2.4,1.17-4.85,2.25-7.24,3.44a3.78,3.78,0,0,1-2.64.31c-2.84-.63-5.71-1.2-8.57-1.78-5.88-1.19-11.75-2.41-17.69-3.34-2.38-.37-4.75-.85-7.13-1.26a19.16,19.16,0,0,0-2-.2,2,2,0,0,1-1.4-.41,22.57,22.57,0,0,0,4.38-5.44c8.49-13.68,19.31-25,33.2-33.36,5.83-3.48,12.35-5.15,18.77-7.09a94.56,94.56,0,0,1,11.74-2.81c.81-.14,1.79-.46,2.3.4s-.22,1.61-.72,2.24c-1.7,2.19-3.87,3.94-5.78,6,21.94-10.41,53.66-11.74,70.17-11.08-1.2-.22-2.42-.26-3.63-.38-.95-.09-2-.51-2-1.56s1.2-.93,2-1c8-.89,16-1.65,23.85-3.59a147,147,0,0,0,35.54-13.8C409,51.5,412.91,43.44,416,34.82c.65-1.86.56-4,2.17-5.51,1,.13,1.46.85,2,1.53a13.38,13.38,0,0,1,2.35,4.93c2.7,8.76,1.33,17.34-1.23,25.83-.72,2.38-1.25,4.86-2.6,7h0a1.09,1.09,0,0,0-.44.55,5.56,5.56,0,0,1-1.6,1.57,44,44,0,0,1-11.66,6.34,183.68,183.68,0,0,1-19.47,5.82,67.94,67.94,0,0,1-11.88,1.82,49.79,49.79,0,0,0-5,.62c-2.81.41-5.6.91-8.42,1.28-1.41.18-2.82.27-4.24.45-3.64.49-7.32.68-11,1.18-5.54.76-11.14,1.21-16.49,3-2.94,1-5.86,2-8.72,3.2a97.94,97.94,0,0,0-15.95,8.49,29.26,29.26,0,0,0-9.34,9.67c-1,1.59-1.9,3.17-2.72,4.82a3.34,3.34,0,0,1-2.79,2.1,48.52,48.52,0,0,0-8.71,2.33C277.57,122.79,274.86,123.67,272.17,124.58Z"/><path class="cls-18" d="M458.86,36a9.64,9.64,0,0,1-2.59,2c-3.7,2.51-3.73,2.49-6.46,5.83-1.9,2.33-3.8,4.67-5.63,7.06s-3.36,4.58-5,6.89c-3.37,4.69-6.63,9.46-10.12,14a36.41,36.41,0,0,1-7.83,7.39c-2.8,2-5.81,3.64-8.75,5.41A56.18,56.18,0,0,1,400.07,90a23.73,23.73,0,0,1-6.36,1.29,3.12,3.12,0,0,0-1.91.64c.44.81,1.34.93,2.05,1.26,2.75,1.3,3.68,3.74,4.1,6.48a4.54,4.54,0,0,1-1.8,4,50.51,50.51,0,0,1-10.78,7.75c-5,2.68-10.21,5-15.34,7.51-6.27,3-12.48,6.15-18.68,9.31a66.57,66.57,0,0,1-11.68,4.53,22.16,22.16,0,0,1-10.43.47,18.85,18.85,0,0,0-2-.17c-3.6-.36-5.39-2.4-5.23-6a11.81,11.81,0,0,1,1.12-4.35,37.81,37.81,0,0,1,4-6.64c1.86-2.62,4.28-4.71,6.48-7a6.21,6.21,0,0,0,1.6-1.86c-.45-.35-.82-.15-1.22,0a86.58,86.58,0,0,0-12.17,4.68c-3.68,1.81-7.22,3.89-10.81,5.88-.27.14-.43.49-.64.74-1.15-.18-2.31-.37-3.46-.53a37.27,37.27,0,0,0-10.49.39,22,22,0,0,0-4.14.68,1.65,1.65,0,0,1,.31-1.54c.26-.52.53-1,.82-1.56,4.23-7.41,6.86-10.07,14.26-14.4a95.19,95.19,0,0,1,22.48-9.79,73.63,73.63,0,0,1,10.09-1.94c5.89-.81,11.8-1.33,17.7-2,4.07-.48,8.11-1.16,12.17-1.72,1.66-.23,3.32-.44,5-.57a85.76,85.76,0,0,0,18.15-3.7c4.32-1.29,8.66-2.56,12.86-4.22a44,44,0,0,0,15.44-10.09,50.81,50.81,0,0,0,4.63-5.62c1.24-1.69,2.48-3.37,3.68-5.1a51.51,51.51,0,0,1,7-8.5,2.27,2.27,0,0,0,.35-.63A6.75,6.75,0,0,0,440.32,45c.9-.09,1.44-.79,2.09-1.28a50.28,50.28,0,0,1,9.21-5.52,29,29,0,0,1,5.65-2,4.39,4.39,0,0,0,.63-.26Z"/><path class="cls-18" d="M418.12,29.31a69.93,69.93,0,0,1-3,9.81,53.45,53.45,0,0,1-6.76,11.41,26.47,26.47,0,0,1-9,7,171.76,171.76,0,0,1-19.81,8.56,123.56,123.56,0,0,1-13.14,4.14,79.56,79.56,0,0,1-9.56,1.88c-3.14.4-6.26,1-9.4,1.39-2.32.29-4.65.41-7,.6-.32,0-.66,0-1,.37a2.9,2.9,0,0,0,2.32,1.1A6.74,6.74,0,0,1,344,76c.67.28,1.49,0,2.34.5a18.06,18.06,0,0,1-3.61.17,12,12,0,0,0-3.48.32,6.33,6.33,0,0,1-2,.13c-2.93,0-5.87,0-8.81,0A92.68,92.68,0,0,0,316.2,78c-3.06.38-6.11.91-9.18,1.19-2.16.19-4.29.62-6.42,1-2.38.44-4.77.86-7.11,1.46a98.47,98.47,0,0,0-16.36,5.54c-1.07.48-2.16.92-3.24,1.36a.75.75,0,0,1-.91-.13c0-.57.5-.84.84-1.18,1.59-1.62,3.2-3.21,4.8-4.82a7.64,7.64,0,0,0,1.05-1.08c.44-.64,1.5-1.28,1-2s-1.38.13-2.1.24A102.78,102.78,0,0,0,264,83.26c-1.92.58-3.82,1.2-5.74,1.8a56.52,56.52,0,0,0-17,9.06,64.74,64.74,0,0,0-7.25,6.19c-.94,1-2.07,1.7-3,2.65a100.6,100.6,0,0,0-13.75,16.9c-1.34,2.12-2.78,4.17-4.13,6.28a2.56,2.56,0,0,1-2.47,1.39L202,126.28l-6.2-.88c-.94-.13-1.19-.37-1.06-1.3.25-1.73.56-3.46.85-5.18A66.17,66.17,0,0,1,206,100.1a54.35,54.35,0,0,1,9.17-8.57A125.36,125.36,0,0,1,242.92,74.9,75.27,75.27,0,0,1,260,70.06a169.43,169.43,0,0,1,20.24-1.92c8-.34,15.9-.74,23.85-1.14,5.61-.29,11.21-.6,16.81-1,5.77-.38,11.53-.85,17.29-1.28l7.77-.56c5.26-.39,10.53-.71,15.79-1.19,5.08-.46,10.17-.93,15.2-1.86a43.41,43.41,0,0,0,10.51-3.31,76.2,76.2,0,0,0,18-11.79,25.53,25.53,0,0,0,6.56-8.49c.95-2.06,1.85-4.12,2.78-6.18.28-.61.53-1.24.85-1.82a1.34,1.34,0,0,1,2.42-.24Z"/><path class="cls-15" d="M312.41,121.05a1.45,1.45,0,0,1-.7,1.25c-4.58,2.94-9,6.08-13.72,8.86-7.28,4.3-14.49,8.71-21.75,13.05s-14.44,9.12-21.64,13.72c-6.77,4.33-13.52,8.7-20.29,13a8.87,8.87,0,0,1-1.08.52,1,1,0,0,1-.16-1l5.7-22.58c.51-2,1-4,1.51-6.08a12.7,12.7,0,0,0,.2-1.74,119,119,0,0,1,10.65-5.49,208.81,208.81,0,0,1,21.27-9.27,1.57,1.57,0,0,0,.4-.29,21.34,21.34,0,0,0,4.3-1.3,105.25,105.25,0,0,1,17.72-4.56,51.8,51.8,0,0,1,11.26-.7C308.46,118.62,310.73,119.14,312.41,121.05Z"/><path class="cls-2" d="M418.64,68.61a6.25,6.25,0,0,1,.59-3.16,64.8,64.8,0,0,0,2.53-8.61c.27-1.47.66-2.92.83-4.4.1-.92.32-1.8.48-2.69.58-3.24.49-4.25-.26-8.1-.29-1.46-.26-3-.68-4.43a19,19,0,0,0-1.53-4.47,3.14,3.14,0,0,1-.48-1.91,2.35,2.35,0,0,1,1.5.82,32.15,32.15,0,0,1,6.34,8,25,25,0,0,1,1.59,3.67c.84,2.35,1.57,4.74,2.39,7.09a2.52,2.52,0,0,1-.4,2.56c-2.88,4-5.59,8.07-8.78,11.81-.92,1.08-1.8,2.18-2.82,3.17A2.11,2.11,0,0,1,418.64,68.61Z"/><path class="cls-2" d="M418.19,69.16a.57.57,0,0,1,.44-.55Z"/><path class="cls-2" d="M519.77,219.57a7.85,7.85,0,0,0,.3,3.23,1.66,1.66,0,0,1,.11.49c.2,2.33.47,4.66.56,7s.59,4.64.56,7a36.6,36.6,0,0,0,.25,7,8.64,8.64,0,0,1-.21,2c0,1.43-.05,2.86-.05,4.28a97.89,97.89,0,0,1-.88,10c-.28,2.75-.72,5.47-1.19,8.17a53.75,53.75,0,0,1-10.43,24.43,6.85,6.85,0,0,1-1.67,1.5q-5.72,3.67-11.62,7c-2.54,1.45-5.11,2.86-7.67,4.29a46.48,46.48,0,0,1-13.2,4.67c-1.55.33-3.1.66-4.66,1a2.67,2.67,0,0,1-3.18-1.24c-3-4.55-6.3-8.86-9.69-13.11-1.2-1.51-2.49-2.95-3.78-4.37-1.57-1.74-3.15-3.49-4.77-5.17-2.67-2.77-5.58-5.31-8.4-7.93a3.74,3.74,0,0,0-.9-.43,4.54,4.54,0,0,1-2.85-2.4,5.32,5.32,0,0,0-1.7-1.5l-.45-.42-6.59-4.61-.46-.42a1.05,1.05,0,0,1-.21-.12c-.68-.68-.7-1.05-.06-1.3,1-.39,2-.75,3.05-1.13,3.06-1.14,6.15-2.2,9.16-3.45a70.09,70.09,0,0,0,19-11.1,93.38,93.38,0,0,0,7.13-6.33,46.76,46.76,0,0,0,9.7-14,39.26,39.26,0,0,0,3.4-12,44.12,44.12,0,0,0-.23-11.53c-.28-1.55-.38-3.15-.56-4.72a31.6,31.6,0,0,0-.67-3.95c-1.08-4.21-1.59-8.53-2.86-12.7a74.09,74.09,0,0,0-3.31-9.2c-1.53-3.35-3.1-6.69-4.76-10a163.43,163.43,0,0,1-7.12-17.15c-2.77-7.45-5.57-14.88-8.26-22.36a155.08,155.08,0,0,1-6.16-21.43,45.19,45.19,0,0,1-.74-7.73,51.73,51.73,0,0,1,1.82-14.12c1.13-4.57,3-8.89,4.49-13.31,1.46-4.18,3.14-8.29,4.59-12.48A3.14,3.14,0,0,1,457,57.59c2.76-.65,5.5-1.48,8.3-1.91a42.45,42.45,0,0,1,9.49-.62,5.37,5.37,0,0,1,1,.15c1.67.5,2.13,1.44,1.36,3.06-1,2.11-2.08,4.21-3.19,6.27s-2.33,3.88-3.35,5.9a48.24,48.24,0,0,0-4.8,13.93,43.08,43.08,0,0,0-.29,10.51,59.45,59.45,0,0,0,2.05,11.58c1,3.37,2,6.73,3,10.08a59.22,59.22,0,0,0,6.2,13.42q4.94,8,9.37,16.35c3.44,6.42,6.77,12.9,10.23,19.32,3.86,7.16,7.5,14.43,11,21.74a204.76,204.76,0,0,1,9.18,21.46,55.55,55.55,0,0,1,2.7,9.9A1.28,1.28,0,0,0,519.77,219.57Z"/><path class="cls-32" d="M436.4,276.9a6.66,6.66,0,0,1,2.85,2.4c0,.22,0,.43,0,.65-.53.65.09,1.09.34,1.55a22.69,22.69,0,0,1,2.44,7.09,21.38,21.38,0,0,1-.47,9.21,6.63,6.63,0,0,1-4.2,4.37,27.26,27.26,0,0,1-6.6,1.4,88.16,88.16,0,0,1-16.56.56,64.11,64.11,0,0,1-17.25-2.94,40.77,40.77,0,0,1-15-8.88,133.63,133.63,0,0,1-19.81-23,68.54,68.54,0,0,1-7.69-14.66,12.47,12.47,0,0,1-.76-2.91c-.37-3.12,1-5.56,3.08-7.63a19.69,19.69,0,0,1,6-4.09c4.62-2,9.31-3.76,14.07-5.39,1.9,1.49,3.89,2.87,5.68,4.49,2.24,2,4.8,3.6,7.19,5.42s5,3.4,7.42,5.11c2.88,2,5.73,4,8.58,6.07a2.48,2.48,0,0,0,1.35.6,3.45,3.45,0,0,0,1.18,1.28c3.14,2.2,6.33,4.35,9.44,6.59,5.35,3.85,10.89,7.45,16.15,11.43C434.52,276.2,435.25,277.05,436.4,276.9Z"/><path class="cls-32" d="M427.2,270l.46.42Z"/><path class="cls-32" d="M434.25,275l.45.42Z"/><path class="cls-22" d="M109.09,424.43a49.84,49.84,0,0,1-9.06-1.75c-2-.51-4-1.14-6-1.64-.7-.17-1.39-.67-2.16-.25A4.22,4.22,0,0,1,91,419c1.1-.65,2.12,0,3.14.23,4.12,1.1,8.23,2.22,12.3,2.94.7-.61.34-1.09.13-1.49-4.34-8.4-6.55-17.57-9.59-26.44-1.23-3.61-1.19-3.58-3.94-.87-2,2-3.78,4.27-5.63,6.43a14.18,14.18,0,0,1-3.54,3.5c-.28-.64-.55-1.3-.82-1.94,3.15-4.18,6.72-8,10.2-11.9.64-.72,1.25-1.58,2.35-1.71l.44,0c2.1-.25,3.13-2.11,4.65-3.2a71.36,71.36,0,0,1,14.81-7.82c4.14-1.69,8-1.09,11,2.29,4.75,5.36,7.56,11.5,5.72,18.8-.92,3.65-3.24,6.78-5.13,10-2.53,4.31-5.44,8.42-7.77,12.83-1.73,3.3-4.33,4.16-7.68,3.76A4.29,4.29,0,0,0,109.09,424.43Z"/><path class="cls-15" d="M75.44,155.66c.51.55,0,1-.26,1.3-3.05,4.29-6.07,8.6-9.24,12.8-1.92,2.56-3.44,5.34-5.1,8.05-2.8,4.56-5.45,9.21-8.24,13.77-2.45,4-4.3,8.32-6.36,12.52-.66,1.35-1.3,2.72-1.92,4.09a3.68,3.68,0,0,0-.64,1.87c.38,1.16-.44,1.87-1,2.67-4.27,6-8.29,12.21-10.94,19.15a80.82,80.82,0,0,0-4.49,17.47c-.16,1.06-.08,2.21-1.17,2.9a1.53,1.53,0,0,0-.5,1.09c-1,5.31-1.92,10.64-3,15.92C22,272,21,274.71,20.27,277.44A40.23,40.23,0,0,0,18.55,290a52.52,52.52,0,0,0,2.18,13.51c.41,1.26.76,2.55,1.13,3.83a.78.78,0,0,1-.34.86,20.94,20.94,0,0,1-8.15-12.63,54.54,54.54,0,0,1,0-14.27,372.45,372.45,0,0,1,7.2-38.2,155.82,155.82,0,0,1,7.51-22.33A197.45,197.45,0,0,1,41.37,193.5,121.87,121.87,0,0,1,56,173.42,166.28,166.28,0,0,1,75.44,155.66Z"/><path class="cls-15" d="M95.56,387.7a6.52,6.52,0,0,1-.58.8C91.35,392.16,88,396.11,84.71,400c-.46.54-.75,1.37-1.7,1.26a154.7,154.7,0,0,1-4.71-15.07,109.2,109.2,0,0,1-2.45-14.83,112.83,112.83,0,0,1-.4-12c0-4.77,0-9.54.1-14.31,0-1.11.24-1.29,1.1-.82,5.28,2.91,10.72,5.47,16.19,8,.07,0,.12.12.18.17,0,2.34,0,4.68,0,7a80.13,80.13,0,0,0,.9,12.94c.33,2.38.3,4.82.65,7.2C95,382.25,94.77,385,95.56,387.7Z"/><path class="cls-33" d="M83.83,403.25A9.42,9.42,0,0,1,84.6,402c3.27-3.82,6.45-7.72,9.94-11.34a6.57,6.57,0,0,1,.92-.83.44.44,0,0,1,.65.14,16.75,16.75,0,0,1,.74,1.86q3.08,9.42,6.11,18.86a36.6,36.6,0,0,0,1.85,4.65c1,2,1.9,4.1,2.85,6.16a1.54,1.54,0,0,1,.26,1.21c-.59.45-1.26.2-1.89.06C101,421.67,95.93,420.44,91,419A91,91,0,0,1,83.83,403.25Z"/><path class="cls-34" d="M143.49,368.42l5.84.66a2.1,2.1,0,0,0,.67.3c5,.41,10,1.17,15,1.24,3.59.05,7.19.53,10.79.3,4.52-.29,9-.25,13.56-.5q6.13-.33,12.25-1c4.49-.5,8.95-1.23,13.42-1.77s9.11-1.3,13.63-2.12a219.24,219.24,0,0,0,24.39-5.76,253.62,253.62,0,0,0,24.52-8.92,139.07,139.07,0,0,0,19.42-10,63.15,63.15,0,0,0,9.72-7.53,75.19,75.19,0,0,0,12.78-15.12,2.89,2.89,0,0,1,1.11-1.31.21.21,0,0,1,.2,0c.06,0,.15.14.14.19a4.32,4.32,0,0,1-.37.92,71.25,71.25,0,0,1-13.18,15.74c-2,1.75-4,3.6-6.15,5.18a96.06,96.06,0,0,1-10.71,6.54,188.31,188.31,0,0,1-26.24,11.4,198.38,198.38,0,0,1-20.88,6.34c-6.42,1.53-12.88,2.9-19.41,3.91-4.63.71-9.26,1.39-13.89,2s-9.12,1.17-13.71,1.56c-2.76.23-5.53.24-8.27.49-7.45.67-14.91.42-22.36.33-3.51,0-7-.43-10.51-.8q-4.37-.45-8.7-1.14l-3.71-.62Z"/><path class="cls-23" d="M105,445.54a24.1,24.1,0,0,1,2.95,4.64c-3.76,1.72-7.63,2.85-10.74,6.13.07-2.32.17-4.15,1.21-5.81,1.42-1.11,2.49-2.57,3.85-3.74C103.09,446.09,103.77,445.15,105,445.54Z"/><path class="cls-35" d="M105,445.54a6.91,6.91,0,0,0-2.42,1.72c-1.11,1.13-2.24,2.24-3.36,3.35-.3.29-.57.24-.8-.11a18.71,18.71,0,0,1,5.32-7.28A5.6,5.6,0,0,1,105,445.54Z"/><path class="cls-15" d="M80.5,114.4a.79.79,0,0,1,.35.87c-.15.56-.33,1.12-.53,1.67-2.62,6.88-4.72,13.94-7.11,20.9a39.68,39.68,0,0,0-1.31,6.63c-.69,4.19-1.29,8.4-1.91,12.61-.1.66-.12,1.33-.18,2-3.61,3.24-7.31,6.4-10.72,9.87-.46.47-.94.92-1.36,1.34-.61-.19-.41-.59-.37-.85a168.45,168.45,0,0,1,5.23-24.76,66,66,0,0,1,7-15.22A103.72,103.72,0,0,1,80.5,114.4Z"/><path class="cls-11" d="M469.92,316.26l-.44-.57Z"/><path class="cls-15" d="M244.07,137.14c-2-.76-4.1-.74-6.16-1.06-3.12-.5-6.29-.73-9.43-1.19-1-.15-2-.3-3-.42-2.07-.23-4.13-.58-6.19-.84a16.9,16.9,0,0,0-2-.09c-3.1,0-6.22.16-9.3-.13a148.39,148.39,0,0,0-20.33-.25c-8.28.35-16.57.15-24.85.39-3.63.73-7.35.18-11,.87-1.46.27-3,.34-4.47.5a65.74,65.74,0,0,0-8.83,1.78,224.35,224.35,0,0,0-24.11,7.68A44.51,44.51,0,0,1,110,145.8c2.38-2,4.93-3.68,7.45-5.44s5.1-3.42,7.49-5.31c-.31-.7-.8-.53-1.13-.47q-6.41,1.09-12.81,2.27c-.5.09-1,.23-1.36-.27,6.24-2.82,12.39-5.84,18.84-8.2A63.76,63.76,0,0,1,144.84,125l7-.62a135.61,135.61,0,0,1,21.8-.05c2.08.15,4.18.15,6.26.22a5.08,5.08,0,0,0,2.21.37c5.68.26,11.32,1,16.95,1.7,4.47.58,8.93,1.29,13.37,2.08,8,1.41,15.93,2.91,23.89,4.41,3.37.64,6.71,1.38,10.06,2.06.21,0,.34.12.31.32a.63.63,0,0,1-.18.42A7.51,7.51,0,0,1,244.07,137.14Z"/><path class="cls-16" d="M103.54,138a4.82,4.82,0,0,0-.4-1.94,38.83,38.83,0,0,0-6.93-13.17c-2.19-2.82-4.32-5.68-6.54-8.48-.83-1-1.82-2-2.74-2.91a19.78,19.78,0,0,1,7.69.75A176.62,176.62,0,0,1,117.91,120c4.23,1.79,8.32,3.91,12.47,5.89a2.74,2.74,0,0,1,.54.41c-.19.53-.64.56-1,.68-4.06,1.33-7.93,3.13-11.83,4.84q-6.66,2.92-13.33,5.82A11.7,11.7,0,0,1,103.54,138Z"/><path class="cls-19" d="M457.9,36a.55.55,0,0,1-.63.26A.51.51,0,0,1,457.9,36Z"/><path class="cls-36" d="M333,203c.63,3.62,1.27,7.24,1.89,10.86.58,3.37,1.13,6.74,1.7,10.12.6,3.62,1.25,7.23,1.81,10.86.61,3.87,1.41,7.72,1.8,11.63s.94,8,1.29,11.95c.19,2.16.12,4.35.15,6.52a2.86,2.86,0,0,1-.22.73c-.13-.16-.31-.28-.32-.42-.16-1.66-.36-3.32-.42-5a170.47,170.47,0,0,0-2.49-21.14c-.76-4.61-1.43-9.23-2.18-13.85-.56-3.45-1.23-6.89-1.76-10.36-.59-4-1.51-7.86-1.83-11.86Z"/><path class="cls-37" d="M415.07,399.3c-.52-.26-1.06-.51-1.57-.78a11.12,11.12,0,0,1-4.82-5A29.5,29.5,0,0,1,406,385a33.21,33.21,0,0,1,.31-12.21c.28-1.39.42-2.81.71-4.2a20.77,20.77,0,0,1,4.83-9.52,94.87,94.87,0,0,1,19.06-16.24c3.71-2.49,7.78-2.93,12-2.37a12.22,12.22,0,0,1,6.23,3.06,23.68,23.68,0,0,1,6.78,8.91,15,15,0,0,1,.2,7.2,100.93,100.93,0,0,1-6.11,19.57,48.56,48.56,0,0,1-6.72,11.42,16.36,16.36,0,0,1-5.56,4.6,49.4,49.4,0,0,1-14.67,4.92,13.69,13.69,0,0,1-5.73-.15,16.41,16.41,0,0,0-1.73-.28h0C415.45,399.56,415.26,399.43,415.07,399.3Z"/><path class="cls-32" d="M370.32,295.62a4.09,4.09,0,0,1-1.15,2.81,15.38,15.38,0,0,1-3.08,2.95c-3,2.05-5.95,4.06-9.09,5.83a36.66,36.66,0,0,1-9.18,3.31,3.22,3.22,0,0,1-4-4.08c.45-1.79.81-3.6,1.35-5.35a141.49,141.49,0,0,1,7.11-19.56,7,7,0,0,1,1-1.44,1.13,1.13,0,0,1,1.57-.24l.22.13c4.56,3.52,9.6,6.46,13.36,11A6.93,6.93,0,0,1,370.32,295.62Z"/><path class="cls-38" d="M156.38,357.55a120.15,120.15,0,0,1-25-4.08,154.9,154.9,0,0,1-14.64-5.3,360.76,360.76,0,0,1-44.36-21.32l-.66-.36c-1.3-.71-1.3-.71-2.48.32a5.27,5.27,0,0,1-.58.48,1.36,1.36,0,0,1-1.82-.24,9.79,9.79,0,0,1-1.76-2.74,8.68,8.68,0,0,0-2.29-2.95c-3.51-3.12-7-6.23-10.48-9.41a11.47,11.47,0,0,0-3.59-2.24c-5.22-2-10.3-4.46-15.4-6.78-.69-.31-1.35-.68-2-1-4.14-1.84-5.75-5.37-6.41-9.55a.48.48,0,0,1,.2-.41c.28-.12.45.09.52.34A27.51,27.51,0,0,0,27,296.61a7.89,7.89,0,0,0,3.67,4c1.35.68,2.68,1.4,4,2.05,9.91,4.72,20.13,8.72,30.4,12.59,5.4,2,10.78,4.17,16.31,5.85a194.38,194.38,0,0,0,28.89,6.53c1.74.25,3.49.44,5.25.55a160.11,160.11,0,0,0,21.35.26c3.84-.28,7.7-.26,11.55-.53,4.93-.34,9.88-.44,14.82-.73,6.61-.39,13.21-.86,19.81-1.3,2.93-.19,5.86-.35,8.78-.6q7.63-.64,15.26-1.39c3.59-.35,7.17-.78,10.75-1.16a6.6,6.6,0,0,0,2.44-.49c2.29.17,4.5-.45,6.73-.72,4.15-.49,8.29-1.16,12.41-1.82,10.83-1.74,21.67-3.42,32.07-7.06,4.67-1.63,9.22-3.53,13.77-5.46s6.86-5.4,7.95-10c.22-.89.41-1.79.64-2.68a.46.46,0,0,1,.34-.26.36.36,0,0,1,.41.46,26.78,26.78,0,0,1-2.6,8.09,9.14,9.14,0,0,1-3.28,3.4,54.89,54.89,0,0,1-8.14,3.92A134.27,134.27,0,0,1,263,316.06a6.37,6.37,0,0,0-2.65,1.32q-3.53,3-7.06,6.05a5.09,5.09,0,0,0-1.39,2.06,11.61,11.61,0,0,1-1.64,3.09,1.28,1.28,0,0,1-2,.28c-.75-.49-1.16-1.69-2.19-1.45a7.34,7.34,0,0,0-2.11,1.32,196.87,196.87,0,0,1-42,21.86,110.93,110.93,0,0,1-20.79,5.7c-3.46.57-7,.92-10.47,1.15a105.92,105.92,0,0,1-11.82.06C158.06,357.45,157.22,357.53,156.38,357.55Z"/><path class="cls-39" d="M244.91,294.49c-2.81.28-5.62.53-8.42.85a30.69,30.69,0,0,1-5,.28c-.59.21-1.15.35-1.21-.57,3.2-1.49,6.73-1,10.06-1.67.88-.18,1.84.07,2.59-.5-6.75-8.93-8-19.5-8.74-30.07a76,76,0,0,1,7.61-39.44,131.83,131.83,0,0,1,9.56-16.06c-2.68-.24-4.53,1.5-6.76,1.54-.37-.12-.67-.29-.61-.75,4.39-2.67,9.1-3,14-1.87a10.06,10.06,0,0,1,2.1.79c7.63,3.85,13.9,9.17,18.12,16.73.16.28.38.54.57.82q1.71,3.48,3.43,7a78.07,78.07,0,0,1,7.05,21.89c.75,4.44,1.63,8.87,2.29,13.33a39.54,39.54,0,0,1,.7,8,27.54,27.54,0,0,1-.84,5.19,5.22,5.22,0,0,1-2.48,3.32c-5.27,3.17-10.77,5.74-16.9,6.78-6.75,1.15-13.5,2.32-20.26,3.43-1.81.3-3.64.43-5.47.63A2.46,2.46,0,0,0,244.91,294.49Z"/><path class="cls-15" d="M300.89,393.67c-.86-3.24-3.15-4.92-6.25-5.69a35.16,35.16,0,0,0-7.86-.9,1.54,1.54,0,0,1-.46-1.37c.37-1.28.69-2.59,1.14-3.84,2-5.51,4.07-11,5.91-16.53a19.15,19.15,0,0,1,6.88-9.33c3.07-2.34,6.31-4.43,9.56-6.48,2.91-1.83,5.64-3.9,8.5-5.79,2.31-1.53,4.54-3.15,6.86-4.64a10.55,10.55,0,0,1,6.17-1.8,10.09,10.09,0,0,1,6.42,2.48c1.07.92,2,2,3,3a9,9,0,0,1,1.78,2.72,76.62,76.62,0,0,1,3.83,11.92,1.17,1.17,0,0,1-.6,1.47c-1.31.74-2.63,1.46-3.95,2.18l-11.48,6.22c-.44.24-1,.21-1.33.65-2,1.43-4.21.93-6.27.55a40.27,40.27,0,0,0-13-.33c-1.77.26-2.26,1.07-2.23,2.64,0,2.23,1,4.21,1.55,6.29.5,1.82,1.85,3.42,1.39,5.47a3.63,3.63,0,0,1-1,1.68c-2.38,2.69-4.73,5.41-7.12,8.1A17.09,17.09,0,0,1,300.89,393.67Z"/><path class="cls-22" d="M310.52,382.56a88.4,88.4,0,0,1-3.09-8.47,13.57,13.57,0,0,1-.64-4.19,2.13,2.13,0,0,1,2.07-2.38c4.66-.45,9.32-.79,13.95.33a16.12,16.12,0,0,0,6.23.09.43.43,0,0,0-.07.25,3.5,3.5,0,0,1,1.62,3.53c-.25,8.44-2.37,16.51-4.61,24.56a7.35,7.35,0,0,1-.59,1.38c-1.53,3.12-3.25,3.28-5.37.47a65.46,65.46,0,0,1-6.52-11c-.76-1.56-1.18-3.33-2.63-4.49A2,2,0,0,0,310.52,382.56Z"/><path class="cls-40" d="M310.87,382.65c.22-.29.56-.52.82-.24a5.62,5.62,0,0,1,.76,1.28c1.05,2.09,2.08,4.18,3.13,6.27a58.17,58.17,0,0,0,5.18,8.24c.1.13.22.25.33.37,1.39,1.57,2.38,1.45,3.44-.43a26,26,0,0,0,2.44-7.32c.8-3.65,1.47-7.32,2.23-11a38.71,38.71,0,0,0,.84-9.42c-.05-1.15-.06-1.16-1.34-1-.17,0-.33.05-.5.06s-.32-.11-.29-.31A.32.32,0,0,1,328,369l1-.76a4.12,4.12,0,0,1,1-.13,1.32,1.32,0,0,1,1.38,1.18,5.67,5.67,0,0,1,.06,1.24c-.33,8-2.15,15.85-4.05,23.64a19,19,0,0,1-1.72,4.43,5,5,0,0,1-1.2,1.58,2.63,2.63,0,0,1-3.44,0,11.4,11.4,0,0,1-1.5-1.68A77,77,0,0,1,311,383.14,2,2,0,0,1,310.87,382.65Z"/><path class="cls-41" d="M384.86,404.05c.36-2.65.62-5.32,1.11-7.95a4.12,4.12,0,0,1,5.19-3.09,15.29,15.29,0,0,1,6,3.51,2.55,2.55,0,0,1,.33,3.62.9.9,0,0,1-.14.2,26.66,26.66,0,0,1-9.67,6.59c-1.63.6-2.42-.1-2.74-1.86a5.56,5.56,0,0,1,0-1Z"/><path class="cls-16" d="M415.07,399.3a.53.53,0,0,1,.58.38A.61.61,0,0,1,415.07,399.3Z"/><path class="cls-42" d="M109.09,424.43c.07-.69.44-1.11,1.15-1a12.92,12.92,0,0,0,3,.44,9.74,9.74,0,0,0,2.45-.41,3.07,3.07,0,0,0,1.8-1.27c.79-1.19,1.62-2.35,2.29-3.6,1.79-3.32,3.91-6.43,5.87-9.64a82.09,82.09,0,0,0,5.52-10.13,12,12,0,0,0,.79-7.57,33.91,33.91,0,0,0-2.64-7.54,18.35,18.35,0,0,0-5.82-6.43,6.58,6.58,0,0,0-4.55-.87c-2.47.17-4.68,1.26-6.87,2.24a51.77,51.77,0,0,0-8.41,4.49,30.84,30.84,0,0,0-5.77,4.39,3.69,3.69,0,0,1-1,.82c-.73.39-.82-.18-.92-.69a43,43,0,0,1,9-6.74,59.45,59.45,0,0,1,9.29-4.43c1.18-.43,2.39-.77,3.6-1.11a7.49,7.49,0,0,1,6.45,1.17,16,16,0,0,1,4.49,4.34A23.92,23.92,0,0,1,133.28,393a14.07,14.07,0,0,1-1.84,8c-1.64,2.92-3.25,5.86-5,8.75-2.26,3.82-4.69,7.54-6.87,11.4-1.53,2.72-3.64,4-6.76,3.77-1.08-.09-2.17,0-3.26,0Z"/><path class="cls-33" d="M285.39,388.26a.7.7,0,0,0,.34-.12,68.51,68.51,0,0,1,8.46,1,7.84,7.84,0,0,1,4.1,2.28,3.77,3.77,0,0,1,.15,5.37c-.9,1.1-1.75,2.24-2.56,3.41q-10.31,15-20.6,30c-.56.82-1.17,1.6-1.77,2.41-.49-.42-.28-.83-.19-1.18q4-16.05,8-32.11a77.88,77.88,0,0,1,2.69-7.55C284.46,390.59,284.94,389.43,285.39,388.26Z"/><path class="cls-15" d="M207.9,203a5.58,5.58,0,0,1,.16,3.67,23,23,0,0,0-.31,2.73c-.18,2.92-.44,5.82-.9,8.71-.22,1.39-.32,2.82-.47,4.22a48.76,48.76,0,0,1-1.72,8.06,65.53,65.53,0,0,1-5.51,14c-.2.37-.38.75-.61,1.1-1.41,2.18-2.09,2.17-3.43,0-.34-.57-.64-1.17-1-1.75-.78-1.4-1.57-2.78-1-4.47,0-.14-.06-.33-.1-.49-.71-2.23-.14-4.42.32-6.59,1.78-8.43,5.81-15.89,10.2-23.18C204.84,206.83,205.76,204.45,207.9,203Z"/><path class="cls-43" d="M152.77,143.53a95.41,95.41,0,0,1,14,.66c5.9.6,11.77,1.52,17.61,2.6,3,.56,6.07,1.24,9.1,1.83a16.69,16.69,0,0,1,7.22,3.35,4,4,0,0,1,.92,5.56,8.23,8.23,0,0,1-.76,1,72.8,72.8,0,0,1-10,9.86c-8,6.22-16.48,11.8-25,17.25a180.91,180.91,0,0,1-17.39,10.06,40.32,40.32,0,0,1-8.59,3.49,16.3,16.3,0,0,0-1.71.39c-2.74,1-5.72-.47-7.37-2.94a14.45,14.45,0,0,1-1.43-2.93,47.52,47.52,0,0,1-2.6-11.22,69.1,69.1,0,0,1-.5-12,58.69,58.69,0,0,1,2.47-14.81,21.42,21.42,0,0,1,2.84-5.85,12.47,12.47,0,0,1,5.37-4.39,22.15,22.15,0,0,1,8.27-1.87C147.74,143.47,150.25,143.53,152.77,143.53Z"/><path class="cls-44" d="M26.07,252.25c.14-.83.3-1.65.43-2.47a79.22,79.22,0,0,1,5.59-20.45,93.47,93.47,0,0,1,9.33-16c.77-1.09,1.5-2.2,2.26-3.3a4.35,4.35,0,0,0,1.38-1.42,39.51,39.51,0,0,1,5.65-5.32c2.83-2.38,7.24-1.65,9.41.48a10,10,0,0,1,3.2,5.53c.26,1.57.59,3.13.75,4.7.59,5.82,1.29,11.64,1.34,17.5,0,1.1.77,2.33-.52,3.23-1.12-1.06-.67-2.48-.84-3.75,0-1.11-.46-2.16-.41-3.27,0-4.75-.8-9.44-1.14-14.17-.15-2.14-.84-2.37-2.76-1.2a18.19,18.19,0,0,0-6,6.27c-6,10.46-8,21.89-8.4,33.77a122.21,122.21,0,0,0,2.07,26.73c.41,2.14,1.3,3.5,3.45,4.08,2.67.72,5.33,1.49,8,2,2.36.46,3,0,3.49-2.37a58.91,58.91,0,0,0,.81-9c.59-1.64-.12-3.57,1.13-5.06,1.35.88.51,2.12.54,3.22a61.47,61.47,0,0,1-1.08,11.73c-.58,3.1-1.66,3.76-4.74,3.14-7-1.4-13.66-3.91-20.34-6.32a54.8,54.8,0,0,1-6.61-3,11.6,11.6,0,0,1-6.55-10A55.43,55.43,0,0,1,25.8,257,25.9,25.9,0,0,0,26.07,252.25Z"/><path class="cls-15" d="M217.42,300.14h3.42a4.22,4.22,0,0,1,1.71.32c1.86.79,2.19,1.74.87,3.2-2.66,2.91-5.47,5.67-9.16,7.31-.68.3-1.41.52-2.1.81a4.12,4.12,0,0,1-4.6-1.07,7.7,7.7,0,0,1-2.46-7c.36-2.81.6-3.12,3.45-3.08C211.66,300.66,214.71,299.91,217.42,300.14Z"/><path class="cls-45" d="M140.77,256.78a11,11,0,0,1-3.73-.66,32.85,32.85,0,0,1-10.6-5.61,10,10,0,0,1-3.11-4.5,3.81,3.81,0,0,1,.61-3.58,13.08,13.08,0,0,1,1.47-1.7,110.92,110.92,0,0,1,12.35-10.67c4.57-3.53,9.18-7,14-10.21a42.05,42.05,0,0,1,3.71-2.09,7.41,7.41,0,0,1,1.67-.54c1.14-.25,1.76.26,1.81,1.41a16.68,16.68,0,0,1-.63,4.46,127.06,127.06,0,0,1-4.83,17.66,59,59,0,0,1-5.58,10.94,17.12,17.12,0,0,1-2.86,3.49A5.42,5.42,0,0,1,140.77,256.78Z"/><path class="cls-46" d="M244,208.1l.54.44c0,1-.81,1.2-1.42,1.58-10.64,6.66-18.41,15.93-24.51,26.77a109.15,109.15,0,0,0-8.32,18,6.59,6.59,0,0,1-.24.71,13.66,13.66,0,0,0-.41,1.52,130.4,130.4,0,0,0-4.13,24.17,33.92,33.92,0,0,0,.75,8.47c.44,2.56,2,3.59,5.06,4,5.15.73,10.33.51,15.51.57,1.21,0,2.54-.29,3.55.76.27.4.71.41,1.12.51a5.18,5.18,0,0,1-2.46.34,136.82,136.82,0,0,1-17.06-.47c-.92-.09-1.82-.24-2.73-.4a5.17,5.17,0,0,1-4-3.11,12.51,12.51,0,0,1-1.06-4.62,73.07,73.07,0,0,1,.77-15.77c.54-3.38,1.15-6.75,1.9-10.1a77.67,77.67,0,0,1,6-16.74,109.68,109.68,0,0,1,12.28-20.39,64.41,64.41,0,0,1,17.52-15.62C243.09,208.49,243.57,208.31,244,208.1Z"/><path class="cls-41" d="M105.51,197c.9.21,2.14.41,3.33.79a35.32,35.32,0,0,1,3.94,1.6c.88.4,1,1,.5,1.85a10.81,10.81,0,0,1-1,1.46c-2.45,3.18-4.9,6.36-7.4,9.51a24.14,24.14,0,0,1-4.28,3.85c-.41.32-.87.61-1.38.37a1.45,1.45,0,0,1-.7-1.5c0-.5,0-1,0-1.51a51,51,0,0,1,3.11-13.63,6.4,6.4,0,0,1,.86-1.53A3.44,3.44,0,0,1,105.51,197Z"/><path class="cls-47" d="M207.9,203c-6,8.66-11.12,17.73-13.84,28a33.53,33.53,0,0,0-1,7.7c-.44.27-.07,1-.86,1.24a11.06,11.06,0,0,1,0-2.44A47.79,47.79,0,0,1,196,222.25a133.38,133.38,0,0,1,7.28-13.73,39.46,39.46,0,0,1,3.91-5.82C207.55,202.3,207.77,202.66,207.9,203Z"/><path class="cls-48" d="M64.89,234.66a1.54,1.54,0,0,0,.4-1.14c0-.67.08-1.33.12-2a13.8,13.8,0,0,1,.34,5.2,170.45,170.45,0,0,0,0,17.51c0,1.85.11,3.7,0,5.53-.25,3.09-.26,6.2-.4,9.29a6.35,6.35,0,0,1-.4,3c0-.58-.09-1.15-.11-1.73a1.8,1.8,0,0,0-.4-1.39,3.18,3.18,0,0,1-.82-3c.9-9.23.22-18.48.45-27.72C64.05,237,63.82,235.63,64.89,234.66Z"/><path class="cls-49" d="M75.49,209.06c.11-.14.19-.35.29-.36a.49.49,0,0,1,.4.21c.18.46.32,1,.46,1.42q2.81,9.48,5.6,19a2.54,2.54,0,0,1,.12.73c0,.13-.15.25-.23.38-.13-.09-.33-.15-.39-.27A6.76,6.76,0,0,1,81.3,229l-4-13.44c-.56-1.92-1.1-3.85-1.65-5.77Z"/><path class="cls-44" d="M65.74,254.24a1.47,1.47,0,0,1-.38-1.14V237.87a1.44,1.44,0,0,1,.39-1.14C66,242.57,65.93,248.41,65.74,254.24Z"/><path class="cls-50" d="M120.42,312.89a1.46,1.46,0,0,1-.16-.19.46.46,0,0,1-.06-.22,1.06,1.06,0,0,1,.17-.45c1.48-1.69,3-3.37,4.47-5a.38.38,0,0,1,.63,0,.51.51,0,0,1,0,.45c-1.53,1.75-3.07,3.5-4.62,5.23A1.24,1.24,0,0,1,120.42,312.89Z"/><path class="cls-51" d="M79.67,304.76c.08,0,.18,0,.23.08a35.75,35.75,0,0,1,3.89,4.53.49.49,0,0,1-.05.45c-.2.27-.48.14-.63,0q-1.78-2.09-3.54-4.2a1,1,0,0,1-.15-.45.37.37,0,0,1,.08-.22A.87.87,0,0,1,79.67,304.76Z"/><path class="cls-22" d="M455.35,355.54a3.43,3.43,0,0,1-.88,2.61c-3.15,3.89-6.21,7.85-9.28,11.8-1.44,1.85-2.81,3.74-4.23,5.59a9.73,9.73,0,0,1-1,1.12c-2.49,2.48-4.86,5.11-7.52,7.4-3,2.57-5.62,5.51-8.58,8.09-2.16,1.87-4.22,3.81-6.23,5.83a1.57,1.57,0,0,1-2,.29,11.79,11.79,0,0,1-6.45-6.34,23.38,23.38,0,0,1-2.14-9.2,7.43,7.43,0,0,0-.26-2.73,1.14,1.14,0,0,1-.11-.73c.73-1.84.11-3.83.75-5.7a20.38,20.38,0,0,0,.53-3.69c.62-4.53,2.93-8.13,5.91-11.38,1.7-1.85,3.46-3.66,5.33-5.33a106.92,106.92,0,0,1,13-9.79c3.21-2.08,6.77-2.39,10.38-1.92a11,11,0,0,1,5.83,2.76,26.81,26.81,0,0,1,5.65,6.67A8.44,8.44,0,0,1,455.35,355.54Z"/><path class="cls-52" d="M214.75,344.3a146.34,146.34,0,0,1-25.15,9.32,102.94,102.94,0,0,1-18.57,3,117.36,117.36,0,0,1-40.49-4.24c-6.08-1.86-12-4.28-17.86-6.7-2.94-1.21-5.84-2.51-8.75-3.78a7.35,7.35,0,0,1-.85-.51c.16-1.31,1.29-1.18,2.11-1.32,11.63-2,23.29-3.93,34.95-5.84a20.82,20.82,0,0,1,3.26-.12c6.95,0,13.92.27,20.85-.06,11.5-.55,22.74,1.21,33.93,3.27,5.34,1,10.3,3.48,15.44,5.27C214.32,342.79,215.34,343.1,214.75,344.3Z"/><path class="cls-53" d="M214.75,344.3c-.09-.23-.11-.56-.27-.67a5.55,5.55,0,0,0-1.15-.47c-4.72-1.68-9.45-3.37-14.18-5a4.31,4.31,0,0,0-1.22-.27,47.37,47.37,0,0,1-5.67-.88c-2.8-.45-5.61-.79-8.42-1.17-1.16-.15-2.32-.36-3.45-.59a24,24,0,0,0-5-.36c-10.82,0-21.63,0-32.45,0a41.5,41.5,0,0,0-6.22.64c-3.87.56-7.73,1.25-11.58,1.92-3.54.61-7.05,1.3-10.58,1.88s-7.25,1.12-10.87,1.69c-.22,0-.41.26-.62.4a8,8,0,0,1-1-.29c-3.78-1.79-7.57-3.58-11.34-5.41-.57-.28-1.29-.4-1.61-1.22a43.63,43.63,0,0,1,6-4c1.68-.93,3.45-1.71,5.15-2.62a5.09,5.09,0,0,1,3.4-.5c2.64.44,5.27.94,7.93,1.28,2.48.31,5,.53,7.5.63a209.53,209.53,0,0,0,21.12-.11c4.51-.27,9.05-.07,13.54-.75a2.11,2.11,0,0,1,.25,0c4.1-.19,8.2-.34,12.3-.58,4.51-.26,9-.61,13.52-.91,2.43-.16,4.85-.2,7.27-.48,3.24-.36,6.52-.41,9.77-.67,2.75-.22,5.49-.55,8.24-.83,2.16-.22,4.33-.4,6.49-.65,3.33-.37,6.65-.76,10-1.19,3.07-.4,6.12-.85,9.19-1.29,2-.29,4-.6,5.95-.88.66-.1,1.34-.13,2-.2a1.88,1.88,0,0,1,1.58.6l5,5c-.21.83-.87,1.09-1.39,1.45a186.58,186.58,0,0,1-24.94,14.56C217.62,343,216.18,343.63,214.75,344.3Z"/><path class="cls-54" d="M73.34,319.24c8.42,3.22,17.18,5.33,25.94,7.42.13,0,.24.2.37.32A3.49,3.49,0,0,1,98,328a68.9,68.9,0,0,0-8.24,4.77l-.84.55a2.38,2.38,0,0,1-2.61.09c-3-1.65-6-3.29-9-4.93l-5.7-3.17c-.52-.28-.82-.73-.56-1.22C71.78,322.55,72,320.74,73.34,319.24Z"/><path class="cls-28" d="M241.27,320.47a107.39,107.39,0,0,1,11.94-2.09c.39.37.08.76-.05,1.1-.74,2.12-1.49,4.24-2.28,6.34a9.91,9.91,0,0,1-.92,1.77c-.43.7-.86.8-1.41.3a89.8,89.8,0,0,1-7.29-7.18S241.27,320.55,241.27,320.47Z"/><path class="cls-55" d="M72.16,318.91c-.8,1.92-1.53,3.69-2.29,5.44a5.82,5.82,0,0,1-1.4,2,.67.67,0,0,1-1.08-.05,9.47,9.47,0,0,1-1-1.43c-.55-1-1.08-2.06-1.54-3.13-.88-2.06-1.7-4.15-2.53-6.18.34-.41.63-.3.95-.18L71,318.31C71.29,318.42,71.57,318.61,72.16,318.91Z"/><path class="cls-56" d="M63.21,320.35a74.32,74.32,0,0,1-8.62-7.89c.22-.2.45-.12.68,0,1.64.61,3.27,1.23,4.91,1.82a1.6,1.6,0,0,1,1,1C61.81,316.77,62.41,318.3,63.21,320.35Z"/><path class="cls-57" d="M258.58,317.2a22.05,22.05,0,0,1-4.92,4.65,7.92,7.92,0,0,1,1.17-3.68,1,1,0,0,1,.63-.35C256.5,317.59,257.54,317.4,258.58,317.2Z"/><path class="cls-24" d="M230.4,295.11c-3.19,0-6.37-.09-9.55,0a93.11,93.11,0,0,1-10-.62,13.25,13.25,0,0,1-2-.41,3.89,3.89,0,0,1-2.62-2.17,10.4,10.4,0,0,1-1-3.6,54.69,54.69,0,0,1,.18-13,106.15,106.15,0,0,1,3.38-17.49c.14-.48.33-.95.5-1.42.28-.28.19-.74.47-1h0c2.73-4.33,6.18-8.08,9.42-12,6.19-7.52,13.72-13.62,21.23-19.73.6-.49,1.1-1.32,2.11-.88,0,0,.06.13.06.19a1.13,1.13,0,0,1-.08.24,77,77,0,0,0-5.84,17.28,83.91,83.91,0,0,0-1.7,25.43,85.83,85.83,0,0,0,2.15,11.58c.63,2.68,1.49,5.3,2.19,8a11.77,11.77,0,0,0,3.42,5.73c.71.68,1.4,1.39,2.32,2.31C240,294.31,235.17,294.6,230.4,295.11Z"/><path class="cls-58" d="M248.48,292.91c-.41.09-.83.15-1.23.27a1.63,1.63,0,0,1-1.62-.43c-2.54-2.23-4.76-4.58-5.75-8a143.83,143.83,0,0,1-3.82-16.62,60.4,60.4,0,0,1-.5-14.28,85.79,85.79,0,0,1,5.89-26.34,34.2,34.2,0,0,1,3.57-6.9c5.47-4.64,11.94-5.36,18.69-4.52,3.36.42,6.86.62,9.88,2.54a35.8,35.8,0,0,1,5.16,8,4.9,4.9,0,0,1,.36,2.7c-1.58,7.29-2.55,14.7-4.53,21.9-.22.8-.26,1.69-1.1,2.17-1.29-.6-.85-1.82-1-2.83-.55-4.9-.93-9.83-3.1-14.39a17.32,17.32,0,0,0-5-5.87,4.51,4.51,0,0,0-6,.28,9.61,9.61,0,0,0-2.38,3.21c-5,11-6.56,21.91.49,32.78a15.49,15.49,0,0,0,6.48,5.33,3.93,3.93,0,0,1,1.22.92c.54,1.23-.42,2-.88,3a49,49,0,0,1-13.15,16.15A4.86,4.86,0,0,1,248.48,292.91Z"/><path class="cls-59" d="M273.34,253.21c1.17-4.16,2.09-8.37,2.85-12.62.38-2.13.9-4.24,1.21-6.38.36-2.55,1.29-5,1.35-7.61a22.54,22.54,0,0,1,2.23,4.2,95.93,95.93,0,0,1,5,12.32,109.61,109.61,0,0,1,2.77,12c.44,2.38.85,4.76,1.25,7.15.7,4.21,1.51,8.4,1.32,12.7a25.59,25.59,0,0,1-.48,4,5.91,5.91,0,0,1-2.86,3.93,54.57,54.57,0,0,1-9.47,4.62,45.54,45.54,0,0,1-8.52,2q-6.78,1.22-13.58,2.32c-2.63.42-5.28.74-7.92,1.1a52.55,52.55,0,0,1,6.12-5.81,15.45,15.45,0,0,0,3.9-4.49c.93-1.56,1.95-3.08,2.87-4.65s1.87-3.3,2.8-5c.07-.16.12-.36.25-.42,6.91-2.91,7.52-9.12,8.07-15.36a13.49,13.49,0,0,1,.28-3.47A1,1,0,0,1,273.34,253.21Z"/><path class="cls-23" d="M242.49,223.12c-.15-.06-.37-.21-.43-.16-6.46,5.43-13.22,10.53-18.91,16.81-3.32,3.65-6.58,7.35-9.56,11.29-.86,1.13-1.78,2.22-2.69,3.31a2.3,2.3,0,0,1-1.15.93,3.79,3.79,0,0,1,.46-1.92,108.54,108.54,0,0,1,16.1-29,61.61,61.61,0,0,1,17.46-15.24,8.9,8.9,0,0,0,.79-.58,32.12,32.12,0,0,1,5-1.76,7.64,7.64,0,0,1,2.73-.18c.23.59-.22.94-.49,1.33a112.49,112.49,0,0,0-9.06,15C242.67,223,242.56,223.07,242.49,223.12Z"/><path class="cls-59" d="M273.59,218.61a10.24,10.24,0,0,1-3.43-.66,42.65,42.65,0,0,0-13.39-1.37A17.72,17.72,0,0,0,250,218.3a26.27,26.27,0,0,1-5,2.29c1.13-2.82,3-5.23,4.53-7.78,1.09-1.78,2.42-3.41,3.51-5.19a2.17,2.17,0,0,1,2.56-1,15.39,15.39,0,0,1,3.37.91,40.91,40.91,0,0,1,14.51,10.88A.85.85,0,0,1,273.59,218.61Z"/><path class="cls-60" d="M311.59,381.59a46.05,46.05,0,0,1-3.6-10.46,4.73,4.73,0,0,1,0-1,1.38,1.38,0,0,1,1.16-1.42,10.05,10.05,0,0,1,1.74-.16l8.27-.06c2,0,3.91.81,5.89,1.09.15.6-.38.66-.67.83-1.16.67-2.3,1.37-3.51,1.93a11.23,11.23,0,0,0-3.87,3.1C315.29,377.41,313.57,379.34,311.59,381.59Z"/><path class="cls-22" d="M386.4,401.93c-.28-1.72.61-3.54.6-5.47,0-1,1.34-2.15,2.38-2.23a5.16,5.16,0,0,1,3.15.51,16.42,16.42,0,0,1,3.7,2.51c.91.91.95,1.44.11,2.35A19.75,19.75,0,0,1,391,404c-.66.34-1.25.82-1.91,1.18a3.54,3.54,0,0,1-1.63.57c-.88,0-1.49-.53-1.27-1.39A9.9,9.9,0,0,0,386.4,401.93Z"/><path class="cls-22" d="M127.24,173.26a10.25,10.25,0,0,1,.36-3.48,4.63,4.63,0,0,0,.11-1.5,45.71,45.71,0,0,1,2.56-13.45,18.41,18.41,0,0,1,2.73-5.07,8.4,8.4,0,0,1,3-2.57A22.47,22.47,0,0,1,142.9,145a39.41,39.41,0,0,1,5.73-.39c2.68,0,5.36,0,8.05,0a9.77,9.77,0,0,1,3.72.38,1.68,1.68,0,0,0,.74.09c2.78-.27,5.49.51,8.24.54a33.44,33.44,0,0,1,4.46.61c5.67.86,11.32,1.88,17,3a20.62,20.62,0,0,1,9,3.52c1.66,1.27,1.93,2.81.61,4.5a66.32,66.32,0,0,1-9.87,9.95c-3.09,2.57-6.39,4.84-9.7,7.1-4.13,2.83-8.24,5.71-12.46,8.42s-8.72,5.59-13.23,8.15c-2.77,1.57-5.63,2.95-8.44,4.44a41.52,41.52,0,0,1-6.25,2.58,13.83,13.83,0,0,1-4.19.64,4.9,4.9,0,0,1-4.66-2.81,22,22,0,0,1-2.33-6.07c-.85-3.73-1.75-7.48-1.58-11.36a3.89,3.89,0,0,0-.12-1.49A10.53,10.53,0,0,1,127.24,173.26Z"/><path class="cls-24" d="M52.72,217.05c-1.06,2.18-2.13,4.35-3.17,6.53a59.09,59.09,0,0,0-4.85,17.58,131.56,131.56,0,0,0-1.06,18.29,78.06,78.06,0,0,0,1.21,13.23c.43,2.48.84,4.95,1.24,7.43.1.64.12,1.3.18,1.93a2,2,0,0,1-.62.06,78.06,78.06,0,0,1-12.35-4.87,21.79,21.79,0,0,1-2.36-1.43A10,10,0,0,1,26.65,269a25.16,25.16,0,0,1-.39-6.25c.31-3.75.54-7.52.95-11.26a86,86,0,0,1,3.4-15.92,60,60,0,0,1,5.16-11.68,17.82,17.82,0,0,1,1.31-1.82,26,26,0,0,1,12.86-6C51,215.85,52.14,215.78,52.72,217.05Z"/><path class="cls-58" d="M63.86,273.9a43.34,43.34,0,0,1-1,10c-.06.24-.08.5-.16.74a1.94,1.94,0,0,1-2.41,1.61,76,76,0,0,1-11.87-3.14,1.82,1.82,0,0,1-1.28-1.65c-.45-3-.87-6-1.47-8.9-1.65-8.06-1.29-16.2-.86-24.29a66.79,66.79,0,0,1,3.8-20.14,63.11,63.11,0,0,1,4.68-10,.78.78,0,0,1,1.12-.14c3.82,2.66,7.69,5.27,9.8,9.67.14.94.29,1.88.43,2.82a8.38,8.38,0,0,0-4.14,4.18c-4.14,8.69-6.36,17.78-5.18,27.43.6,5,2.8,9.09,7.76,11.16A2.15,2.15,0,0,1,63.86,273.9Z"/><path class="cls-24" d="M63.86,273.9a8.21,8.21,0,0,1-6-3.73,17.09,17.09,0,0,1-3.49-10A48.47,48.47,0,0,1,55.85,246,63.21,63.21,0,0,1,58.2,238a31.07,31.07,0,0,1,3.06-5.75,4.93,4.93,0,0,1,2.23-2,1.42,1.42,0,0,1,1.19.15l.21,4.2c0,.66-.07,1.33,0,2,.36,8.43,0,16.85-.19,25.26a62.83,62.83,0,0,0-.27,7L64.21,272A3.68,3.68,0,0,1,63.86,273.9Z"/><path class="cls-23" d="M52.72,217.05a4.62,4.62,0,0,0-3.61-.25,29.11,29.11,0,0,0-8,3.24,15.67,15.67,0,0,1-4,2,2.43,2.43,0,0,1,.56-1.37,85.34,85.34,0,0,1,7.76-11.11,34.36,34.36,0,0,1,5.6-5.38c3-2.32,6-2.09,8.79.57a7.46,7.46,0,0,1,2.48,4c.06.35,0,.72-.36.84C57.89,210.88,55.3,214,52.72,217.05Z"/><path class="cls-59" d="M64.25,227.64a5,5,0,0,1-.94-.82,28.64,28.64,0,0,0-7.91-7.45c-.67-.45-1.1-1.29-2.07-1.26A18.72,18.72,0,0,1,59.12,212c.56-.36,1.16-.67,1.74-1,1.41-.75,2-.37,2,1,0,.49.29,1,.33,1.45.22,2.58.44,5.16.59,7.74.09,1.67.65,3.29.49,5C64.25,226.63,64.26,227.14,64.25,227.64Z"/><path class="cls-22" d="M141,255.79c-1.76-.43-3.79-.55-5.61-1.46-1.65-.82-3.32-1.59-4.93-2.49a13.07,13.07,0,0,1-5.57-5.25,3.36,3.36,0,0,1,.58-4.33,38.39,38.39,0,0,1,3.38-3.37c3.77-3.16,7.55-6.31,11.42-9.36,2.61-2.06,5.36-3.95,8.07-5.91,1.42-1,2.83-2.06,4.31-3a37.42,37.42,0,0,1,3.3-1.78,2.87,2.87,0,0,1,1-.23c.55-.06,1.06.4.89.9a27.58,27.58,0,0,0-.47,3q-1.17,5.11-2.51,10.19c-.6,2.25-1.28,4.49-2,6.69a55,55,0,0,1-5.89,11.87,20.07,20.07,0,0,1-3.42,3.65A3.67,3.67,0,0,1,141,255.79Z"/><path class="cls-23" d="M209.75,255.3a.88.88,0,0,1-.47,1A.93.93,0,0,1,209.75,255.3Z"/><path class="cls-22" d="M99.62,214.1c.73-1.88.39-3.84.87-5.72.67-2.66,1.28-5.33,2.15-7.93a8.22,8.22,0,0,1,.52-1.13,1.67,1.67,0,0,1,1.42-.88,11,11,0,0,1,6.9,1.72c.58.34.65.81.17,1.47-.82,1.15-1.7,2.25-2.56,3.38a61.2,61.2,0,0,1-7.46,8.7c-.31.28-.6.58-.91.85s-.6.39-.89.16S99.68,214.27,99.62,214.1Z"/><path class="cls-24" d="M273.34,253.21l-.18.57a49.64,49.64,0,0,1-6.47,16.3c-.76,1.3-1.41,3-3.53,2.41a12.38,12.38,0,0,1-7.43-6,32.7,32.7,0,0,1-4.42-11.68,29.27,29.27,0,0,1,.3-9,53.65,53.65,0,0,1,2.44-9.48,18.74,18.74,0,0,1,2.66-4.82,11.53,11.53,0,0,1,1.53-1.67,4.82,4.82,0,0,1,6-.57,10.75,10.75,0,0,1,1.79,1.37,17.64,17.64,0,0,1,5.52,9.38,59.78,59.78,0,0,1,1.65,11.68C273.25,252.21,273.3,252.71,273.34,253.21Z"/><path class="cls-61" d="M263.16,272.49a2.12,2.12,0,0,0,2-1.11,66.19,66.19,0,0,0,6.11-12.76,19.84,19.84,0,0,1,1.85-4.84,32.86,32.86,0,0,1-.69,8.9c-.09.57-.23,1.13-.33,1.7a11.63,11.63,0,0,1-4.32,7.07,11.33,11.33,0,0,1-3.65,1.55C263.8,272.89,263.4,272.85,263.16,272.49Z"/></svg>