<svg id="Layer_1" data-name="Layer 1" xmlns="http://www.w3.org/2000/svg" viewBox="0 0 540 540"><defs><style>.cls-1{fill:#211d1c;}.cls-1,.cls-10,.cls-11,.cls-12,.cls-13,.cls-14,.cls-15,.cls-16,.cls-17,.cls-18,.cls-19,.cls-2,.cls-20,.cls-3,.cls-4,.cls-5,.cls-6,.cls-7,.cls-8,.cls-9{fill-rule:evenodd;}.cls-2{fill:#f0d8dd;}.cls-3{fill:#e89da1;}.cls-4{fill:#f1d9de;}.cls-5{fill:#826728;}.cls-6{fill:#dbeee6;}.cls-7{fill:#221815;}.cls-8{fill:#201613;}.cls-9{fill:#221715;}.cls-10{fill:#231815;}.cls-11{fill:#231916;}.cls-12{fill:#b8cbc3;}.cls-13{fill:#fdfdfd;}.cls-14{fill:#6360a9;}.cls-15{fill:#fcfcfc;}.cls-16{fill:#de7f80;}.cls-17{fill:#ae4f57;}.cls-18{fill:#4f2831;}.cls-19{fill:#e56f85;}.cls-20{fill:#e56e85;}</style></defs><path class="cls-1" d="M470.82,215a100.79,100.79,0,0,1,16.81,7.11c11,5.74,19,14.61,25.81,24.67,8.92,13.08,13.62,27.74,16.11,43.19a191,191,0,0,1,2,37.56c-.91,24.29-10.29,44.88-27,62.34C486.2,409,463.63,420.32,438.2,426.48A102.71,102.71,0,0,1,416,429.75c-1.55,0-1.95.86-2.37,2.05a187.49,187.49,0,0,1-32.51,57.27,92.92,92.92,0,0,1-16.29,15.72c-.79.59-1.62,1.13-2.42,1.69-3.94,2.77-7.92,3.18-12.63,1.52-12.36-4.36-22.9-11.62-33-19.63a131,131,0,0,1-20.34-20,2.86,2.86,0,0,0-3-1.16,245.38,245.38,0,0,1-41.7,2.29c-23.19-.65-46.13-3.11-68.46-9.84-.6-.19-1.07-.44-1.73.21-8.65,8.66-19.23,14.29-30.28,19.18a239.94,239.94,0,0,1-62.42,18,89.37,89.37,0,0,1-10.2,1c-1.91.06-2.73-.79-2.91-2.63a53.68,53.68,0,0,1-.06-13c.5-3.51-.57-6.92-1-10.37-1.12-10.32-2.49-20.66-1.31-31.06a226.83,226.83,0,0,1,7.93-40.14c.44-1.43.18-2-1-2.77-12.35-7.63-23.42-16.76-32.3-28.32-12.78-16.64-17.42-35.41-14.69-56.19,1.42-10.78,3.72-21.22,8.94-30.83,7.51-13.81,17.61-25.15,31.64-32.65a2.34,2.34,0,0,0,1.48-2.24A263.26,263.26,0,0,1,81,204.7a2.54,2.54,0,0,0-1-2.83C49.16,173.7,28,139.15,13.24,100.41c-1.54-4-2.72-8.22-4-12.34-.78-2.49-.56-2.85,1.72-4.29C26.19,74.14,43.1,69.15,60.72,66.2A208,208,0,0,1,105,63.89c8.93.41,17.75,2,26.54,3.6,1,.18,1.52.15,2.11-.74,13.55-20.4,32.87-32.62,56-39.29,21.09-6.07,41.92-5.72,62.23,3.21a65.85,65.85,0,0,1,26,20.3A5,5,0,0,0,281,53a83.43,83.43,0,0,1,12.7,4.16,5.26,5.26,0,0,0,4.12,0A327.66,327.66,0,0,1,357.54,40c9.25-1.69,18.61-2.55,28-3.37,10-.87,19.93-1.5,29.92-1.83A249.14,249.14,0,0,1,449.1,36.3c2.79.29,3.71,1.4,3.49,4.41a123.51,123.51,0,0,1-4,23c-9.85,36.63-25.39,70.85-44,103.76-.21.37-.61.69-.44,1.42.55-.4,1.06-.74,1.52-1.12a152,152,0,0,1,46.08-26.44,75.81,75.81,0,0,1,24-4.14c4.31-.08,5.95,1.51,6.15,5.87.36,7.42-2,14.11-5.79,20.34-4.44,7.34-10.36,13.39-16.93,18.84-.53.44-1.21.75-1.56,1.55,4.34.91,8.63,1.79,12.91,2.72a38.29,38.29,0,0,1,12,4.9c3.33,2,4,4.09,3,7.85-1.2,4.49-4.27,7.62-7.52,10.62A43.15,43.15,0,0,1,470.82,215Z"/><path class="cls-2" d="M238.69,467.47a269.62,269.62,0,0,1-28.78-3.14,189.1,189.1,0,0,1-57.27-18.55,112.27,112.27,0,0,1-28-19.9,8.84,8.84,0,0,0-.77-.6c-.59,0-1.12-.37-1.74-.36-.52.51-.2,1.12-.11,1.65a123.64,123.64,0,0,0,14.54,41c2.58,4.53,6.18,7.82,11.65,8.45,1,.12,2,0,2.95.16.49.06,1.1.05,1.15.79a220.71,220.71,0,0,1-34.19,12.44c-1.26.35-1.48-.42-1.93-1.08A43.68,43.68,0,0,0,99.64,474c-7.69-4-14.57-1.72-20.85,3.6a7.83,7.83,0,0,0-1.16,1.59l-.56-.29c-.4-2.88-.86-5.76-1.18-8.65-.9-8-1.81-16.09-1.41-24.2.62-12.85,3.27-25.38,6.21-37.85.58-2.43,1.37-4.8,2-7.21.26-1,.62-1.1,1.51-.64,2.53,1.3,5.33,2.07,7.21,4.52a7.49,7.49,0,0,0,4.29,2.29A24.34,24.34,0,0,0,114,405.13c1.44-.79,2.34-1.88,1.93-3.8A75,75,0,0,0,126,402.41c2.11,0,2.52-.39,2-2.42-2-7.72-5.27-14.83-10.78-20.76q-.33-.36-.63-.75s0-.12,0-.31c4.62-1,9.34-1.75,13.85-3.32,5.29-1.85,5.48-2.44,2.11-6.92a52.13,52.13,0,0,0-9.58-9.88,3.85,3.85,0,0,1-1.53-2.59c-4-22.7-13-43-28.68-60.14-.48-.53-1-1.91-1.88-1.08-.72.67.49,1.32,1,1.85,12.83,14.18,21,30.84,26.12,49.13a1.7,1.7,0,0,1,0,.39c-1.38,0-1.73-1.26-2.44-2-3.33-3.67-6.94-7-11.49-9.09-1.35-.62-2.84-1.59-4.26-.54s-1,2.7-.81,4.22a123.87,123.87,0,0,0,4.48,23.76,90.38,90.38,0,0,0,4.74,12.31c.37.81,1,1.55.73,2.56-7.91,2.89-10.4,6.34-10.57,14.91,0,1-.54,1.16-1.25,1.39a14.52,14.52,0,0,0-5.86,3.11,6.76,6.76,0,0,0-2.57,4.53,25.21,25.21,0,0,1-6.71-3.28c-13.11-8-24.86-17.66-34-30.14a69.63,69.63,0,0,1-14-45c.8-20.7,6.71-39.5,20.8-55.24a71.73,71.73,0,0,1,20-15.82,3.16,3.16,0,0,0,2-3,275.15,275.15,0,0,1,4.44-37.74,219.4,219.4,0,0,1,11.61-40c.27-.66.44-1.36.65-2-.77-1.12-.26-2.12.28-3.12a69.29,69.29,0,0,1,4.64-7.77c1-1.32.81-1.55-.87-1.65a115.57,115.57,0,0,1-38.15-8.85c-3-1.27-6-2.66-8.91-4.18-2.13-1.12-3-2.6-2.4-4.92A127.1,127.1,0,0,1,60.25,93.6c4.46-9.31,9.3-18.41,15.84-26.49a3.61,3.61,0,0,1,2.72-1.64,192.08,192.08,0,0,1,51.6,3.22c.49.1,1,.26,1.62.43a88.49,88.49,0,0,0-8.72,19c-4,12.32-5.51,24.92-3.21,37.72,2.59,14.51,10.57,25.82,22,34.81.51.4,1,.84,1.5,1.26,1.73,2.14,3.13,4.52,5,6.6,4.4,5,10.11,7.88,16.32,9.87a60.34,60.34,0,0,0,18.39,3.19c11.39,0,22.61-1.41,32.8-7.06a29,29,0,0,0,12.7-13.61c4.73-10.47,6.18-21.26,2.54-32.4-1.23-3.78-3.49-7-5.83-10.18A33.6,33.6,0,0,0,204.94,98.8c-1.84-.65-3.79-1-5.68-1.51a51.6,51.6,0,0,1-4.85-2.64,18.1,18.1,0,0,0-8.49-2.26c-4.39,0-8.77-.27-13,1.51-9,3.8-13.46,11.69-13.5,21a22.93,22.93,0,0,0,2.72,11.19,16.3,16.3,0,0,0,12.31,8.35c6.1,1,12.25.41,17.77-2.86a22.2,22.2,0,0,0,10.58-13.9,34.73,34.73,0,0,0,1-10.55,12.65,12.65,0,0,0-1.9-6c-.35-.59-1-1.09-.71-1.93,9.75,2.33,17.38,7.66,21.59,16.83a39.59,39.59,0,0,1,.71,32.89c-2.85,6.79-8.43,11.2-14.75,14.53a64.36,64.36,0,0,1-35.68,7,66.5,66.5,0,0,1-14.89-2.68A51.3,51.3,0,0,1,137,154.31c-9.09-9.26-15.08-20.18-16.17-33.36a80.88,80.88,0,0,1,4.44-34.14c9.71-27.21,29-44.73,55.54-54.95,12.83-4.95,26.13-7.64,39.9-7,20.3,1,38.35,7.56,52.51,22.71,9.08,9.72,15.13,21.08,17.32,34.33.05.33.16.64.22,1,.09.47.22,1,.78,1,.74-.08.6-.76.53-1.25a64.58,64.58,0,0,0-11.65-28.24c4.57.84,8.51,2.56,12.54,4a.74.74,0,0,1,.43.36c.56,1.49.55,1.5,2.06.89a337.77,337.77,0,0,1,61.28-18.07c3.08-.59,6.21-1,9.66-1.54a155.08,155.08,0,0,0-6.63,14.54A136.49,136.49,0,0,0,350,96.76c-.42,5.44-.79,10.88-1.08,16.33a3.21,3.21,0,0,1-1.09,2.18c-9.78,10.39-19.13,21.16-27.91,32.42a75.23,75.23,0,0,0-6.75,9.94c-1.55,2.82-1.51,2.84,1.74,3,3.07.22,5.82,1.56,8.68,2.5A118.37,118.37,0,0,1,354.35,178a136.29,136.29,0,0,1,14.36,11.7,92.39,92.39,0,0,1,29.6,57.73,119,119,0,0,1,1.11,20,106,106,0,0,1-6,32,158.42,158.42,0,0,1-16.74,33.21A172.58,172.58,0,0,1,358,356c-10.18,10.84-21.6,20.18-33.32,29.21-.8.61-1.56,1.5-2.79,1.13-.66-.43-.74-1.2-1-1.85-2-4.36-4.66-8.06-9.17-10.15-3.56-1.65-6.1-1.27-8.56,1.86a4.8,4.8,0,0,1-5.29,1.9,97.41,97.41,0,0,1-14-3.23c-3.26-1.11-3.67-2.15-2-5.27a34.24,34.24,0,0,1,11.31-13.19,7.85,7.85,0,0,0,4.05-7.12A133.11,133.11,0,0,1,301,323.64c2.35-10,4.95-19.92,9.06-29.37a130,130,0,0,1,9.09-17,101.88,101.88,0,0,0-13.31,27.26c-.2.64-.24,1.68-1.18,1.53-.76-.13-.9-1.07-.92-1.8-.07-4.2-.13-8.4,0-11.54-.53,4.55-1,10.16.38,15.74a4.92,4.92,0,0,1-.23,2.52A200.55,200.55,0,0,0,297.42,342a56.08,56.08,0,0,0-.59,7.66,6.18,6.18,0,0,1-3.06,5.92c-5.48,3.42-9.38,8.37-12.35,14.06-1.8,3.44-1.42,4.33,2.28,5.59a76.82,76.82,0,0,0,12.86,3c.33.05.66.09,1,.15,2.83.52,2.93.83,1.34,3.16a80,80,0,0,0-8,14.92c-1,2.51-.45,3.39,2.29,3.48a118.94,118.94,0,0,0,17.69-1c.33,0,.65-.14,1-.15.89,0,2-.7,2.59.19s-.25,1.61-.59,2.38a17,17,0,0,0-.77,1.81c-.39,1.19,0,2,1.24,2.15,7.66.63,15.53,1.94,22.72-1.56,5.42-2.63,11.37-4,16.46-7.47a85.37,85.37,0,0,0,17.18-15.57c4.7-5.58,9.43-11.14,13.71-17.06a3,3,0,0,1,1.79-1.46c4.36.84,7.1,3.77,9.2,7.38A44.75,44.75,0,0,1,401,386.69c.77,6.19,1.39,12.38,1.77,18.62.6,10.12.45,20.24.21,30.34a98.67,98.67,0,0,1-3.6,24.1,10.23,10.23,0,0,1-1.65,3.11c-5.3,8.53-10.64,17-17.1,24.78-1.05,1.26-1.69,1.21-3,.46a48,48,0,0,0-19.68-5.77,11.89,11.89,0,0,0-6.91,1.95,68.32,68.32,0,0,0-16.61,12.85c-1,1.12-1.72,1-2.89.28-23.4-15.06-41.31-34.92-53-60.28a2.35,2.35,0,0,1-2.09-1.72c-.69-2.06-1.72-4-2.6-6-1.08-2.4-1.86-2.72-4.28-1.63A55,55,0,0,0,249.08,444a59,59,0,0,0-7.32,11.39,20.25,20.25,0,0,0-2.19,9.29C239.59,465.67,240,466.86,238.69,467.47Z"/><path class="cls-3" d="M322,386.23c2.76-1.17,4.86-3.29,7.16-5.09a269.87,269.87,0,0,0,25.75-22.52,166.6,166.6,0,0,0,33.71-48.55,108,108,0,0,0,9-29A103.63,103.63,0,0,0,398.84,257c-1-11.22-2.59-22.34-6.92-32.89a91.86,91.86,0,0,0-15.27-25.33,114.7,114.7,0,0,0-33.86-27.12c-7.23-3.81-14.89-6.49-22.56-9.16-1.79-.62-3.57-1.26-5.35-1.9,22.42-.29,44.65,1.1,66.33,7.42,5.75,1.68,10.8,4.73,15.78,7.94a5.65,5.65,0,0,1,1.65,2.16c12.07,21.11,18.86,44.09,23.95,67.67a284,284,0,0,1,6,49.41c.49,12.88,1.27,25.75,1,38.63-.82,35.74-6.87,70.51-19.68,104a172.88,172.88,0,0,1-9.21,19.82c-.4.74-.9,1.43-1.35,2.14.1-3.87,1.24-7.59,1.71-11.42a116.84,116.84,0,0,0,1.4-13.44c.06-8.29.26-16.58-.05-24.85-.39-10.25-.91-20.55-3.55-30.53-1.32-5-3.2-9.91-7.11-13.61-1.65-1.57-3.44-3.07-5.86-3.36-.18-1.05.57-1.71,1.07-2.45a192.48,192.48,0,0,0,13.91-24.27,151.92,151.92,0,0,0,10.85-31,10.3,10.3,0,0,0,.35-2.54c-1,3.12-1.63,6.32-2.54,9.46a166.47,166.47,0,0,1-30.4,58.14,190.64,190.64,0,0,1-15.91,18.27,72.59,72.59,0,0,1-12.79,9.51,20.1,20.1,0,0,1-12.84,2.89,45.38,45.38,0,0,1-13.78-3.16c-2.44-1.06-2.54-1.21-2-3.83a15.6,15.6,0,0,0,0-5.28C321.72,387.59,321.36,386.85,322,386.23Z"/><path class="cls-4" d="M483.42,308.91c-.68-3.27-1.25-6.58-2.06-9.82-2.65-10.62-7.76-19.78-16.49-26.62-6.71-5.27-14.53-7.77-22.93-8.54a57,57,0,0,0-13.19-.06c-1.19.17-1.59-.22-1.76-1.38a303.12,303.12,0,0,0-10.63-46.19c-.36-1.18-.42-1.82,1.12-2.05,13-1.93,26-2.78,39.08-.93,27.52,3.89,48,17.82,60.77,42.65a113.63,113.63,0,0,1,11.4,38.09,227,227,0,0,1,1.62,28.32c.1,31-13,55.59-36.19,75.37-.8.68-1.64,1.29-2.46,1.93a16.74,16.74,0,0,1-13.57,1c-6-2.32-8.17-7.63-8.7-13.7-.61-7.13,1.79-13.59,4.46-20,2.43-5.83,5.81-11.2,8.15-17.08a68.51,68.51,0,0,0,4-17.23C487,324.51,485.05,316.74,483.42,308.91Z"/><path class="cls-3" d="M435,265.14a52.77,52.77,0,0,1,15.22,1.66c14.07,3.82,22.89,13.35,27.88,26.5a68.8,68.8,0,0,1,2.2,41.87c-4.38,17.5-16.22,27.19-33.4,30.92a50.5,50.5,0,0,1-16.09.71c-1.5-.16-2.1-.57-1.89-2.27a297.89,297.89,0,0,0,1.93-46.06c-.43-16.16-.89-32.33-2.76-48.41a17.94,17.94,0,0,0-.37-2.53c-.49-1.78.1-2.51,2-2.41S433.25,265.14,435,265.14Z"/><path class="cls-3" d="M483.42,308.91c1.59,3.35,2.07,7,2.72,10.58,1.57,8.82.45,17.47-2,26A74.16,74.16,0,0,1,478,359.72c-3.6,6.81-6.92,13.76-7.92,21.45-.81,6.26-.15,12.39,4.93,17.07a9.52,9.52,0,0,0,6.36,2.67,37.52,37.52,0,0,0,10.29-1.23c-6.47,5.47-13.77,9.65-21.24,13.52a140.75,140.75,0,0,1-53.07,15.17c-.77.07-1.55,0-2.37,0,1.71-5.73,3.5-11.36,5.05-17.05a361.42,361.42,0,0,0,8.14-40.73c.49-3.18-.34-2.72,3.65-2.36a50,50,0,0,0,31.22-6.87c11.29-6.83,17.37-17.22,19.54-30.07A84,84,0,0,0,483.42,308.91Z"/><path class="cls-4" d="M409.59,166.48C424.17,155.1,440,146,457.9,141A78.12,78.12,0,0,1,475,138.6c4.07-.2,5.34.93,5.46,5.11.18,6.28-1.75,12.08-4.76,17.48-4.58,8.22-11.1,14.77-18.32,20.7-.85.7-2.53,1.12-2.14,2.47.32,1.13,1.9.87,3,1.1,6.54,1.41,13.24,2.13,19.39,5a32,32,0,0,1,5,2.77,4.23,4.23,0,0,1,1.73,4.66c-.89,4.69-4.05,7.85-7.31,10.94-.53.5-1.13.91-1.67,1.38-3.54,3.11-7.16,4.57-12.16,2.95-5.67-1.84-11.76-2-17.74-2.26a45,45,0,0,0-5.69-.11c-2.22,0-2.28-.17-2.11-2.39.5-6.64.36-13.22-2-19.6S430,177,424.57,172.92a25.86,25.86,0,0,0-13.18-5.19C410.65,167.65,409.36,168.07,409.59,166.48Z"/><path class="cls-5" d="M449.56,38c-18.32,9.7-36,20.39-52.46,33a441.42,441.42,0,0,0-46.65,41.47c0-1.93-.11-3.46,0-5,.59-7.31,1.25-14.61,2.22-21.89a125.7,125.7,0,0,1,7.68-28.79A157.46,157.46,0,0,1,366.83,42c1-1.94,2.45-2.48,4.36-2.65,8-.67,15.91-1.48,23.88-2.08a322.57,322.57,0,0,1,35-1A132.26,132.26,0,0,1,449.56,38Z"/><path class="cls-5" d="M75.09,65.86C54.46,94,44.2,125.22,46,160.52a129,129,0,0,1-7.58-11.62c-8.69-14.7-16.79-29.71-22.72-45.79C13.81,98,12.3,92.78,10.53,87.63a1.84,1.84,0,0,1,.94-2.56c12.43-7.82,26-12.64,40.28-15.74C59,67.76,66.3,66.75,73.64,65.86A14,14,0,0,1,75.09,65.86Z"/><path class="cls-3" d="M48,138c-.57,2.86,1.47,3.87,3.48,4.89a114.53,114.53,0,0,0,21.9,8.53,112.12,112.12,0,0,0,24.88,4c.6,0,1.32,0,1.59.55s-.29.95-.62,1.36c-2.2,2.72-3.69,5.86-5.43,8.87a4.77,4.77,0,0,0-.39,2.29c-1.22-.38-1.23.71-1.52,1.34-4.48,9.61-7.31,19.78-9.88,30-.11.44-.25.87-.38,1.28-.71.05-1-.47-1.33-.81a227.06,227.06,0,0,1-31.88-36.1,5.69,5.69,0,0,1-1.12-3.44c-.12-7-.12-14.05.39-21.06A3.3,3.3,0,0,1,48,138Z"/><path class="cls-3" d="M201.21,99.27c3.46,3.9,3.54,8.67,3.08,13.39a25.06,25.06,0,0,1-5,13.44,23.45,23.45,0,0,1-17.39,9.11c-4.39.33-8.7.15-12.85-1.94-6.52-3.27-9.22-8.83-10.06-15.61a27.55,27.55,0,0,1,1.18-11c2.51-8.8,12.26-15,20.6-14.86,4.2.09,8.44-.24,12.36,1.66,2.16,1,4.42,2,6.11,3.84-5-.54-10-.67-14.75,1.31-9.69,4-14.9,11.63-16.83,21.71a34.89,34.89,0,0,0-.43,4.11c0,.53-.26,1.34.65,1.35.72,0,.62-.71.67-1.21a34.88,34.88,0,0,1,1.51-8.31c3.35-9.1,9.18-15.58,19.07-17.46A25.92,25.92,0,0,1,201.21,99.27Z"/><path class="cls-3" d="M238.69,467.47a2.11,2.11,0,0,0,.41-1.48c-.62-6.81,2.57-12.36,6.14-17.66a61.25,61.25,0,0,1,15.49-16.05,54.59,54.59,0,0,1,9.25-5.19c2.1-.95,3.29-.38,4.18,1.74,1,2.29,2,4.56,2.89,6.88.3.8,1.05.9,1.49,1.42-1.92-.27-1.16.8-.78,1.6,2.21,4.55,4.65,9,7.18,13.33a113.89,113.89,0,0,0,8.36,12.39c.76,1,.75,1.33-.6,1.5A267.2,267.2,0,0,1,238.69,467.47Z"/><path class="cls-3" d="M152.28,477c-1.42-.73-2.95-.2-4.43-.41-5.47-.81-9.13-4.09-11.73-8.66A124.29,124.29,0,0,1,121.89,429c-.21-1.09-.37-2.19-.6-3.27-.13-.66-.41-1.38.32-1.76s1,.42,1.46.72c.26.18.51.39.77.59-1.23.87-.06,1.33.37,1.8,6.19,6.77,13.72,11.81,21.53,16.47a163.83,163.83,0,0,0,32.89,14.57c2,.67,2,.65.42,2.15C171.26,467.64,162,472.68,152.28,477Z"/><path class="cls-3" d="M409.59,166.48c.08.58.46.69,1,.73,12.47,1,20,8.31,24.72,19.24,3.16,7.29,3.76,14.89,2.78,22.68-.14,1.14.27,1.48,1.38,1.52,2,0,4.05-.34,6,.29-6.57,0-13.14-.09-19.67.85-2.93.42-5.86.75-8.78,1.21-1.17.18-1.74-.08-2.12-1.3a185.94,185.94,0,0,0-14.53-33.35c-1.2-2.22-1-3.65.94-5.22C404.05,170.88,406.83,168.69,409.59,166.48Z"/><path class="cls-3" d="M225.52,118.34c.88.15,1.26.87,1.72,1.5a31.92,31.92,0,0,1,6.4,17c.71,10.36-1.11,20.1-7,28.79-4.07,6-9.88,9.81-16.67,12.25a77,77,0,0,1-21.5,4A64.84,64.84,0,0,1,161,177.53c-7.77-2.95-13.81-7.92-17.38-15.6,5.43,3.77,11.2,6.82,17.72,8.23,16.9,3.68,33.31,2.59,48.73-5.79,11.85-6.44,18.11-16.37,17.74-30.13C227.69,128.84,227.36,123.48,225.52,118.34Z"/><path class="cls-3" d="M108.89,376.79a94.5,94.5,0,0,1-9.52-31.22c-.37-2.72-.75-5.44-1.11-8.16a7.93,7.93,0,0,1,0-1.38c.16-2.75,1.41-3.66,4-2.78a26.94,26.94,0,0,1,8.75,5.17,63.57,63.57,0,0,1,6.93,7.19,51.64,51.64,0,0,1,2.06,10,5.06,5.06,0,0,0,2.08,3.58,54.06,54.06,0,0,1,10.49,11.13c1,1.4.74,2-.71,2.54-4.9,2-10.1,2.76-15.21,3.89C114.05,377.3,111.47,376.46,108.89,376.79Z"/><path class="cls-6" d="M378.4,490.15c-5.22,5.59-10.37,10.9-16.59,15.08-3.62,2.44-7.2,3.25-11.46,1.46a124.21,124.21,0,0,1-14.48-6.6c-1.16-.68-1.51-1-.38-2.17a73.57,73.57,0,0,1,16.37-12.52,12.4,12.4,0,0,1,8.73-1.4,56.08,56.08,0,0,1,14.82,4.45C376.39,488.94,377.32,489.53,378.4,490.15Z"/><path class="cls-6" d="M115.42,490.06c-4.72,1.44-9.52,2.47-14.32,3.46a187.17,187.17,0,0,1-21.21,3.09c-2.46.22-2.74.06-2.92-2.39A53.67,53.67,0,0,1,76.82,484a7.37,7.37,0,0,1,2.07-4.53c4.76-4.78,12.35-8.36,20.59-4C105.31,478.48,113,485.24,115.42,490.06Z"/><path class="cls-6" d="M123.65,400.94a96.81,96.81,0,0,1-18.15-3.41c-5-1.53-6.67-4.81-5.51-9.9,1.55-6.75,6.09-10,12.85-9.28a4.83,4.83,0,0,1,3.08,1.54c5.4,5.58,8.43,12.43,10.61,19.73.3,1,0,1.49-1.11,1.33A14.57,14.57,0,0,0,123.65,400.94Z"/><path class="cls-6" d="M102.67,406.67a21.2,21.2,0,0,1-7.16-1,13.42,13.42,0,0,1-2.3-1.08c-3.86-2.47-4-5-.42-7.87a16.37,16.37,0,0,1,5.12-2.42c.55-.19,1-.2,1.33.38,1.66,2.73,4.34,3.88,7.25,4.63,2,.53,4.07,1,6.13,1.4,1,.18,1.82.67,2,1.6s-.81,1.38-1.57,1.78A20.49,20.49,0,0,1,102.67,406.67Z"/><path class="cls-7" d="M322,386.23c.39,3,1.23,5.95-.12,8.9-.37.79.26.92.7,1.09,10.06,4,20,6.36,30-.39,7.76-5.2,14.05-11.78,20.06-18.78,13.72-16,24.89-33.5,32.36-53.27a138.31,138.31,0,0,0,6.23-21.12c.05-.26.15-.5.2-.76.12-.5.16-1.23.82-1.15.86.09.59.89.49,1.42a124.33,124.33,0,0,1-3.35,13.16c-5.25,17-13.43,32.6-23.52,47.21-5.85,7.86-12,15.46-18.61,22.71a69.26,69.26,0,0,1-17.08,13.54,18.86,18.86,0,0,1-6.61,2.45,5.6,5.6,0,0,0-2.14.95,28.11,28.11,0,0,1-15.74,4.28c-3.69,0-7.37-.12-11-.51-2.52-.26-3-1-2-3.36.49-1.19,1-2.35,1.61-3.66a116.93,116.93,0,0,1-20.36,1.49,14.89,14.89,0,0,1-1.77-.06c-2.36-.27-2.92-1-2.09-3.26a77.13,77.13,0,0,1,8.44-16c.37-.54.75-1.06,1.28-1.81L292.21,378a57.94,57.94,0,0,1-10.42-2.9c-2.14-.82-2.56-1.68-1.65-3.81a35.38,35.38,0,0,1,14.17-16.72,3.41,3.41,0,0,0,1.85-3.12c.52-14,3.62-27.57,7.33-41a4.71,4.71,0,0,0,0-2.3c-1.35-6.07-.73-12.15.07-18.22,0-.09.18-.16.72-.61,0,5.74-.47,11.16.33,16.54,3.67-10.93,8.31-21.28,15.25-30.47l.52.25c-.61,1.2-1.11,2.47-1.83,3.59-9.18,14.26-13.93,30.19-17.51,46.56a144.12,144.12,0,0,0-3.57,26.72,3.09,3.09,0,0,1-1.79,2.8,35.33,35.33,0,0,0-13.8,15.29c-1.24,2.5-1.1,2.72,1.47,3.64,5.35,1.91,10.93,2.79,16.5,3.69a1.75,1.75,0,0,0,1.8-.88c4.14-5.24,7.6-5.94,14.06-.61A18.68,18.68,0,0,1,322,386.23Z"/><path class="cls-8" d="M208.22,208.27c.07-3.09,0-6.18.83-9.2a4.29,4.29,0,0,1,3.29-3.31c1.76-.4,3,.59,4,1.92a15.74,15.74,0,0,1,2.51,4.44c3.25,9.66,5.5,19.48,4.43,29.78-.23,2.22-.4,4.47-1.75,6.38s-2.7,2.06-4.55.79a7.89,7.89,0,0,1-2.33-2.89c-4.57-8.32-6.24-17.35-6.45-26.73C208.21,209.06,208.22,208.66,208.22,208.27Z"/><path class="cls-8" d="M141,222.06a57.1,57.1,0,0,1,1-11.21c.47-2,1-3.94,3.37-4.38,1.84-.35,3.87,1.16,4.92,3.53,2.54,5.73,3.38,11.86,3.89,18a47.73,47.73,0,0,1-1.09,15.66,17.51,17.51,0,0,1-1.17,3.12,3.17,3.17,0,0,1-3,2.14,3.65,3.65,0,0,1-3.28-2.16,39.2,39.2,0,0,1-3.53-11.43A77.7,77.7,0,0,1,141,222.06Z"/><path class="cls-9" d="M213.08,278.48a43.92,43.92,0,0,1-2.39,16.69c-2.07,5.66-5.28,10.19-11.65,11.35-6.84,1.26-12.2-1.43-16.45-6.64-6-7.41-9.7-16-12.51-25-.65-2.06-1.2-4.16-1.73-6.26-.23-.9-.63-1.29-1.62-1.17-1.76.21-3.54.3-5.3.41-.42,0-1.08.19-1.14-.43s.64-.68,1.13-.72c6.35-.51,12.65-1.38,18.94-2.37a151.4,151.4,0,0,0,28.27-6.78c1.6-.57,2.2-.31,2.49,1.41C212.23,265.43,213.25,271.91,213.08,278.48Z"/><path class="cls-10" d="M244.11,261a33.28,33.28,0,0,1-9-1,11.41,11.41,0,0,1-2.5-1.11c-2.11-1.31-2.41-3.23-.79-5.12a13.6,13.6,0,0,1,4.63-3.27,59.61,59.61,0,0,1,19.11-5.09c5.23-.61,10.47-.84,15.66.36A9.62,9.62,0,0,1,274.5,247c2,1.34,2.29,3.18.75,5a15.3,15.3,0,0,1-6,4C261.32,259.37,253,260.73,244.11,261Z"/><path class="cls-10" d="M116,278.72c-3.16-.05-5.86,0-8.43-1s-3.09-3.08-1.12-5a9.58,9.58,0,0,1,2.36-1.75,49.76,49.76,0,0,1,28.27-5.06c1.88.22,4,.58,4.56,2.79.55,2.38-1.46,3.51-3.16,4.46C131.32,277.06,123.51,278.3,116,278.72Z"/><path class="cls-11" d="M149.09,257.18c-12.85-.22-18.76-8.6-20.42-19.31a110.39,110.39,0,0,1-.37-28.31,7.87,7.87,0,0,1,.17-1c.09-.47.22-1,.85-.81s.5.56.47.95c-.18,2.23-.39,4.45-.55,6.68-.56,8.43-.54,16.87,1.41,25.1,1.65,7,5.3,12.63,12.87,14.5,1.84.46,3.78.46,5.65.79.67.11,2-.27,1.85.85S149.7,257,149.09,257.18Z"/><path class="cls-11" d="M245.87,224c1,9.31-4.19,14.64-11.65,18.52a42.91,42.91,0,0,1-4.89,2.07c-.75.27-1.9,1.28-2.34.11s1.08-1,1.78-1.32c1.42-.68,2.94-1.16,4.32-1.89,10.9-5.77,12-10,11.29-20.37a89.71,89.71,0,0,0-5.11-24.79c-.22-.58-.63-1.43.19-1.69s.94.74,1.14,1.29A99.23,99.23,0,0,1,245.87,224Z"/><path class="cls-6" d="M291.24,398.47a2.8,2.8,0,0,1,.06-.77c3.12-7.77,7.06-15.07,12.79-21.28,2.34-2.54,4.13-2.82,7.19-1.33a17.66,17.66,0,0,1,8.77,9.89c.45,1.23-.33,1.89-1.12,2.66-4.76,4.6-10.63,7.08-16.86,8.83-2.7.76-5.31,1.87-8.15,2.12A5.19,5.19,0,0,1,291.24,398.47Z"/><path class="cls-12" d="M291.24,398.47c4,.12,7.47-1.71,11.18-2.66a38,38,0,0,0,16.74-9,2.44,2.44,0,0,0,.89-1.86,15.82,15.82,0,0,1,.87,8.43,2.92,2.92,0,0,1-1.89,2.26,31.34,31.34,0,0,1-9.61,2.59A111.64,111.64,0,0,1,293,399C292.39,398.92,291.63,399.27,291.24,398.47Z"/><path class="cls-12" d="M339.35,401.67A22.74,22.74,0,0,1,328.22,405a85.19,85.19,0,0,1-13.17-.39c-1.18-.1-1.72-.48-1-1.71a9,9,0,0,0,1-2.33c.6-2.59,2.87-2.94,4.82-3.75A1.23,1.23,0,0,1,321,397c5.34,3,11.26,3.77,17.2,4.51Z"/><path class="cls-13" d="M216.38,207.43c0,.77,0,1.35-.1,1.94a1.67,1.67,0,0,1-1.4,1.65,1.79,1.79,0,0,1-2.08-.73,14.59,14.59,0,0,1-2.1-9.36,2,2,0,0,1,1.57-1.8,1.82,1.82,0,0,1,1.94,1A16,16,0,0,1,216.38,207.43Z"/><path class="cls-14" d="M221.38,233.4c-.06,2.62-.88,4-2.41,4.12s-2.43-1.18-2.73-3.88a1.34,1.34,0,0,0,0-.2c-.2-2.55.74-4.26,2.35-4.28S221.44,231,221.38,233.4Z"/><path class="cls-15" d="M143.9,213.08c0-.72,0-1.44,0-2.16,0-.89.25-1.74,1.3-1.94a1.92,1.92,0,0,1,2.15,1.06,14.34,14.34,0,0,1,1.18,8.61,1.85,1.85,0,0,1-1.88,1.46,1.77,1.77,0,0,1-1.82-1.25A14.23,14.23,0,0,1,143.9,213.08Z"/><path class="cls-14" d="M151.48,242.78c0,2.28-1.33,4.15-2.83,4.08s-2.52-1.85-2.32-4.33c.16-1.88,1.55-3.53,2.88-3.43S151.51,241,151.48,242.78Z"/><path class="cls-16" d="M211.54,283.69a32.19,32.19,0,0,1-3.67,14.37c-4.11,7.71-13.21,9.74-20.33,4.63-3.34-2.39-5.56-5.72-7.69-9.13a2.81,2.81,0,0,1,.27-2.46c5.6-10.86,15.75-16.28,28.06-14.29,3.5.56,3.5.7,3.48,4.14A10.07,10.07,0,0,1,211.54,283.69Z"/><path class="cls-17" d="M211.54,283.69a15.24,15.24,0,0,1,0-2.94c.36-2.1-.68-2.93-2.54-3.29-12.37-2.36-23.43,3.11-28.89,15a4.69,4.69,0,0,0-.22,1.15c-3.69-4.28-3.48-8.93-1.74-14a35.24,35.24,0,0,1,8.58-13.72c2.35-2.35,5.41-2,8.19-2.72.8-.21,1,.69,1.36,1.22a55.42,55.42,0,0,0,6.88,8.61c1.6,1.75,2.47,1.53,3.17-.78,1.29-4.3,2-8.74,3.1-13.64a40.75,40.75,0,0,1,1.55,8.11,99.41,99.41,0,0,1,.88,15.71A6.91,6.91,0,0,1,211.54,283.69Z"/><path class="cls-18" d="M185.26,265.44c-5.68,5.12-8.32,11.83-9.9,19.62a99.11,99.11,0,0,1-4.1-11c-.54-1.75-1-3.5-1.51-5.27-.19-.77-.34-1.56.92-1.69,4.4-.46,8.78-1.13,13.13-1.93A1.42,1.42,0,0,1,185.26,265.44Z"/><path class="cls-13" d="M207.68,259.45a92.68,92.68,0,0,1-3,13,47.5,47.5,0,0,1-7.3-8.94c-.3-.48-.78-.94.29-1.23C200.94,261.44,204.17,260.47,207.68,259.45Z"/><path class="cls-19" d="M244.12,259.6a27.43,27.43,0,0,1-9.32-1.22c-1-.36-2.22-.73-2.46-2s.8-2.17,1.74-2.84c4.37-3.12,9.44-4.54,14.59-5.61,7.15-1.48,14.36-2.4,21.66-1a9.44,9.44,0,0,1,3.14,1.12c1.55.94,1.72,2,.48,3.37a14.71,14.71,0,0,1-5.46,3.42A67.37,67.37,0,0,1,244.12,259.6Z"/><path class="cls-20" d="M132,266.91a22.35,22.35,0,0,1,5.93.57c.94.27,2.11.47,2.3,1.58s-.83,1.73-1.63,2.27a30.59,30.59,0,0,1-10.36,4.15c-5.84,1.39-11.72,2.4-17.75,1.47-1.41-.22-3.29-.3-3.58-1.88s1.5-2.28,2.71-3C114.65,269.16,123.92,267,132,266.91Z"/></svg>