<svg id="Capa_1" data-name="Capa 1" xmlns="http://www.w3.org/2000/svg" viewBox="0 0 540 540"><defs><style>.cls-1{fill:#e6d4e7;}.cls-2{fill:#cea6cc;}.cls-3{fill:#0d131a;}.cls-4{fill:#9b7fa6;}.cls-5{fill:#836b8d;}.cls-6{fill:#fff;}.cls-7{fill:#dbdcdc;}.cls-8{fill:#a586bc;}.cls-9{fill:#8f75a3;}</style></defs><path class="cls-1" d="M302.8,108.74a5.3,5.3,0,0,1,4.06-.76,8.13,8.13,0,0,1,4.25,1.84q4.71,3.87.38,9.33t-4.37,10.15q-.08,3.49,2.72,10.22,2.61,6-1.77,6.22t-9-6.22q-4.57-6.41-3.11-16.82,1.4-10.1,6.85-14"/><path class="cls-1" d="M365.76,243q13.32,8.7,22.59,26.15,9.84,18.72,12.25,42.71,2.29,23.35-3.87,42.84a74.53,74.53,0,0,1-13,24.88q-5.64,7.11-6.6,20.31a88.65,88.65,0,0,0,.57,17.77q.83,6,6.8,11.43A135.11,135.11,0,0,0,397,438l19.74,12.25,16.5,9.52a12.84,12.84,0,0,1,13.46,0q6.35,3.68,6.09,10.09-.25,7-6.6,9.58a20.58,20.58,0,0,1-10.72,1.08c-.43,2.83-2.29,5.06-5.59,6.66q-5.64,2.81-15.49,2.29a49.17,49.17,0,0,1-15.61-3.05q-6.28-2.48-9.07-6.41A145.14,145.14,0,0,0,378,465.87q-9.64-10.47-13.77-11-6.93,2.73-11.81,1.39c-2.88-.8-5.41-2.77-7.62-5.9q-1.71-2.34-1.45-6.6a10.12,10.12,0,0,1,3.11-7.3q0-2.91,2.47-8.31L353.32,418a44.22,44.22,0,0,0,1.59-21q-2-12.37-9.46-18.47-5.71-4.69-6.54-28.63a302,302,0,0,1,2.8-49.25q3.68-27.92,9.77-44.17,6.91-18.35,14.28-13.52"/><path class="cls-1" d="M368,444.67q.7,5.15-3.8,10.22l-17.77-18.41a9.83,9.83,0,0,1,8.12-2.85,15.18,15.18,0,0,1,8.76,3.36,11.5,11.5,0,0,1,4.69,7.68"/><path class="cls-1" d="M374.07,178.3a111.32,111.32,0,0,0,5.33,18.6q4.13,11,8.89,17.39,5.32,7.17,17.77,21.76,12.94,15.18,17.77,19.74a171.61,171.61,0,0,1,17.77,9.4q11.49,6.92,13.08,10.34A45.63,45.63,0,0,1,458,287c.89,5.5.69,9.84-.57,13a55.57,55.57,0,0,1-6.1,11.42q-4.24,6.23-7.74,7.56-6,2.22-9.9,1.2-4.95-1.2-6.28-7.17a10.26,10.26,0,0,1-6.92-1,8,8,0,0,1-4.19-5.71,10.21,10.21,0,0,1,1.08-7.05l2.92-4.06a45,45,0,0,1-4.57-8.12q-2.41-5.65-2.16-9.65-2.54-3.36-19.1-22Q380,239.22,378,235.23l-7.24-13.77a153.44,153.44,0,0,1-8.18-18.22q-3-8.19,3.93-17.39a38,38,0,0,1,7.55-7.55"/><path class="cls-1" d="M442.81,297.24l-8.7-13.4,6.29,5.27c2.7,2.46,3.89,4.11,3.55,4.95l-1.14,3.18"/><path class="cls-1" d="M444,308.91a8.56,8.56,0,0,1-5.52,4.51,9.75,9.75,0,0,1-7.49-.44q-4.19-2-4.76-7.43-4.12-3.49-5.65-10.15a83.87,83.87,0,0,0-2.6-12.38l15.8-3.55a40.48,40.48,0,0,0,.13,8.37c.34,3.77.91,6.24,1.71,7.43a11.8,11.8,0,0,1,5.14,1.65c2.37,1.35,3.71,3.05,4,5.08a10.91,10.91,0,0,1-.76,6.91"/><path class="cls-2" d="M313.21,115.66q-8.5.18-11.87,7.42-2.28,5-2.73,15.74-4.12-6.54-2.6-16.56,1.46-9.78,6.79-13.52,1.65-1.14,5.33,1.71a30,30,0,0,1,5.08,5.21"/><path class="cls-2" d="M351.48,256.49q6.91-18.35,14.28-13.52l6,4.57q-3.81,20.7.25,51.47,1.39,10.61,4.25,26.28l4.57,25.13q-3.93,7.68-12.18,21.14-6.28,11.16-6.54,17.58-.82,23.53-3.62,30.52l-2.16,4.83a39.7,39.7,0,0,0-1.84,9,8,8,0,0,0-3.62,5.65,8.89,8.89,0,0,0,1.4,6q3.18,4.83,7.81,5.46a11.27,11.27,0,0,0,8.18-2.28l12.57,12.37,14.09,13.52q6.23,6.29,18.72,7.17,13.84,1,21.84-7.1l9.45.31q1.28-.37,7.75-3.3-.9,6.11-7,8.38a22.15,22.15,0,0,1-10.15.89c-.43,2.83-2.29,5.06-5.59,6.66q-5.64,2.81-15.49,2.29a49.17,49.17,0,0,1-15.61-3.05q-6.28-2.48-9.07-6.41A145.14,145.14,0,0,0,378,465.87q-9.64-10.47-13.77-11-6.93,2.73-11.81,1.39c-2.88-.8-5.41-2.77-7.62-5.9q-1.71-2.34-1.45-6.6a10.12,10.12,0,0,1,3.11-7.3q0-2.91,2.47-8.31L353.32,418a44.22,44.22,0,0,0,1.59-21q-2-12.37-9.46-18.47-5.71-4.69-6.54-28.63a302,302,0,0,1,2.8-49.25q3.68-27.92,9.77-44.17"/><path class="cls-2" d="M378,235.23l-7.24-13.77a153.44,153.44,0,0,1-8.18-18.22q-2.8-7.74,3.23-16.31,4.69,22.22,20.57,46.71,12.44,19.17,22.27,27.48a40.39,40.39,0,0,1,8.95,10l3.18,7,2.85,10.47q2.28,8.5,4.76,12,0,7,6.22,9.27,5.83,2.22,8.57-1.4,2.6-4.07-.32-8.25-2.67-3.81-6.28-4.06-2.93-.2-3.43-7.3-.45-6.74,1.21-10,5,0,10.53,6.86t5.21,12.44q-.32,4-7.87,13.9-6.42,8.31-4.76,8.38-8.25.69-10.09-7.43a10.26,10.26,0,0,1-6.92-1,8,8,0,0,1-4.19-5.71,10.21,10.21,0,0,1,1.08-7.05l2.92-4.06a45,45,0,0,1-4.57-8.12q-2.41-5.65-2.16-9.65-2.54-3.36-19.1-22Q380,239.22,378,235.23"/><path class="cls-2" d="M444,294.06l-1.14,3.18-8.7-13.4,6.29,5.27c2.7,2.46,3.89,4.11,3.55,4.95"/><path class="cls-3" d="M311.11,111.09a7.17,7.17,0,0,0-3.93-2.1,4.8,4.8,0,0,0-3.87.51q-3,2.1-5.27,7.81A26.58,26.58,0,0,0,296,127a19.91,19.91,0,0,0,3.87,12,17.15,17.15,0,0,0,5.39,5.08c1.61.84,2.84,1,3.68.57,1.1-.64,1.15-2.22.13-4.76q-3.18-7.56-2.41-12.89.69-5,5.52-11c1.23-1.52,1.56-2.64,1-3.36l-2-1.46M302.29,108a6.64,6.64,0,0,1,5.08-.89,9.1,9.1,0,0,1,5.08,2.73,8.16,8.16,0,0,1,2.35,4.82,5.75,5.75,0,0,1-2,5q-7.42,6.73-2.09,19.55,1.33,3.18.63,5.2a3.38,3.38,0,0,1-1.52,1.84c-1.31.72-3,.6-5.08-.38a17.62,17.62,0,0,1-6.41-5.77,24,24,0,0,1-3.55-8.82,30.07,30.07,0,0,1-.32-10.79A18.64,18.64,0,0,1,302.29,108"/><path class="cls-3" d="M365.19,243.8q-3.81-2.42-7.68,3-5.58,7.68-10.22,28a316.68,316.68,0,0,0-6.16,41.57,261.62,261.62,0,0,0-.82,39.54q1.2,18.09,5.84,21.83,7.62,6.23,9.71,18.66a45.14,45.14,0,0,1-1.59,22,38.87,38.87,0,0,1-3.62,6.35,14.93,14.93,0,0,0-1.9,9.52c1.78,0,2.09.25.95.89a9.89,9.89,0,0,0-5.46,8.18,10.76,10.76,0,0,0,1.53,6.86,13.07,13.07,0,0,0,7.61,5.65q5.34,1.39,10.73-2.35c2-1.4,2.81-1.69,2.47-.89l-1.14,1.65q4.95.57,15.49,12.88a156.31,156.31,0,0,1,9.58,12.38q2.73,3.81,9.08,6.22a49.38,49.38,0,0,0,14.78,2.79q9.58.45,15-2.16c3-1.48,4.74-3.44,5.08-5.9l.19-1,.95.12a23.1,23.1,0,0,0,6.86-.12,12.38,12.38,0,0,0,6.22-2.61,9,9,0,0,0,3.11-6.91,8.7,8.7,0,0,0-1.34-5,11.4,11.4,0,0,0-4-4q-4.57-2.85-12.7-.19a12,12,0,0,0-1.9.83l-1.59.38c-.38,0-.36-.4.07-1.08l.76-1q-3.44-1.65-15.62-9-12.56-7.61-19.1-11.93l-2.16-1.46a86.31,86.31,0,0,1-11.29-8.44q-5.4-5.26-6.16-11.17a85.2,85.2,0,0,1-.57-19.23q1.2-12.63,6.79-19.61a74,74,0,0,0,12.5-23.67q6.42-19.56,4.06-43.29-2.22-22.9-11.36-41t-23-27.16m-9.4,1.71q5.15-6.91,10.54-3.43,14.42,9.4,24.05,27.93a114.23,114.23,0,0,1,12.06,42,122.46,122.46,0,0,1,.64,12.51q0,19.67-5.33,33.57-3.56,9.47-12,20.76-7.68,10.33-7.68,25.64a98.93,98.93,0,0,0,.7,13q.63,5.21,6.35,10.09,2.34,2,11.55,8.06l7.74,4.89,15.8,10.21,13.08,7.87a16.22,16.22,0,0,1,7.68-1.71,14.69,14.69,0,0,1,7.55,2,13.48,13.48,0,0,1,4.76,4.76,10.87,10.87,0,0,1,1.65,6.09,11.46,11.46,0,0,1-4.12,8.51q-4.63,3.93-13.65,3.17c-.21,2.37-2.12,4.44-5.71,6.22q-6.79,3.3-18.34,2.79a58.12,58.12,0,0,1-15.05-2.28,16.9,16.9,0,0,1-8.94-6.09q-5.85-8.13-12.19-15.36Q368,456.53,364.3,456q-6,3.11-11.3,2a14.58,14.58,0,0,1-9.07-6.16,11.5,11.5,0,0,1-1.84-5.9,13.07,13.07,0,0,1,3.42-9.9l-.06-4.19a12.4,12.4,0,0,1,1.27-4.63l2.66-4.26a19.72,19.72,0,0,0,2.48-4.5,46,46,0,0,0,2.54-14.22,35.72,35.72,0,0,0-3-14.28,28.25,28.25,0,0,0-8-11c-2.37-1.91-4-6.28-4.76-13.14a221.71,221.71,0,0,1-.83-22.85q0-12.75,1.21-26.72a333.61,333.61,0,0,1,5.83-40.11q4.83-22.08,11-30.59"/><path class="cls-3" d="M345.89,435.85q3.5-3.69,9.33-3.05a16.47,16.47,0,0,1,9.59,4.32q3.87,3.56,4.12,10t-3.87,8.38c-2.07,1-3.45,1.31-4.12.89s-.41-.91.82-1.46q5.08-2.36,5-8.25a11.11,11.11,0,0,0-3.11-8.25,13.55,13.55,0,0,0-8.31-3.94q-5.21-.57-8.25,2.6l-1.21-1.2"/><path class="cls-3" d="M423.32,466.82q7,.63,10.6,3.94a10.13,10.13,0,0,1,3.11,4.95,9.49,9.49,0,0,1-.51,6.66c-1,2.16-1.67,2.81-2.09,2s-.42-2.14,0-4a7.57,7.57,0,0,0-2.41-7.87q-3.11-2.79-9.52-3.43l-9.58.45c-1,.25-1.59.17-1.72-.26s.76-.91,2.54-1.58c2.41-.94,5.61-1.21,9.58-.83"/><path class="cls-3" d="M373.38,180.2a37.6,37.6,0,0,0-6.41,6.92q-4.2,5.83-4.19,11.23a14.09,14.09,0,0,0,.76,4.51q3.56,9.7,12.12,25.64l3.24,6.28q1.34,2.67,7.74,10.22l12.63,14.35,13.58,15.8,1.27,2,.7,3.68a19,19,0,0,0,1.84,5.9q1.53,3,2.79,3.24l1.65,7.17a6.09,6.09,0,0,0-2.09,1.46,7.88,7.88,0,0,0-1.91,5.84,7.81,7.81,0,0,0,3.94,6.85,9.91,9.91,0,0,0,6.16.76l1.07-.95.13,1.78c.64,2.83,1.91,4.76,3.81,5.77,3.21,1.7,6.9,1.49,11-.63,2-1,4.38-3.38,7.05-7.11a51.61,51.61,0,0,0,6.15-11.23,18.21,18.21,0,0,0,1-6.48,46.13,46.13,0,0,0-1.08-9.71,26.62,26.62,0,0,0-2.67-7.49q-2.4-3.93-14.59-10.78-13-6.85-15.74-8.51-3.69-2.16-17.46-18.59-11.73-14-18.47-23.17a70.7,70.7,0,0,1-8.56-16.5,107.47,107.47,0,0,1-5.52-18.22m.06-2.73,1.33-.95.32,1.65a103.84,103.84,0,0,0,5.33,18.47q4.13,10.79,8.7,17,6.21,8.5,18.15,22.66,13.51,16,17.32,18.66,2.87,2,14.54,7.36,11.49,6,16.44,12.76c1.1,1.48,2,4,2.79,7.55a49.63,49.63,0,0,1,1.14,10.53,20.34,20.34,0,0,1-1.14,7.24,58.63,58.63,0,0,1-6.22,11.8q-4.58,6.8-8.38,8.19-7.93,3-12.63.51-3-1.59-4.51-6.79a11.35,11.35,0,0,1-7-1.33,9.11,9.11,0,0,1-4.57-6.16,10,10,0,0,1,.95-7.17l3-4.19-.31-2.35a19.87,19.87,0,0,1-4.13-5.58,31.57,31.57,0,0,1-1.78-8.19l-.69-1.78-.89-1.4-4.83-5.07-9.07-9.59q-7.31-8.25-13.65-16.12a111.41,111.41,0,0,1-9.26-12.63,129,129,0,0,1-6.22-12.94q-3.75-8.51-6.48-16.06a14.52,14.52,0,0,1-.95-5.33q0-7,6.16-14.41a38.52,38.52,0,0,1,6.6-6.35"/><path class="cls-3" d="M444.33,292.16a.71.71,0,0,1,1-.13c.38.3.19.91-.57,1.84a5.72,5.72,0,0,0-1.27,3.05v1.46c-1.15-.21-1.72-.68-1.72-1.4a5.26,5.26,0,0,1,.57-2l.64-1.27q-.06-1.15-7.74-7.68l-1.34-.64.51-2.85,3.43,2.92a54.82,54.82,0,0,1,6.47,6.66"/><path class="cls-3" d="M445,300a7.89,7.89,0,0,1,1.21,4.18,10.8,10.8,0,0,1-2,6.48,10.22,10.22,0,0,1-5.52,3.81l-4.45.5a10.71,10.71,0,0,1-4.88-1.58,9.49,9.49,0,0,1-4.38-7.17,15.9,15.9,0,0,1-4.57-7,61,61,0,0,1-1.78-8l-1.4-8.95c-.21-1.06-.1-1.55.32-1.46s.89.72,1.27,1.9a56.45,56.45,0,0,1,1.84,8.19,55.85,55.85,0,0,0,1.78,7.62,15.19,15.19,0,0,0,4.38,6.28l.32.63a7,7,0,0,0,3.93,6,9.09,9.09,0,0,0,6.41,1,7.48,7.48,0,0,0,5.52-4.19,9.86,9.86,0,0,0,.51-5.52,6.49,6.49,0,0,0-2.79-4.32,10.6,10.6,0,0,0-4.32-1.9l-1-.32-1-1.14q-2.34-4.83-1.58-14.22a7.35,7.35,0,0,1,.95-3.49q.83-1.46.89,2.22l.12,8.25a17.11,17.11,0,0,0,2,7q5.83,1.28,8.12,5.15"/><path class="cls-1" d="M341.83,166.05q15.87,14.65,17.52,21.26a41.37,41.37,0,0,1,1.2,14.15q-.32,3.94-1.58,10.86-1.71,12.75,8,28.49,19,30.66,22.59,56.24,3.68,25.76-7.55,51.66-4.12,9.59-16.44,18.4a98.81,98.81,0,0,1-30.21,14.41q-42.72,12.38-83.71-7.17-39.22-18.72-50.27-71.46-6.4-30.72-3-84.29,2.55-40.56-1.84-60.86-6-28.06-27.61-43.73-11.35-8.25-22.21-7.3-10.09.95-18.28,9.52-7.93,8.19-12.37,21.64a89.83,89.83,0,0,0-4.51,29.2q.19,37.44,16.76,64.35,4.5,7.23,16.5,23.1a315.06,315.06,0,0,1,18.28,26.15q8.63,14.22,9.32,25.52.65,10-5.07,15.54Q161.9,327,153,326.3q-9.27-.75-18.6-7.74-17.7-13.2-32.94-48.17a216.74,216.74,0,0,1-18.53-79q-1.53-37.56,17.9-65.94Q121,95.93,154.41,91.29q28.89-4,52,13.7a77.48,77.48,0,0,1,26.66,36.31q2.16,6,4.95,20.5l5.39,28.11q7.5,38.22,15.3,52.17a37.92,37.92,0,0,0,7.49,9.4A24.78,24.78,0,0,0,277,257.63q14.34,3.24,22.91-19.54,3.69-9.72-2.15-30.66l-9.9-28.75q-11.24-31.67-3.11-39.6,6.66-6.6,25.06,3.3,15.5,8.31,32,23.67"/><path class="cls-2" d="M341.83,166.05q15.87,14.65,17.52,21.26a43.28,43.28,0,0,1,1.08,15.55l-1.78,12.06q-7-4-21.2-.89-13.14,2.92-19.1,8.19a32.29,32.29,0,0,0-7.49,10.28q-1.33,2.73-4.76,11.74-5.52,14.67-13.84,18.47-7.68,3-11.42-4.7,11.75-.43,19.1-19.92,3.69-9.72-2.15-30.66l-9.9-28.75q-11.24-31.67-3.11-39.6,6.66-6.6,25.06,3.3,15.5,8.31,32,23.67"/><path class="cls-4" d="M168.88,114q-11.35-8.25-22.21-7.3-10.09.95-18.28,9.52-7.93,8.19-12.37,21.64a89.83,89.83,0,0,0-4.51,29.2q.19,37.44,16.76,64.35,4.5,7.23,16.5,23.1a315.06,315.06,0,0,1,18.28,26.15q8.63,14.22,9.32,25.52.65,10-5.07,15.54Q161.9,327,153,326.3q-9.27-.75-18.6-7.74-17.7-13.2-32.94-48.17a216.74,216.74,0,0,1-18.53-79q-1.53-37.56,17.9-65.94Q121,95.93,154.41,91.29q28.89-4,52,13.7a77.48,77.48,0,0,1,26.66,36.31q2.16,6,4.95,20.5l5.39,28.11q7.5,38.22,15.3,52.17a34.46,34.46,0,0,0,11.87,12.76q9,5.71,16.75,1.27l3,22.47a118.37,118.37,0,0,0,5.33,22.15c0,.72,1.18,3,3.55,7q4.32,7.17,8.57,10.53,13.14,10.54,18.66-20.62,8.19-46.28,28.18-46.9,10.41-.39,24.88,13.2,10.78,23.67,11.68,43.66A79.91,79.91,0,0,1,382,348.71q-5.6,10.79-18,19.8a94.23,94.23,0,0,1-30.08,14.22q-40.81,11.41-82.25-8.38-39.22-18.72-50.27-71.46-6.4-30.72-3-84.29,2.55-40.56-1.84-60.86-6-28.06-27.61-43.73"/><path class="cls-5" d="M258.94,242.53A34.76,34.76,0,0,0,270.81,255q8.9,5.46,16.5,1.14.9,6-.95,8.76-1.71,2.6-.63,7.55-17-5.32-22.72-12.06-5.4-6.35-4.07-17.83"/><path class="cls-5" d="M168.88,114q-11.35-8.25-22.21-7.3-10.09.95-18.28,9.52-7.93,8.19-12.37,21.64a89.83,89.83,0,0,0-4.51,29.2q.19,37.44,16.76,64.35,4.5,7.23,16.5,23.1a315.06,315.06,0,0,1,18.28,26.15q5.89,9.78,6.91,12.12a38,38,0,0,1,2.67,14.92q-5.77,9.9-21.52-2.86a101.4,101.4,0,0,1-21.51-24.24Q116,259.47,107.13,227.3q-11.55-41.9-6.09-77.75,2.91-19.49,12.88-30.4Q125,107,145.66,104.49q32.1-3.81,52.36,33.13,10.08,18.4,12.12,61.43,1.14,23.43.89,61.38.83,24.81,15.1,53.43,16.32,32.7,39.8,45.13,26.65,14.16,58,12.12Q357.52,369,382,348.71q-5.6,10.79-18,19.8a94.23,94.23,0,0,1-30.08,14.22q-40.81,11.41-82.25-8.38-39.22-18.72-50.27-71.46-6.4-30.72-3-84.29,2.55-40.56-1.84-60.86-6-28.06-27.61-43.73"/><path class="cls-1" d="M311.43,115.15l24.37,10.92,2.54,7.23q2.79,6.6,7.24,7.68l7.55-2.67a55,55,0,0,1,9.9-2.53q6.41-.83,10.79,6.72a46.29,46.29,0,0,1,4.7,13.65q1.91,9.14-5.14,29.26-6.86,19.74-12.7,23.54c-.89.6-1.88.47-3-.38l-3.36-3.11q-5.28-4.5-11.94-1.14l-7.93,5.14c-3.94,2.37-7,3.43-9.27,3.17q-5.13-.57-12.63-8.37-8.62-9.15-9.77-19.42,3.1-9.53.82-21.33-2.22-11.23-7.42-15.93-4.5-4.12-9.65-.32-4.12,3-7.55,9.78-4.12-11.49-.57-18.92,2-4.19,8.63-9.2,4-3,12.38-.76a87.62,87.62,0,0,1,14.28,5.9q1.57-3.87.44-10.53-.95-5.85-2.73-8.38"/><path class="cls-2" d="M287.06,128.92q4-3,12.38-.76a87.62,87.62,0,0,1,14.28,5.9q1.57-3.87.44-10.53-.95-5.85-2.73-8.38l25.71,6.28.31,4.38a25,25,0,0,1-.31,5.65q-2.16,10.92-14.86,6.73l-9-3.43a69.54,69.54,0,0,0-10.72-3.3q-7.11-1.34-9,.51-2.47,2.42,5.08,9.52,3.3,3.1,6.22,10.79a60.77,60.77,0,0,1,3.87,20.81q.19,8.13,6.22,19.74t10.6,12.82a14.6,14.6,0,0,0,9.33-.63,17.72,17.72,0,0,0,5.71-3.87c1.53-1.53,3.83-2.46,6.92-2.8q5.32-.63,8.38,2.54a12.68,12.68,0,0,0,4.06,3.18,5.94,5.94,0,0,0,4.95,0,16.3,16.3,0,0,1-4.19,4.88c-.89.6-1.88.47-3-.38l-3.36-3.11q-5.28-4.5-11.94-1.14l-7.93,5.14c-3.94,2.37-7,3.43-9.27,3.17q-5.13-.57-12.63-8.37-8.62-9.15-9.77-19.42,3.1-9.53.82-21.33-2.22-11.23-7.42-15.93-4.5-4.12-9.65-.32-4.12,3-7.55,9.78-4.12-11.49-.57-18.92,2-4.19,8.63-9.2"/><path class="cls-3" d="M288,185.09,287,179q-5.78-16.38-6.41-26.53l1.77-1q.45,10.22,6.41,27l2,5.45,9.58,28.06q4.46,16.37.51,26.46-7.68,19.54-19.42,20.5-6.86.51-14.09-5.27a38.31,38.31,0,0,1-9.45-11.1q-5.6-10-10.54-30.09-3-12.24-7.62-37l-3.8-19.54a123.52,123.52,0,0,0-3.75-14.28q-7.42-21.08-26.08-35.55-23-17.83-51.54-13.9a73.81,73.81,0,0,0-29.7,10.92A80.33,80.33,0,0,0,101.61,126a99.15,99.15,0,0,0-13.9,30.47,114.83,114.83,0,0,0-3.87,34.84,215.43,215.43,0,0,0,19,80q15.17,33.83,32.11,46.58,8.7,6.54,17.39,7.49t14-3.87q6.15-5.64,5.07-16.31t-9.2-24q-4.32-7.17-9.77-14.79l-9.71-13.07q-16.58-21.78-22.41-35-9.58-21.58-9.71-51.28-.06-20.31,6.6-35.74,6.73-15.62,18.47-21.64-13,3.3-7.62.38a46.94,46.94,0,0,1,12.19-4.38,31.31,31.31,0,0,1,14,0,41.36,41.36,0,0,1,15.24,7.56q21.82,16.43,27.92,44.68,4.38,20.43,1.84,60.73-3.24,52,2.73,81.94Q212.62,354.8,252,373.52q20.75,9.9,40.55,11.17,17.78,1.08,42.84-4.5a75.11,75.11,0,0,0,27.74-12.63q12.94-9.33,18.28-20.76,11.61-24.93,7.74-50.07-3.69-24.32-23-55.41-6.85-11.1-8.12-19.55a43.33,43.33,0,0,1,.57-13.51l3.68-.32a30,30,0,0,0-1.46,15.29q1.33,7.43,8,18.16,20.31,32.81,24,56.86,4.13,26.91-10.35,53.44-5.26,9.65-17,18.6a75.36,75.36,0,0,1-26.85,13.2q-24.89,6.21-45.51,4.5-21-1.77-42.71-12.12Q210.27,356.7,199,302.57q-6.34-30.52-3.17-82.26,2.59-40.74-1.4-60.67-5.72-28.68-27.1-44.24-7.87-5.64-13.39-7a26.67,26.67,0,0,0-12.25.19q-28.25,15-28,61.24.06,28.89,10.47,50.14a128.66,128.66,0,0,0,10.66,17.65L147.18,254l10.41,13.45a177.11,177.11,0,0,1,10.47,15.17q8.19,13.46,8.19,25.13-.08,10.92-7.05,17.27-5.89,5.32-16.12,4.25a38.6,38.6,0,0,1-19.42-7.94q-19.48-14.66-33.89-46.58Q83.08,237.9,81.05,192.71a126.63,126.63,0,0,1,3.42-36,96.5,96.5,0,0,1,13.65-31.48A85.28,85.28,0,0,1,122,101.57a73.55,73.55,0,0,1,30.28-11.49q30.08-4.18,53.31,11.74a74.73,74.73,0,0,1,28.49,37Q238,149.68,242.82,175q5.15,27.85,7.05,36.11,4.69,20.31,10.15,30a30.83,30.83,0,0,0,8.82,9.77q6.54,4.83,13,4.32a13.12,13.12,0,0,0,8.82-4q3.43-3.56,7.37-12.69,4-9.33-.7-26.85-1.39-5.33-9.27-26.53"/><path class="cls-3" d="M350.27,249.83a22,22,0,0,1,17.27,1.9,32.58,32.58,0,0,1,9.07,7.74,23.77,23.77,0,0,1,4,6.67q1.27,3.42-1.9-1.34a31.77,31.77,0,0,0-9.59-9.52,22.15,22.15,0,0,0-17.64-3.11q-8.06,2-14.34,13.78t-9.78,31.79q-4.38,24.83-14.22,23.93-5.64-.51-12.24-9.65-5.2-7.23-6.16-11V301a106.15,106.15,0,0,1-4.32-16.37q-1-5.15-2.28-15.61l-2-11.93,2.16-1.27,1.59,12.94q1.26,10.35,2.22,15.43a112.45,112.45,0,0,0,4.31,16.18l.07.19q.75,3.3,6,10.47,6.48,9,11.49,8.82,7.68-.31,11.55-22.46,3.69-20.7,9.9-32.82,6.34-12.3,14.85-14.78"/><path class="cls-3" d="M338.34,159.89a65.79,65.79,0,0,1,2.54,7.05,21.27,21.27,0,0,1,.63,7.87,29.52,29.52,0,0,1-2.72,8.88,46.67,46.67,0,0,0-3.3,9.21c-.51,2.32-.94,3.57-1.27,3.74s-.49-1-.32-3.55A36.46,36.46,0,0,1,336.82,182c1.56-3.76,2.33-6.49,2.28-8.18a36.31,36.31,0,0,0-2.35-13.08c-.71-1.73-.8-2.71-.25-2.92s1.16.43,1.84,2"/><path class="cls-3" d="M349.89,160.21q.89-4.32,1.46.83a45.11,45.11,0,0,1,.07,9.2,13.92,13.92,0,0,0,1.58,7.17l2.54,5,1.4,4a41.9,41.9,0,0,1,1.2,8.19c.05,1.1-.17,1.41-.63.95a3.56,3.56,0,0,1-.95-2.29L355,186.8q-1.57-5.13-3.11-7c-1.18-1.48-2-4.17-2.47-8.06a35.88,35.88,0,0,1,.44-11.55"/><path class="cls-1" d="M392.16,19.44q6.29,5.72,4.76,8.06A80.49,80.49,0,0,0,391.59,38q-3.61,8.57-3.81,13.13a48.86,48.86,0,0,1,3.05,9.33A12.58,12.58,0,0,1,390,68a30.54,30.54,0,0,1-4.38,6.41l-4.25,4.95q1.59,5,1.46,14-.06,9.51-2.16,13.2-1.83,3.17-7.49,7.42l-6.6,4.64q-2.08,6.92-3.93,9.45a11.22,11.22,0,0,1-6.22,3.68l-10.73,2.23c-4.44.67-7.27.74-8.5.19a20.51,20.51,0,0,1-3.49-2L332.25,131l-1.52,1a2.75,2.75,0,0,1-3.18-.69l-4.95-6.35c-2.41-3.22-3.89-5-4.44-5.27l-3.43-4.12q-8.37-3.69-14.28-6.73-11.18-5.71-14.09-9.9a25.23,25.23,0,0,1-4.19-13.2A38.13,38.13,0,0,1,284.84,69q8.25-21.08,5-32.82a55.72,55.72,0,0,0-5.71-12.63l-5.14-8.37a4.67,4.67,0,0,1-.26-4.45,6.44,6.44,0,0,1,3.94-3.17q3.48-1.33,11.29-1.27,8.38.06,9.21,2.22a78.14,78.14,0,0,0,4.12,8.44q3.5,6.23,5.78,8.38,7.74-3.62,23-4.13,19.8-.69,31.1,7.3a15.61,15.61,0,0,0,6.6-3.17q3.49-2.54,4.25-4.7a28.72,28.72,0,0,1,1.65-4.88q1.34-2.8,3.56-2.29,3.17.71,9,6"/><path class="cls-2" d="M286.55,13a60.68,60.68,0,0,0,4.06,8.63Q297.79,35,297,41.34L293.6,65.2q-2,15.74-.7,23.23,1.34,7.93,10.72,16.18A127.42,127.42,0,0,0,321.08,117a47,47,0,0,1,12.56,10.79q4.38,5.58,7.49,7.23a9.18,9.18,0,0,1-6.66-1.84L332.25,131l-1.52,1a2.75,2.75,0,0,1-3.18-.69l-4.95-6.35c-2.41-3.22-3.89-5-4.44-5.27l-4.13.57a8.56,8.56,0,0,1-.82-2.85c-.38-1.86-.76-2.88-1.14-3q-9.84-4.5-14-6.73-9.14-4.95-11.74-8.69a25.23,25.23,0,0,1-4.19-13.2A38.13,38.13,0,0,1,284.84,69q8.25-21.08,5-32.82a55.72,55.72,0,0,0-5.71-12.63l-5.14-8.37a4.67,4.67,0,0,1-.26-4.45,6.44,6.44,0,0,1,3.94-3.17,18.21,18.21,0,0,1,4.44-.89q-1.77,2.22-.51,6.41"/><path class="cls-2" d="M377.94,20.58a28.72,28.72,0,0,1,1.65-4.88q1.34-2.8,3.56-2.29,2,.45,5.84,3.43a3.46,3.46,0,0,0-3.81.7,18.06,18.06,0,0,0-2.41,4.12Q379,29.48,373,32c-1,.46-2.62-.21-4.82-2-3.55-3-3.91-3.47-1.08-1.53a15.61,15.61,0,0,0,6.6-3.17q3.49-2.54,4.25-4.7"/><path class="cls-6" d="M379.21,82q1.59-1.59.32,6.35-1.33,7.74-2.47,9.71l-3.11,4.5a12.41,12.41,0,0,1-6.16,3.87Q366.71,94.53,379.21,82"/><path class="cls-7" d="M379.47,87a56.56,56.56,0,0,1-9.65,8A73.78,73.78,0,0,1,374,88.56,50.3,50.3,0,0,1,379.21,82c.64-.64.72,1,.26,5"/><path class="cls-6" d="M313,70.72q4,.14,10.6,11,6.79,11.16,7.81,20-2.79,2.79-11.8-1.59-8.64-4.24-10.73-8.38-1.71-3.56.44-12.5,2.1-8.7,3.68-8.57"/><path class="cls-7" d="M313,70.72q3.69.14,9.71,10.22t7.68,19.1q-2-7.35-8.82-13.9l-11.1-10.91c1-3.09,1.86-4.59,2.53-4.51"/><path class="cls-8" d="M316.25,73.13l3.31,4.45a46.73,46.73,0,0,1,5.2,9.26,20.46,20.46,0,0,1-2.22,9.46q-2.35,4.13-5.52,1.46-3.5-2.85-3.62-9.58a43.74,43.74,0,0,1,2.85-15.05"/><path class="cls-9" d="M324.76,86.84l-.25,2.92a67.2,67.2,0,0,0-5.65-6.34L314.48,79a42.37,42.37,0,0,1,1.77-5.91l3.31,4.45a46.73,46.73,0,0,1,5.2,9.26"/><path class="cls-8" d="M375.72,86a35.22,35.22,0,0,1-2.09,11.61q-2.47,7.31-5.59,4.19A32.07,32.07,0,0,1,372.36,91a43.26,43.26,0,0,1,3.36-5"/><path class="cls-9" d="M375.28,90.78l-4.63,3.3a48.08,48.08,0,0,1,3.42-5.78L375.72,86l-.44,4.76"/><path class="cls-3" d="M340.94,81.19c-.21-1.26,0-1.94.51-2s.85.49,1,1.59a35.93,35.93,0,0,1,.57,8.5,36.07,36.07,0,0,1-2.73,10.41c-.3.77-.61,1.06-.95.89s-.38-.74,0-1.58a29.4,29.4,0,0,0,1.9-10.16,36.66,36.66,0,0,0-.32-7.62"/><path class="cls-3" d="M307.88,87.41a46.57,46.57,0,0,1,1.27-11.23,30,30,0,0,1,2.6-7.93L313.59,70q-1.08,1.85-2.79,8.38a49.8,49.8,0,0,0-1.72,8.95q-.06,2.28-.63,2.16t-.57-2.1"/><path class="cls-3" d="M310.54,94.78c-.72-.85-1-1.4-.76-1.65s.72.12,1.65,1.14a22.06,22.06,0,0,0,5.14,4.31,39.8,39.8,0,0,0,7.81,3l2.6,1-2.6-.13a26.62,26.62,0,0,1-7.87-2.67,20,20,0,0,1-6-5.07"/><path class="cls-3" d="M343,128.6a.81.81,0,0,1-.38-.95c.13-.34.51-.4,1.15-.19a3.63,3.63,0,0,1,1.39.89l.64,1.14c.21.43.21.66,0,.7s-.49,0-.83-.25l-2-1.34"/><path class="cls-3" d="M378.14,93.76A57.45,57.45,0,0,0,379,82.15a2.16,2.16,0,0,1,.64-1.59l.82.06L380.42,86a48.65,48.65,0,0,1-1.21,7.75c-.33,1.1-.65,1.67-.95,1.71s-.38-.51-.12-1.65"/><path class="cls-3" d="M367.6,106.26a13.5,13.5,0,0,0,3.49-1.71,13.81,13.81,0,0,0,3.55-3.11c.85-1.14,1.34-1.65,1.46-1.52l-.76,1.71a12.42,12.42,0,0,1-3.81,4,13.33,13.33,0,0,1-3.8,1.9l-.13-1.27"/><path class="cls-3" d="M373.44,96.49A42.21,42.21,0,0,0,375,87.86q-5.28,7.68-6.35,13.71a1.62,1.62,0,0,0,1.59.44c1.1-.46,2.15-2.3,3.17-5.52m1.84-10.85,1-1.27V86a43.29,43.29,0,0,1-1,9.39q-1.45,6.34-4.63,7.68a2.74,2.74,0,0,1-3-.89l-.19-.19v-.32a32.14,32.14,0,0,1,4.32-10.85,40.11,40.11,0,0,1,3.49-5.2"/><path class="cls-3" d="M308.58,65.9q-.33-1.2,2.79.76,4.44,2.79,10.79,12.44,7.54,11.49,9.26,21.58c.38,2.11-.12,1.44-1.52-2a97.61,97.61,0,0,0-11-20.44,58.47,58.47,0,0,0-8.69-10,4.89,4.89,0,0,1-1.65-2.28"/><path class="cls-3" d="M321.4,87.29a10.86,10.86,0,0,1-.77,4.31c-.55,1.23-1.2,1.84-2,1.84s-1.4-.61-1.91-1.84a10.17,10.17,0,0,1-.82-4.31,10.63,10.63,0,0,1,.82-4.38c.51-1.19,1.14-1.78,1.91-1.78s1.41.59,2,1.78a11.36,11.36,0,0,1,.77,4.38"/><path class="cls-3" d="M372.49,95.47,371.41,99c-.43,1-.81,1.41-1.14,1.33s-.53-.59-.58-1.65a15.47,15.47,0,0,1,.38-3.68,19.26,19.26,0,0,1,1.15-3.49c.46-.93.84-1.38,1.14-1.34s.53.64.57,1.65l-.44,3.68"/><path class="cls-6" d="M318.86,83.92a3.61,3.61,0,0,1-.57,2.1,1.82,1.82,0,0,1-1.46.89,1.66,1.66,0,0,1-1.4-.89,3.8,3.8,0,0,1,0-4.19,1.66,1.66,0,0,1,1.4-.89,1.82,1.82,0,0,1,1.46.89,3.6,3.6,0,0,1,.57,2.09"/><path class="cls-3" d="M394.26,30a5.27,5.27,0,0,0,.5-6.54,23.19,23.19,0,0,0-5.26-5.27c-2.75-2.16-4.76-3.36-6-3.62-1.7-.42-3.07,1.13-4.13,4.64l-.57,1.71a12.25,12.25,0,0,1-3.3,5,9.43,9.43,0,0,1-6.6,2.8Q373.63,33,373.76,34t-1.65-.45l-3.05-2.66a23.82,23.82,0,0,0-4.82-3.11q-12.32-6.1-29.2-5.59-13.4.31-20.63,3.68l.7,1,3.11,2.66c.76.55,1.08,1,.95,1.27s-.5.26-1.27,0q-3.16-1.08-6.53-5.46a36.91,36.91,0,0,1-6.1-10.66,16.67,16.67,0,0,0-3-5.9c-.8-.85-3.68-1.33-8.63-1.46s-8.53.21-10.73,1a5.69,5.69,0,0,0-3.61,3.05,3.88,3.88,0,0,0,.44,3.36l1.91,3.11L286.49,26a51.36,51.36,0,0,1,4.19,9.9q1.83,6.46-.45,16.82l-5,17q-3.36,11.1-2.92,17.77a22.25,22.25,0,0,0,4.19,11.42q4.18,6,25.07,14.41,1.71.63,2.6,4,1.21,4.75,1.4,16.12l3.62,2c2.45,1.43,3.76,2.45,3.93,3s-.65.57-2.47-.19l-7.36-3.49q-18.79-9.39-29.64-2.28a14.89,14.89,0,0,0-6.29,8.88,23.33,23.33,0,0,0,.7,12.95,22.17,22.17,0,0,1,4.95-5.9,15,15,0,0,1,7-3.88,7.5,7.5,0,0,1,6.79,2.23q3.69,3.36,6.16,10.72A48.65,48.65,0,0,1,305.47,173a26.65,26.65,0,0,1-1,5.65,18.92,18.92,0,0,0-.76,6.15q.63,8,9.27,17.2,7.74,8.25,12.06,8.63a14.13,14.13,0,0,0,6.22-1.2,31,31,0,0,0,6.34-3.3q3.24-2.16,4.38-2.73,5-2.28,8.13-1.52a15.21,15.21,0,0,1,4.76,3,10.17,10.17,0,0,0,4.31,2.28,2.59,2.59,0,0,0,3-1.33,116.06,116.06,0,0,0,10.41-22.21,94.6,94.6,0,0,0,4.83-19.17q1.08-7.74-3.49-17.83-4.83-10.8-10.73-10a38,38,0,0,0-6.66,1.46l-5.72,2a33,33,0,0,1-7.1,2.28l-3.05.13c-.51-.26.32-.81,2.47-1.65-1.6-.38-3.13-2-4.56-4.95a17.55,17.55,0,0,1-6.48-3.49l-3.62-.39a8.33,8.33,0,0,1-3.3-2.34l-3.11-4.38a29.92,29.92,0,0,0-3.3-4.32,5.52,5.52,0,0,1-1.65-2.22c-.08-.55.41-.51,1.46.13q1.27.83,4.57,5.07l3.62,4.7c1.57,1.57,3,2.24,4.19,2l-1.08-1.84c-2.24-3.47-3.93-5.41-5.08-5.84-.8-.29-1.22-.63-1.27-1s.3-.47,1-.26a10.65,10.65,0,0,1,3.62,2.22l2.47,3q4.38,6.09,10.09,7t15.49-3a13.75,13.75,0,0,0,6.09-4.76,25.38,25.38,0,0,0,3.37-7.75c1.31-4.69,2-6.39,2.15-5.07a13.38,13.38,0,0,1-.44,3.8q9.13-3.93,12.44-11,1.9-4,1.84-13.64-.13-10.79.25-12.57-12.56,13-13.71,27a3.21,3.21,0,0,1-.69,2.22c-.47.29-.72-.57-.77-2.61q-.31-10.22,8.26-21.51,1.2-1.59,7.8-8.82,4.89-5.34,6.35-8.51,1.33-2.85.19-8.57A26,26,0,0,0,387,51.56l-2.67-4.26c-.93-1.44-1.16-2.11-.7-2,1.27.17,2.42,1.29,3.43,3.37a54.61,54.61,0,0,1,3.75-12.25A26.46,26.46,0,0,1,394.26,30m3.49-5.14a4.4,4.4,0,0,1,0,3.42l-2,3.37a42.87,42.87,0,0,0-3.94,8q-2.85,7-3,11.43,3.5,6.54,3.81,11.61a11.16,11.16,0,0,1-.82,5.4,30.67,30.67,0,0,1-3.56,5.39A30.2,30.2,0,0,1,384,77.89q-.83,4.13-.31,15.17.51,9.52-1.53,14.09a18.91,18.91,0,0,1-5.52,7.36,28.6,28.6,0,0,1-9.26,4.64q-1.91,6.46-4.07,9.14a15.35,15.35,0,0,1-6.6,4.31q-10.21,3.87-15.74,3.49a8.66,8.66,0,0,0,4.64,3.75L348,139l7.42-2.73a38.6,38.6,0,0,1,8.57-1.9q7.31-.57,12.7,11.23t2.85,22.09a172.74,172.74,0,0,1-8,25.7,92.1,92.1,0,0,1-7,13c-1.9,2.91-3.76,4.06-5.58,3.42l-3.81-2.16-3.49-2.47a8.87,8.87,0,0,0-2.86-1.65q-1.9-.45-6,1.46a33.11,33.11,0,0,0-4.12,2.6,65,65,0,0,1-6.79,4.13q-4,2-6.73,1.71-4.89-.51-12.88-8.31-8.5-8.39-10.67-16.12a10.52,10.52,0,0,1-.38-5.27l1.34-4.7q1.32-6.34-.7-16.12-2.16-10.16-6.22-14.85a7.85,7.85,0,0,0-2.92-1l-3.94-.38q-2.16.39-7.55,6.22l-4.89,5.71q-3.3-9.13-2.28-16.56t5.77-11.36q11-9.07,33.32,1.9.64-2.22,0-8.5a35.26,35.26,0,0,0-1.77-9,90.67,90.67,0,0,1-16.19-6.73q-9.07-4.76-12.06-8.82a20,20,0,0,1-4.37-11.81q-.13-5.52,3.42-17.07l5.72-19.49q2.4-9.9,1-14.78a43.42,43.42,0,0,0-4.12-9.4L280,19.31l-2.86-3.93a5.51,5.51,0,0,1-.38-4.63A5.86,5.86,0,0,1,278.62,8a15.17,15.17,0,0,1,3-1.46Q285,5.23,293.15,5.41q8.82.2,11,2.29,2,1.91,3.68,7.11a25.55,25.55,0,0,0,5.46,9.39,64.3,64.3,0,0,1,21.58-4.44q18.4-1,32.75,7.49a14.46,14.46,0,0,0,5.46-2.54,8.31,8.31,0,0,0,3-3.24l1.59-5c1-3.22,2.86-4.53,5.65-3.94a20.53,20.53,0,0,1,7.23,3.75,21.88,21.88,0,0,1,7.18,8.57"/><path class="cls-1" d="M291.06,249.83q9.27-5.66,16.75.38,6.93,5.52,11,19.55A117.28,117.28,0,0,1,322.92,301a149.68,149.68,0,0,1-3.87,35.29,63.43,63.43,0,0,1-10.6,22.21l-7.3,9.78q-4.63,6.21-7.68,11.23-22.91,37.63-25.32,76.6A151.22,151.22,0,0,0,271.57,497q11.06,5.78,7.24,17-2.73,7.93-12.31,9.9t-15.05-3.68l-6.41.69-7.74,1.72q-3.11,6.79-12.44,8.19-10.34,1.51-17.58-6.8-5.52-6.35-2.54-14.85t11.36-10.28a251.66,251.66,0,0,0,12.63-26q6.28-14.91,8.83-19.74,5.33-10.16,10.34-36.17,5-26.28,3.36-35.93c-.42-2.49-2-6.75-4.82-12.75a84.39,84.39,0,0,1-6.22-19.93q-4.58-24.25,12.69-55.6,16.18-29.5,38.15-42.9"/><path class="cls-2" d="M272.21,265.76q-9.72,26.46-12.12,49.25-2.29,22.08,1,52.23,2.29,20.63-.06,33.38-2.48,13.08-14.79,44.81-4.12,10.67-11.55,37.19-5.32,19-7.74,19.74a22.16,22.16,0,0,0-11.68,8.06q-6.79,9,2.47,20.06A19.44,19.44,0,0,1,207.28,524q-6-6.86-4.19-12.94,2-7.11,14.6-15.17,1.4-.88,8.25-17,8.44-19.8,11.62-25.77,5.33-10.16,10.34-36.17,5-26.28,3.36-35.93c-.42-2.49-2-6.75-4.82-12.75a84.39,84.39,0,0,1-6.22-19.93q-3.56-18.66,6.47-42.78a133.27,133.27,0,0,1,25.52-39.79"/><path class="cls-2" d="M274.49,520.13a18.18,18.18,0,0,1-11.86,4.13q-7,.06-11.18-4.06l-6.41.69-7.74,1.72-.38-3.3a17.26,17.26,0,0,0-1.4-5.59c1-.93,3.62-1.75,7.94-2.47,4.69-.85,7.36-.49,8,1.08q2.1,5,8.51,7.1,6.15,2,14.53.7"/><path class="cls-1" d="M268,463.08a8.45,8.45,0,0,1,4.63,2.92,15.8,15.8,0,0,1,3.62,6.34q2.73,9.39-6.22,16.63l-2-25.89"/><path class="cls-2" d="M270,489l-.38-4.82a20.22,20.22,0,0,0,6.53-3.62A18.16,18.16,0,0,1,270,489"/><path class="cls-3" d="M306.61,250.52q-6.74-4.82-15,.2-22,13.38-38,42.64-16.81,30.92-12.31,54.78a83.22,83.22,0,0,0,3.49,13.13q1.2,3.38,3.62,8.57l2.34,5.33a26.82,26.82,0,0,1,1.59,5.65q1.65,9.9-3.3,36.05t-10.54,36.69q-2.85,5.52-7.17,15.93l-6.53,14.85q-4.26,9.2-6.16,11.68l-6.6,5.64q-4.89,3.94-6.28,7.94a17.11,17.11,0,0,0-1,7.68,12.1,12.1,0,0,0,2.73,6.72q6.34,7.31,17.13,5.78a15.7,15.7,0,0,0,6.86-2.73,14.56,14.56,0,0,0,4.38-4.82c.8-1.36.84-3.28.13-5.78-.6-1.9-.7-2.81-.32-2.73,1.23.34,2.11,1.65,2.66,3.94l.38,3.3a39.76,39.76,0,0,1,11.05-1.65c-1.74-2.2-2.41-3.58-2-4.13.25-.34.72-.12,1.39.64l3.11,3.61a12.08,12.08,0,0,0,6.35,3.37,18,18,0,0,0,8.31-.06q9.46-2.24,11.17-8.38a14.85,14.85,0,0,0-.19-9.52,11.64,11.64,0,0,0-6.72-6.92,14.39,14.39,0,0,0-6.92-.76c-1.95.21-2.79.08-2.54-.38.63-1.1,2.14-1.7,4.51-1.78l3.36.19a161.51,161.51,0,0,1,0-59.47q5.65-29.33,23-57.75a87.5,87.5,0,0,1,6.54-9l6.48-8.12a97.67,97.67,0,0,0,7.67-11.17A52.92,52.92,0,0,0,318,336a141,141,0,0,0,2.67-51.85q-3.49-25.95-14.09-33.64m-16.12-1.58q9.45-5.77,17.32-.07t12.25,18.6q4.51,13.65,4.26,33.76-.26,21.58-1,27.11-2.85,20.69-13.84,32.43-4,4.25-7.8,9a66.2,66.2,0,0,0-7.3,10.28A238.07,238.07,0,0,0,276.84,422q-7,23-7,43.35,0,9.19.38,15.17a107,107,0,0,0,2.1,15.23l.12.7q9.46,5.07,9.78,12.82.25,7.54-4.64,11.67-3.87,3.3-10.53,4.19-10.35,1.33-15.93-3.87l-6.1.7-7,1.59a15.68,15.68,0,0,1-4.89,5.58,19.12,19.12,0,0,1-7.68,3.24q-12.81,2.67-20.75-5.52a13.34,13.34,0,0,1-3.36-6.67,17.42,17.42,0,0,1,1.46-10.91,24.47,24.47,0,0,1,5.77-7.87l7.49-5.78q2.16-1.65,5-9.14l4.83-12.95,10.6-24.56a202.26,202.26,0,0,0,9.52-34q3.87-19.61,3.87-33.7c0-1.1-.81-3.3-2.41-6.6l-5.14-10.47q-7.37-15.67-6.41-25.7,2.47-26.08,18.91-52.24,15.74-25.06,35.67-37.25"/><path class="cls-3" d="M267.83,464l.32-1.84a11.76,11.76,0,0,1,5.33,2.66,15.62,15.62,0,0,1,4.5,6.48,14.89,14.89,0,0,1,.26,8.88,13.43,13.43,0,0,1-7.68,9.46l-1.14-1.46a16.57,16.57,0,0,0,6-8.57,12.53,12.53,0,0,0,0-6.6,14.48,14.48,0,0,0-3.3-6.16,8.07,8.07,0,0,0-4.32-2.85"/><path class="cls-1" d="M294.93,179.82l-.51.32q-7.94,5-20.94,22.4-11.75,15.68-15.42,24.25-3.24,7.49-8.89,33t-5.27,31.29q.32,4.69,6.16,9.27l8.38,6.53q2,2.55,2.85,9.9a84.52,84.52,0,0,0,1.14,8.57,32.81,32.81,0,0,1,2.35,5.78,15,15,0,0,1,0,5.84q-.63,3.36-5.2,5.2a13.43,13.43,0,0,1-8.38.7,18.91,18.91,0,0,1,1,6.92,10,10,0,0,1-3.68,6.72,10.28,10.28,0,0,1-9.08,2.54A9.84,9.84,0,0,1,232.8,355q-4.89-2.53-10.73-10.85-5.52,10.47-17.58,5.58-4.19-1.65-7.24-7.61a102.78,102.78,0,0,1-4-10.6,25.71,25.71,0,0,1-1.65-8.51,11.63,11.63,0,0,1,2.15-6.91L202,305.93q6.48-8.44,8.57-15.29,2.34-7.68,13.52-35.8,10.22-25.64,15.17-37,3.48-8.19,14.4-24.05l17.27-24.38a62.44,62.44,0,0,1,9.71-14.91q6.21-7.23,9.71-7.81,3.93-.63,5.65,2.41t3.42,13.27q1.47,8.5-1.33,13.83a8.42,8.42,0,0,1-3.11,3.62M212.55,317.93q-4.12,3.42-3.81,4.88l1.59,4.7L214,328a10.94,10.94,0,0,1,6,3.23l-.82-10.59-.7-5.65q-1.65-.57-5.84,2.92m26,9.77q-1.2,7.37,1.46,9.9l3.75-.06a7.15,7.15,0,0,1,3.49,1.2,23.62,23.62,0,0,1-1.65-5.26c-.17-2.8,1-5.21,3.68-7.24q-3.12-4.5-5.52-5.58l-2.73-.13c-.85.21-1.67,2.6-2.48,7.17"/><path class="cls-2" d="M299.94,169.29q-.82-6.6-5.52-9.78t-9.07-.25q-4.77,3-20.44,24.94Q248.6,207,245.24,216.82q-5.2,15.1-10.41,39.8-6.42,30.47-3.43,37.89,2.92,7.17,4.63,8.82a89.86,89.86,0,0,0,7.62,6A32.84,32.84,0,0,1,252.91,322q3,7.11.45,8.5a8.91,8.91,0,0,0-3.94,3.68q-1.46,2.93-.38,7.56-3.36-2.36-3.42-7.3a10,10,0,0,1,3.23-7.94,4.43,4.43,0,0,0-.95-1.84l-2.09-2.41a12.58,12.58,0,0,0-4.64-3.49,12.84,12.84,0,0,0-5.45-1.2c-1.87.12-3.6,1.58-5.21,4.38a24.88,24.88,0,0,0-2.86,11.93q-.06,7.36.77,9.45c.46,1.1,2,2.84,4.69,5.21A55.32,55.32,0,0,0,240,354a22.76,22.76,0,0,0,9.07,2.79q-8.5,3.24-14.91-.32-1.65-.88-7.11-6.22a31.89,31.89,0,0,1-4.57-5.9q-2.41-4.06-2.41-6.54l.13-12.25a23.34,23.34,0,0,0-1.08-6.41,40.81,40.81,0,0,0-2.42-7q-1-2.16-6,2.48c-2.92,2.75-4.74,4.9-5.46,6.47-.46,1-.17,3.41.89,7.17s2.07,6,3.05,7c.38.38,1.58.38,3.61,0s4.21.36,6.41,2.22a34.78,34.78,0,0,0,2.29,7.18l-1,2a11.7,11.7,0,0,1-5.33,3.61q-4.18,1.59-9.71-1-5.33-2.41-7-6.16a101.57,101.57,0,0,1-3.75-9.64A74.73,74.73,0,0,1,192,324q-.9-5.91,7.17-13.52,2.73-2.61,6.28-9.08l4.89-9.58q.82-1.59,6.47-18.79,5.59-17,8.57-22.53,2.16-4.07,7.87-19.23,5-13.51,8.19-18l11.36-17.33q8.11-12.57,11.55-16.82,3.11-3.87,9.2-15.17,5.83-10.84,7.74-13a13.37,13.37,0,0,1,7.43-4.38q4.44-.88,7,1.72c1.06,1.05,2.23,3.49,3.5,7.29q2.53,7.81.69,13.78"/><path class="cls-3" d="M294,179.38c1.52-1,2.26-1.1,2.22-.38a2.78,2.78,0,0,1-1.27,1.9q-8.76,6.4-21.07,22.79-11.24,14.91-15,23.48-3.24,7.37-8.82,32.81t-5.27,31q.19,3.11,3.43,6.15l6.28,4.7a27.75,27.75,0,0,1,5.78,5.14,10.38,10.38,0,0,1,1.84,5.78l.38,7a19.58,19.58,0,0,0,1.46,5.78,25.42,25.42,0,0,1,2.22,5.58,15.68,15.68,0,0,1-.19,5.71,7.29,7.29,0,0,1-1.46,3l-2.67,2.54a13.71,13.71,0,0,1-9.39,2,11.68,11.68,0,0,1,.76,7,10.11,10.11,0,0,1-3.11,5.53c-1.73,1.52-4.4,2.39-8,2.6q-6.42.44-9.91-3.37L228.29,353l-6.22-7.23a12.78,12.78,0,0,1-7.43,6c-3,.81-6.53.42-10.47-1.14q-4.44-1.79-7.36-7.24a68.71,68.71,0,0,1-4.63-13.07c-1.15-4.19-1.7-7-1.65-8.51a9.83,9.83,0,0,1,2.47-6.22L202,303.77q6.48-9.13,7.68-13.39,2.16-7.8,13.14-35.92,10.09-25.89,15-37.13,2.73-6.35,16.75-26.27l15.55-22.66q6-12,8.06-15,6-9,12.06-8.89l1.53.13a7.83,7.83,0,0,1,2.09,1.08c.64.42.57.57-.19.44l-3.55.2q-5.6,2-11.17,10.66-3,4.69-7.24,12.75l-15.49,22.47q-13.38,19.43-16.18,25.9-4.64,10.65-14.91,37Q214.26,283,211.85,290.83q-2.85,9.33-15.74,25.07a11.34,11.34,0,0,0-2.66,5.07c-.38,1.91-.07,4.42,1,7.56A138.63,138.63,0,0,0,199.28,342c1.53,3.17,3.35,5.23,5.46,6.16a15,15,0,0,0,9.21,1.27,10.5,10.5,0,0,0,7.29-5.65l1.59-.13a80.33,80.33,0,0,0,10.73,10.85,14.89,14.89,0,0,0,7.49,2.61q4.44.38,6.53-1.53a9.51,9.51,0,0,0,3.56-6,16.37,16.37,0,0,0-.83-6.41l1.08-1.14a10.82,10.82,0,0,0,8.76-1.27,8.09,8.09,0,0,0,3.05-4.19q1.77-4.69-1.08-10.66a17.53,17.53,0,0,1-1.46-5.9l-.83-6.86a13.28,13.28,0,0,0-2.09-5.65,27.27,27.27,0,0,0-5.52-4.69,58.14,58.14,0,0,1-6.6-5.21,11.31,11.31,0,0,1-3.62-7.17q-.31-5.52,5.77-31,6.1-25.2,9.4-32.88,4.24-9.71,14.85-24.18,12.57-17.13,22-22.91"/><path class="cls-3" d="M210.46,322.31l.69,4.12,3.37.7a17,17,0,0,1,4.31,2,106.14,106.14,0,0,0-1.71-12.82,26,26,0,0,0-4.76,3.49c-1.35,1.19-2,2-1.9,2.48m6.21-8.83c.22-2.24.49-3.21.83-2.92a10,10,0,0,1,1.14,2.8l1.08,3.55.89,5.78.44,11.29c.09,2.71-.19,3.18-.82,1.4l-1-3.49c-1.82-2.16-4.5-3.24-8.06-3.24-.17,1.61-.46,2.6-.89,3s-.61-.17-.57-1.53a15.14,15.14,0,0,0-.88-4.76l-1-2.66c-.17-.85.79-2.25,2.86-4.19l6-5"/><path class="cls-3" d="M241.68,321.23a18.12,18.12,0,0,0-2.47,7.61c-.39,3.39,0,5.88,1.27,7.49A10.38,10.38,0,0,1,245,337q-2-6.8,3.24-10.86a18.4,18.4,0,0,0-3.87-3.42,9,9,0,0,0-2.73-1.46m8.95,5.46c.63,1.18.68,2,.13,2.47s-1.06,0-1.65-1.33a8.43,8.43,0,0,0-2.22,5.9,16.39,16.39,0,0,0,1.07,4.44l-1.33,1.27a5.9,5.9,0,0,0-2.73-1.08l-3.11-.06c1.31,1.52,1.67,2.33,1.08,2.41s-1.9-1.14-3.55-3.81a11.24,11.24,0,0,1-1.59-4.12,12.88,12.88,0,0,1,.51-5.52,29.39,29.39,0,0,1,2.28-6.29,3.18,3.18,0,0,1,2-1.65q1.59-.44,3.87,1.08a16.73,16.73,0,0,1,5.27,6.29"/><path class="cls-3" d="M246,335.44q.44-.94,1.08.57a19.38,19.38,0,0,0,2.22,3.81,6.4,6.4,0,0,0,5.2,2.8c1.23-.05,2,.08,2.22.38s.09.55-.51.88a6.28,6.28,0,0,1-5.45.07,7.8,7.8,0,0,1-3.37-2.79,7.2,7.2,0,0,1-1.52-3.3,5.49,5.49,0,0,1,.13-2.42"/><path class="cls-3" d="M220.86,330.87l.26,6.1a11.84,11.84,0,0,0,.95,4.57,24,24,0,0,0,3.49,5.39q1.71,2.93.06,2.29c-1.1-.38-2.32-1.55-3.68-3.49a16.68,16.68,0,0,1-2.47-4.57,10.55,10.55,0,0,1-.51-3l-.13-9c.09-2.41.3-3.89.64-4.44.46-.76.93,1.29,1.39,6.15"/></svg>