<svg id="Layer_1" data-name="Layer 1" xmlns="http://www.w3.org/2000/svg" viewBox="0 0 540 540"><defs><style>.cls-1{fill:#211814;}.cls-1,.cls-10,.cls-11,.cls-12,.cls-13,.cls-14,.cls-15,.cls-16,.cls-17,.cls-18,.cls-19,.cls-2,.cls-20,.cls-21,.cls-3,.cls-4,.cls-5,.cls-6,.cls-7,.cls-8,.cls-9{fill-rule:evenodd;}.cls-2{fill:#a2d6d4;}.cls-3{fill:#f4e97d;}.cls-4{fill:#deedea;}.cls-5{fill:#c56713;}.cls-6{fill:#51a4ae;}.cls-7{fill:#f4e97e;}.cls-8{fill:#d0c45f;}.cls-9{fill:#aa4117;}.cls-10{fill:#b1ccc7;}.cls-11{fill:#231816;}.cls-12{fill:#261e1b;}.cls-13{fill:#27201d;}.cls-14{fill:#2c2724;}.cls-15{fill:#33322f;}.cls-16{fill:#231a17;}.cls-17{fill:#af2125;}.cls-18{fill:#fefefe;}.cls-19{fill:#fdfdfd;}.cls-20{fill:#a8a4a3;}.cls-21{fill:#fbfbfa;}</style></defs><path class="cls-1" d="M75.94,194.89l-5.07-4.71a39,39,0,0,1-8-9.6,3.79,3.79,0,0,0-2.47-1.84c-7.5-2.31-11.8-8.93-10.37-16.07a30.36,30.36,0,0,1,2.71-7.07,6.78,6.78,0,0,0,.66-3.09c0-7.61-.62-15.23.08-22.83,1.06-11.35,1.68-22.79,5.86-33.58,4.48-11.54,11.43-21.54,19.47-30.87,17.08-19.81,38.76-31.61,64.24-36.3a144.93,144.93,0,0,1,69.59,3.72A109.94,109.94,0,0,1,265.21,67.1c10.42,12.28,16.63,26.49,19.33,42.34a131.19,131.19,0,0,1,1.87,18.33,2,2,0,0,0,1.18,2.1c4.87,2.44,8.27,6.41,11,11a4,4,0,0,0,2,1.86c23.21,9.38,41.67,24.78,56.58,44.69a204.06,204.06,0,0,1,11.46,17.89c2.69,4.5,5.68,8.82,7.81,13.62,7.76,17.47,13.47,35.49,15.12,54.66.91,10.56,1.66,21.11,1.05,31.72-.58,10.24-.45,20.52-2.18,30.69a159.72,159.72,0,0,1-9.13,31.22,9.47,9.47,0,0,0,3-2.08,39.61,39.61,0,0,0,8-10.79c2.65-5.26,5.22-10.58,8.17-15.67,11.15-19.28,26.9-33.31,48-40.89,8.22-2.95,16.89-2.32,25.44-2.16a42.33,42.33,0,0,1,13.59,2.51c15,5.4,26.42,14.9,34.07,29C532.29,347,535.3,368,529.08,389.47c-5.43,18.8-18.07,32-36.89,38.24-8.49,2.8-17.49,2.72-26.32.69a3.11,3.11,0,0,0-2,.08c-9,3.61-18.45,4.92-27.95,6.06a202.91,202.91,0,0,1-36.47.74c-10.52-.62-20.95-2-31.36-3.52-2.88-.44-5.79-.63-8.68-1-1.12-.15-1.58.17-1.73,1.3-1.12,8.17-2.93,16.2-4.65,24.25-.73,3.45-.12,6.83.16,10.22.49,6,1.14,12,1.66,18,.27,3.17.07,3.25-3,2.8-5.45-.8-10.89-1.63-16.29-2.8A18.82,18.82,0,0,0,321.31,487c-4.06,2.48-8.18,4.84-12.17,7.41-1.74,1.12-3.07.87-4.66-.22-4.37-3-8.11-6.71-12.08-10.15a4.15,4.15,0,0,0-2.88-1.14c-5.58-.05-11.16-.19-16.74-.3-2.17,0-2.37-.35-1.84-2.49.9-3.63,2.88-6.75,4.83-9.85a5.63,5.63,0,0,0,.65-5.29,132.19,132.19,0,0,1-6.83-36.1c0-1-.16-1.47-1.32-1.51-15-.48-29.49-3.85-44-7-1.34-.29-1.87-.05-2.46,1.11A124.81,124.81,0,0,0,215,437.14a8.74,8.74,0,0,0-.36,4.67c.86,4.54,1.67,9.09,2.57,13.63,1.07,5.39.72,8.27-6.71,10.26A164.06,164.06,0,0,1,189,469.49c-18.12,2.36-36.3,3.94-54.61,3.57-2.46-.05-2.82-.6-1.7-2.79.91-1.75,2.39-3.08,3.7-4.71-4.11-.82-8.14-1.19-12-2.39-2.08-.65-2.23-1-1.14-2.91a66.05,66.05,0,0,1,9.42-12.62c.8-.84.81-1.22.07-2.1-5.3-6.37-10.08-13.08-12.22-21.25a48.93,48.93,0,0,1,1-29.37,180.66,180.66,0,0,1,15.27-32.42,1.85,1.85,0,0,0-.25-2.58c-8.13-10-15.88-20.27-21-32.21a227.92,227.92,0,0,1-10.72-32.42c-.66-2.51-.65-5.56-2.15-7.38s-4.68-1.18-7.09-1.83a115.15,115.15,0,0,1-38.07-18.44c-12.75-9.25-24.49-19.5-34.35-31.83a7.31,7.31,0,0,0-1.56-1.37c-2.95-2.09-5.78-4.33-8.55-6.66-3.33-2.8-3.37-3.2-.7-6.56,3.15-4,6.35-7.92,9.81-11.63.83-.88,1.06-1.45.18-2.48a45.4,45.4,0,0,1-7-12.55c-1.16-2.85-.68-3.73,2.38-3.88a200.39,200.39,0,0,1,20.36,0,269.49,269.49,0,0,1,28.21,2.57C69.35,193.74,72.38,194.28,75.94,194.89Z"/><path class="cls-2" d="M93,205.85a134.4,134.4,0,0,1-21.74-17.17,34.77,34.77,0,0,1-7-8.58,2.93,2.93,0,0,1,1.93.38c14.34,5.12,28.44,10.81,41.33,19,4.32,2.76,8.42,2.76,13,1.18a124.38,124.38,0,0,1,23.19-5.81c9-1.27,18.16-1.85,27.27-2.43,10.18-.65,20.4-.89,30.56-1.88a17.08,17.08,0,0,0,6.37-1.77,5.57,5.57,0,0,0,2.93-4.06c-.48.15-.73.15-.81.26-2.36,3.57-6.14,4.07-9.88,4.36-6.89.53-13.79.82-20.69,1.26-13.6.87-27.24,1.3-40.68,3.77a143.91,143.91,0,0,0-17.8,4.7c-1,.32-2.06.63-3.08,1a9.8,9.8,0,0,1-8.68-1.17C94.87,190,79.47,183.55,63.57,178.23c-1.5-.5-3.06-.83-4.53-1.39-6.26-2.4-9.76-9.64-7-15.72a33.57,33.57,0,0,0,2.64-15.67,170.21,170.21,0,0,1,3.21-39.53c2.16-11,7.58-20.65,14-29.72,9.89-14.05,22.1-25.68,37.24-33.9a114.83,114.83,0,0,1,44.59-13.57C172.44,27,191.07,27.8,209.26,33c22.32,6.4,41.26,18.27,56.08,36.36,9.8,12,15.46,25.75,18,40.93a129.76,129.76,0,0,1-1.82,52.83c-.13.55-.31,1.09-.44,1.65-1.11,4.61-3,8.26-8.32,9.47-3.08.7-5.91,2.57-8.78,4-1.16.59-1.82.56-2.68-.53a110.06,110.06,0,0,0-11.46-12.19,52.2,52.2,0,0,0-4.82-3.7c-1.15-.83-1.85-.58-2.67.49a44.59,44.59,0,0,0-7.12,13.79,19.56,19.56,0,0,1-10,12.07,40.88,40.88,0,0,0-9.53,7.54c-1.74,1.74-1.8,2.5-.36,4.43,1.32,1.77,2.71,3.5,4.08,5.24,0,1.23-1.07,1.5-1.88,1.89A94.59,94.59,0,0,1,189,216.25c-7.48,1-15,1.64-22.51,2a187,187,0,0,1-64.86-8.52A47.26,47.26,0,0,1,93,205.85Z"/><path class="cls-2" d="M496.6,369.06a24.88,24.88,0,0,0-16-12,38.41,38.41,0,0,0-16.05-.11c-5.07.72-10.22.4-15.27,1.45a67.47,67.47,0,0,0-30.25,14.74c-4.86,4.09-9.11,8.78-13.58,13.25a85.36,85.36,0,0,1-34.13,21A59.86,59.86,0,0,1,361,410c-.9.12-1.59,0-2-.84-.61-2.14,0-4.39-.6-6.54-.18-.7.44-.82.86-1.05,7.61-4.05,12.08-10.23,12.76-18.95a2.88,2.88,0,0,1,.65-1.52,92.42,92.42,0,0,0,7-10.66,3.12,3.12,0,0,1,1.27-1.35c5.29-2.84,8.89-7.34,11.62-12.49,3.62-6.82,6.74-13.93,10.89-20.45,10.6-16.66,24.88-29.09,43.36-36.42,5.2-2.06,10.67-2.55,16.21-2.8,10.31-.48,20.37.19,29.87,4.82a60.3,60.3,0,0,1,27.52,26.07c10.42,19.28,12.81,39.53,7.75,60.73a43.34,43.34,0,0,1-5.4,12.48c-1.09-.13-1.1-1.09-1.34-1.81a51.32,51.32,0,0,0-8.31-16.11,48.5,48.5,0,0,0-13-11.52A12.56,12.56,0,0,1,496.6,369.06Z"/><path class="cls-2" d="M242.22,251.89a83.79,83.79,0,0,1-8.69-17.25c-2.77-7.61-5.56-15.22-7.67-23a6.2,6.2,0,0,0-1.57-2.29c-2.62-3.26-5.17-6.58-7.81-9.83-.94-1.14-.73-1.91.27-2.88A80,80,0,0,1,231.09,186a7.32,7.32,0,0,0,3.2-4c2.3-6.11,4.66-12.18,8.28-17.68.89-1.36,1.54-1.57,2.9-.54a90.94,90.94,0,0,1,15,15.07c1.19,1.45,2.1,1.73,3.8.81A94.87,94.87,0,0,1,276.7,174c1.26-.48,1.92-.39,2.54,1a77.44,77.44,0,0,1,5.26,17.4,3,3,0,0,0,.14.75c.26.5,0,1.56.89,1.37s.4-1,.35-1.64c0-.37-.08-.74-.12-1.13.78,0,1.2.54,1.71.88a74.54,74.54,0,0,1,25.43,30.4c3.93,8.4,6.4,17.06,5.88,26.41-.09,1.71-.3,3.41-.46,5.11a1.61,1.61,0,0,1-1.59.83c-2.93.13-5,1.72-6.56,4a24.92,24.92,0,0,1-18.29,11.07A51.23,51.23,0,0,1,273,269.1a76.47,76.47,0,0,1-27.26-13.5A26.84,26.84,0,0,1,242.22,251.89Z"/><path class="cls-3" d="M219.1,333.32c-9.64.13-19.27-.24-28.91-.45a2.17,2.17,0,0,1-2.37-1.59,293,293,0,0,1-16.26-62.73c-.3-2-.31-4.05-.65-6-.24-1.35.15-1.61,1.42-1.56,7.1.25,14.2.15,21.3,0,13.83-.25,27.61-1,41.14-4.18a59,59,0,0,0,5.87-1.56,2.07,2.07,0,0,1,2.79,1,68.39,68.39,0,0,0,22,20.09,40.27,40.27,0,0,0,11.85,4.49c1.27.26,1.44.51.74,1.63-4.25,6.83-8.59,13.6-12.63,20.56-5.27,9.1-10.06,18.46-14.65,27.92a2.52,2.52,0,0,1-2.55,1.68C238.5,332.76,228.8,333.05,219.1,333.32Z"/><path class="cls-2" d="M50.75,260.65a101.19,101.19,0,0,1-13.5-11.37,121.43,121.43,0,0,1-11.16-12.2c-2.46-3.14-5.81-5.06-8.74-7.55-1.45-1.22-2.9-2.46-4.41-3.62-1.15-.89-1.2-1.7-.29-2.85,3.49-4.44,7-8.85,10.91-12.93,1.23-1.29,1.24-2.22.11-3.55-3.17-3.7-5.21-8.06-7.09-12.51-.59-1.39-.5-1.94,1.26-2,10.41-.62,20.78,0,31.16.69a233.06,233.06,0,0,1,27.11,3.59,7.81,7.81,0,0,1,3.54,1.6c13.31,10.69,27.71,19.36,44.5,23.48.9.22,1.23.58,1.23,1.52,0,14.94-2.46,29.37-8.82,43a4.61,4.61,0,0,1-2.38,1.09,87.53,87.53,0,0,1-14.5,1.75,139.09,139.09,0,0,1-25.38-1.31,108,108,0,0,1-16.87-3.68A25.71,25.71,0,0,1,50.75,260.65Z"/><path class="cls-4" d="M313.48,304.77c-.17-5.88,1-11.59,2-17.33,1.51-8.88,2.93-17.75,3-26.8,0-3.19,1.33-6.27,1.58-9.52a53.64,53.64,0,0,0-4.55-25.55c-6.19-14.56-15.61-26.45-28.92-35.14A3.7,3.7,0,0,1,285,188a69.12,69.12,0,0,0-4.76-14,3.2,3.2,0,0,1-.08-2.89c3.72-8.53,4.91-17.64,5.91-26.78a126.5,126.5,0,0,0,.48-13.47,23.66,23.66,0,0,1,7.82,6.2c5.64,6.87,8.05,14.83,8.09,23.6,0,5.51-.29,11,.35,16.53.7,6.12,2.88,11.46,7.8,15.52A112.05,112.05,0,0,1,330,212.49c7.16,9.72,12.56,20.24,14.47,32.27a88.31,88.31,0,0,1,.59,20.68c-.64,8-.92,16.08-2.29,24-1.11,6.42-2.95,12.7-3.94,19.15a26.49,26.49,0,0,0,4.11,19c3,4.61,7,8.36,10.45,12.56A102,102,0,0,1,368,363.89a35,35,0,0,1,1.72,23.61c-1.61,6.19-5.94,10.12-11.59,13.15-.34-1.75-.64-3.33-.95-4.91,4-8.58,2.76-17.05-.72-25.38a53.83,53.83,0,0,0-12.45-17.78c-4.49-4.39-9.12-8.61-13.59-13a60.09,60.09,0,0,1-8.57-11.35c-3.38-5.4-6.37-11-7.72-17.27C313.73,308.9,313.8,306.82,313.48,304.77Z"/><path class="cls-2" d="M271.88,404.49c1.75-12.52,5.9-24,15-33.13a34.6,34.6,0,0,1,23-10c11.63-.71,22.52,1.49,31.47,9.58,5.57,5,9,11.53,12,18.29,4.17,9.48,4.63,19.52,4.36,29.64a24.51,24.51,0,0,1-.49,6.21c-1.42,2.14-3.62,3.33-5.76,4.52A71.1,71.1,0,0,1,325,437.72a107.85,107.85,0,0,1-15.35.79c-7.5-.17-14.64-1.51-20.52-6.63a61.19,61.19,0,0,1-16.68-22.56A8.67,8.67,0,0,1,271.88,404.49Z"/><path class="cls-5" d="M351.18,335.57c-1.91-2-3.76-4.1-5.48-6.3-5.44-6.95-6.95-14.62-5.16-23.25,1.5-7.24,3.67-14.35,4.29-21.77.41-4.92.94-9.83,1.28-14.75a142.34,142.34,0,0,0,.19-20.13,63.45,63.45,0,0,0-5.68-21.54A92.33,92.33,0,0,0,324.75,204l-1-1.19c3.74,0,7.26-.24,10.74.05,8.12.69,16.25,1.49,24.3,2.93,2.55.46,5.06,1.14,7.61,1.58,2.23.38,3.5,1.78,4.54,3.61,5,8.75,8.48,18.1,11.77,27.57a150.66,150.66,0,0,1,7.72,37.07,54.83,54.83,0,0,1,.32,5.87c.06,3.83-1.37,7.29-2.8,10.7a98.35,98.35,0,0,1-17.72,27.9c-4.94,5.49-10.17,10.59-16.44,14.53C353,335.15,352.25,335.88,351.18,335.57Z"/><path class="cls-6" d="M359,409.17c1,.91,2.07.39,3,.19a82,82,0,0,0,36.31-17.23,147.86,147.86,0,0,0,12.06-11.56c8.95-9.34,19.11-17,31.72-20.83A62.78,62.78,0,0,1,464.58,357c-17.83,5.28-25.75,22.07-24.16,38.78a42.67,42.67,0,0,0,2.15,11.15c3.5,9.27,9.54,16.18,18.82,20,.33.14.65.33,1.1.56-5.68,2.36-11.52,3.4-17.38,4.41a180.44,180.44,0,0,1-30.25,2.49,274.27,274.27,0,0,1-28.64-1.6c-8.69-.9-17.27-2.67-26-3.25-1.66-.11-2.12-.75-1.85-2.37C359.37,421.22,359.21,415.19,359,409.17Z"/><path class="cls-3" d="M315,281.62c-.85,5.43-1.85,10.85-2.49,16.3-1.08,9.11-.83,18.18,1.78,27.08a36,36,0,0,0,3.9,8.81,119.22,119.22,0,0,0,11.58,15.95c.87,1.8-.24,3.25-1.09,4.55a22.3,22.3,0,0,1-5.9,5.84,1.05,1.05,0,0,1-1.05.25c-4.87-.38-9.73-.84-14.61-.14a40.74,40.74,0,0,0-17.33,6.79c-.67.46-1,.28-1.43-.14-12.08-10.93-24.87-21.08-36.23-32.8-.63-.65-1-1.15-.5-2.13a409.06,409.06,0,0,1,26.82-47.66c.06-.1.19-.16.29-.24a2.76,2.76,0,0,1,1.83.3,32.77,32.77,0,0,0,14.19,2.94,31.38,31.38,0,0,0,17.76-5.18,5.12,5.12,0,0,1,1.79-1C314.69,281.06,315.14,281,315,281.62Z"/><path class="cls-3" d="M116.22,270.05A111,111,0,0,0,123.07,252c.25-.94.61-.86,1.33-.57,14,5.63,28.67,7.7,43.5,9.21,1,.1,1.55.21,1.68,1.44a274.52,274.52,0,0,0,16.55,68.45c.19.53.39,1.06.56,1.61,0,.1,0,.24-.1.55-4.59-.22-9.2-.42-13.81-.66-9.75-.51-19.43-1.66-29.11-2.9a2,2,0,0,1-1.62-.75c-9.64-13-19.49-25.92-27.67-40a3.08,3.08,0,0,1-.08-2.4c1.16-3.93.94-8,1.35-12A22.46,22.46,0,0,1,116.22,270.05Z"/><path class="cls-6" d="M181.76,398.87c9.78,6.95,19.9,13.32,31,17.91a72.13,72.13,0,0,0,7,2.36c1.17.35,1.37.75.78,1.83A134.39,134.39,0,0,0,214,435.91c-1.27,3.26-.66,6.35-.09,9.51.72,4,1.51,8.08,2.33,12.11a4.73,4.73,0,0,1-2.44,5.45c-3,1.81-6.35,2.12-9.62,2.72a350.81,350.81,0,0,1-35.94,4.68c-.94.08-1.84.55-2.81.28,0-.56.59-1,0-1.71-6.14-7.09-13.22-12.89-22.07-16.27a23,23,0,0,0-9.29-1.66,2.47,2.47,0,0,1-2.15-.47,8.29,8.29,0,0,1,2.44-2.62c1.19-.77,1.74,1.22,3.25,1-1.32-1.45-2.56-2.71-3.69-4.07-4.65-5.63-9-11.49-11.31-18.52a6.68,6.68,0,0,1-.2-.91c.79-.18,1.3.36,1.86.75,7,4.87,14.79,7,23.22,5.55a34.6,34.6,0,0,0,16.26-7.87,56.78,56.78,0,0,0,17.51-24.19A1.74,1.74,0,0,1,181.76,398.87Z"/><path class="cls-3" d="M216.43,384.3a218.06,218.06,0,0,1-22.06-37.42c-1.89-4.13-3.59-8.34-5.34-12.43,3.84,0,7.5,0,11.15,0,15.86.24,31.71.07,47.55-.66a4.29,4.29,0,0,1,3.67,1.39c11,11.41,23.33,21.26,35.1,31.78,1.31,1.17,1.34,1.72,0,2.89-2.64,2.3-4.58,5.22-6.66,8-4.14,2.81-8.95,3.78-13.67,4.95a93.58,93.58,0,0,1-22.57,2.47c-5.25,0-10.51-.06-15.76,0-3.23.05-6.43-.58-9.66-.43A2.71,2.71,0,0,1,216.43,384.3Z"/><path class="cls-6" d="M496.6,369.06A49.19,49.19,0,0,1,521.82,399a3.71,3.71,0,0,0,.92,2c-6.78,11-15.79,19.54-27.92,24.51A37.61,37.61,0,0,1,483.55,428a56.49,56.49,0,0,1-16.05-.57c-12.37-2.47-23-13.3-25-25.86a48.28,48.28,0,0,1-.74-13,31,31,0,0,1,12.92-10.57c5.9-2.64,12.17-2.78,18.47-2.33a26.16,26.16,0,0,1,5.8.92,20.35,20.35,0,0,1,13.38,12c-.1.48-.86.6-.64,1.49a10.82,10.82,0,0,0,5.25-5.38,17.45,17.45,0,0,0,.43-13.44C497.11,370.47,496.85,369.76,496.6,369.06Z"/><path class="cls-6" d="M271.88,404.49a11.1,11.1,0,0,0,1.2,5.11c4.41,9.68,10.59,18,19.43,24a25,25,0,0,0,12.86,4,93.71,93.71,0,0,0,10.05.29c12.22-.51,24.1-2.53,35.07-8.36a69.92,69.92,0,0,0,6.77-4.52,222.42,222.42,0,0,1-3.67,22.08c-1.1,5.58-2.76,11.07-2,16.89s1.21,11.58,1.77,17.38c.09.88,0,1.77,0,2.66-1.09.11-1.75-.65-2.47-1.24A77,77,0,0,0,332.23,472a42.92,42.92,0,0,0-15.73-3.29c-10.65-.34-21.28-.16-31.77,2.13a33.89,33.89,0,0,0-6.83,2.3c-.71.32-1.43.93-2.26.22a4.16,4.16,0,0,1,.48-1c2.59-2.93,2.19-6,1.05-9.49a121.89,121.89,0,0,1-6.25-43.38A143.34,143.34,0,0,1,271.88,404.49Z"/><path class="cls-2" d="M181.76,398.87c-.21,2.6-1.46,4.83-2.67,7-4.49,8.15-10.26,15.24-18,20.5-6.14,4.18-12.89,7-20.48,6.18-6.67-.7-13-2.67-18.23-7.18a44.29,44.29,0,0,1-2.12-17.78c.39-6.69,2.6-12.87,5.11-19a208.83,208.83,0,0,1,12.48-25.39c.94-1.64,1.83-1.87,3.42-1.05a25.8,25.8,0,0,1,6.94,4.94c4,4.11,7.89,8.24,11.86,12.34A190.83,190.83,0,0,0,181.76,398.87Z"/><path class="cls-7" d="M147.51,364.52c-2.75-1.93-5.5-3.8-8.86-4.61-1.54-.36-2.87-3.19-2.62-4.87,1.21-8.11,3.78-15.86,6.32-23.62.3-.9.7-1.1,1.65-1A404.55,404.55,0,0,0,186,334c1,0,1.59.16,2,1.23,6.55,17.27,15.6,33.18,26.11,48.3-.16,1-1,.78-1.58.72a208.29,208.29,0,0,1-24.95-4.11A144,144,0,0,1,153,367.51,34.73,34.73,0,0,1,147.51,364.52Z"/><path class="cls-7" d="M227.77,222.56c1.19,3.34,2.4,6.66,3.55,10a106.71,106.71,0,0,0,10.22,21,99.61,99.61,0,0,1-13.64,3.25c-19.5,3.25-39.16,3.63-58.8,2.5a146.75,146.75,0,0,1-42-8.24c-3.43-1.25-3.39-1.34-2.64-4.9a150.14,150.14,0,0,0,2.13-15.24c.79-1.23,1.7-.43,2.49-.06a106.51,106.51,0,0,0,48.5,9.81,78.24,78.24,0,0,0,42.74-13.88,44.52,44.52,0,0,0,5.37-4.51C226.39,221.6,227.27,221,227.77,222.56Z"/><path class="cls-5" d="M367.12,205.88c-5.3-.86-10.37-1.83-15.51-2.47-9.24-1.16-18.48-2.22-27.8-2.12a3.83,3.83,0,0,1-3-1.2,107.31,107.31,0,0,0-9.2-8.24c-5.07-4-7.12-9.56-7.59-15.76a129.79,129.79,0,0,1-.24-13.09c.15-6.32-.49-12.62-3.4-18.92C330.5,156.67,351.7,178.14,367.12,205.88Z"/><path class="cls-8" d="M227.77,222.56c-.51-.75-1-.72-1.63-.08C216,232.16,203.5,237.33,190,240a87.85,87.85,0,0,1-22.67,1.19,105.1,105.1,0,0,1-36-8.72c-1.45-.65-2.78-2.09-4.67-1.49,0-2.53.09-5.07,0-7.6,0-1.11.42-1.28,1.38-1.06a138.15,138.15,0,0,0,30.93,3.13c20.09,0,39.76-2.71,58.69-9.72,2.08-.76,4.05-1.8,6.07-2.71.44-.2.9-.63,1.16.22C225.82,216.31,226.8,219.43,227.77,222.56Z"/><path class="cls-8" d="M147.51,364.52c4.28,1.57,8.29,3.73,12.38,5.7,10.14,4.88,20.85,7.93,31.8,10.29,6,1.29,12,2.19,18,2.94,1.4.17,2.92.87,4.38.09,2.95,4.2,5.87,8.42,8.87,12.58a2,2,0,0,1,.16,2.25c-2.44,5.56-5,11.07-6.92,16.86-.49,1.51-1.3,1-2.16.65C206.7,413,199.94,409,193.22,405c-14-8.48-25.88-19.5-37-31.43C153.39,370.46,150.42,367.52,147.51,364.52Z"/><path class="cls-2" d="M275.64,473.31a1.8,1.8,0,0,0,.74-.06c6.84-3.6,14.36-4.06,21.83-4.85a138.82,138.82,0,0,1,18.8-.25c11.69.36,21.69,5.4,31.06,11.91,1.82,1.26,3.52,2.68,5.28,4,.65,1.73-.06,2.09-1.7,1.85-5.32-.77-10.64-1.64-15.91-2.72A20.38,20.38,0,0,0,320.45,486c-4.05,2.48-8.14,4.91-12.17,7.41a2.23,2.23,0,0,1-2.76-.09c-4.41-2.91-8.15-6.64-12.09-10.12a5.4,5.4,0,0,0-3.89-1.53c-5.76.09-11.53,0-17.47,0A20.09,20.09,0,0,1,275.64,473.31Z"/><path class="cls-9" d="M351.18,335.57a50.14,50.14,0,0,0,11.61-8.45,103.38,103.38,0,0,0,22.89-30.93,64.53,64.53,0,0,0,5-14.66c.67,2.79.41,5.64.69,8.46,1.39,13.83-2.54,26.67-7.45,39.33-3.6,9.28-7.45,18.43-13,26.76-.67,1-1.41,1.95-2.07,2.95s-1.21,1-1.77-.19a120.17,120.17,0,0,0-7.36-12.41A134.27,134.27,0,0,0,351.18,335.57Z"/><path class="cls-8" d="M270,410.31a137.27,137.27,0,0,0-.41,14.05c0,1.59-.53,1.85-2,1.79-9.58-.4-19-2.13-28.37-3.93a197.8,197.8,0,0,1-20.51-4.74c-1.4-.43-1.73-.89-1.19-2.33,2-5.4,4.37-10.65,6.62-16,.37-.87.74-1.14,1.69-.79,11.13,4,22.67,6.2,34.36,7.79a69.53,69.53,0,0,0,7.73.88c1.93.05,2.43.76,2.08,2.48A4.78,4.78,0,0,0,270,410.31Z"/><path class="cls-8" d="M216.43,384.3c9.73.54,19.47.53,29.21.37,11.42-.19,22.58-1.89,33.12-6.59a4.88,4.88,0,0,1,1.1-.22c-5.43,8.15-8,17.31-9.4,26.85-.14.93-.3,1.34-1.35,1.22-14.49-1.65-28.88-3.83-42.7-8.74a3.84,3.84,0,0,1-2.12-1.47C221.7,391.89,219.05,388.1,216.43,384.3Z"/><path class="cls-2" d="M492.31,388.52a1,1,0,0,1-.83-.66c-3.59-7.13-9.31-10.94-17.32-11.61-6.49-.55-12.85-.49-19,2a27.6,27.6,0,0,0-9,5.9c-1.49,1.46-3,2.9-4.49,4.35,1-17.74,13.15-28.72,25.35-30.55,9.6-1.42,18.56.17,25.57,7.84C498.21,371.87,499.09,382.83,492.31,388.52Z"/><path class="cls-3" d="M113.92,290.32c7.93,13.24,17.18,25.56,26.4,37.89a3.41,3.41,0,0,1,.54,3.59c-2.48,7.38-4.88,14.78-6.08,22.51a2,2,0,0,1-.23.52c-.62-.05-.76-.61-1.05-1-13.25-15.71-20.77-34.18-25.94-53.78-.29-1.09-.53-2.2-.79-3.3.67-.91,1.89-.94,2.68-1.68a12.83,12.83,0,0,0,2.92-3.67C112.65,290.86,112.82,289.87,113.92,290.32Z"/><path class="cls-6" d="M93,205.85c4.44,1.63,8.8,3.45,13.37,4.75A190.43,190.43,0,0,0,133,216.12c6.26.86,12.54,1.24,18.85,1.62a157.63,157.63,0,0,0,18.19-.18c11.78-.68,23.52-1.73,34.8-5.6a103.62,103.62,0,0,0,13-5.35c.61-.3,1.33-.48,1.67-1.18,1.22,1.53,2.39,3.11,3.69,4.57.88,1,.74,1.39-.44,2A99.39,99.39,0,0,1,199,219.82a182.73,182.73,0,0,1-44.86,4.2c-16.66-.6-32.85-3.29-48-10.57A77.52,77.52,0,0,1,93,205.85Z"/><path class="cls-6" d="M242.22,251.89a72.43,72.43,0,0,0,18.44,12.2,58.94,58.94,0,0,0,30.73,6,23.78,23.78,0,0,0,13.6-5.74,29.19,29.19,0,0,0,5.16-5.76,7.82,7.82,0,0,1,6.71-3.68,2.47,2.47,0,0,0,1.46-.33c-1,4.39-2.06,8.72-4.31,12.68-2.7,4.77-7,7.59-11.82,9.72-12.05,5.32-24,4.45-35.46-1.56-10.21-5.34-18-13.4-24.31-23A2.33,2.33,0,0,1,242.22,251.89Z"/><path class="cls-6" d="M50.75,260.65a90.32,90.32,0,0,0,14.75,4.68,156.92,156.92,0,0,0,18.69,2.56c3.1.29,6.18.31,9.28.35a99.64,99.64,0,0,0,23.09-2.34c-3,7.46-8,13.6-13.24,19.53-.58.65-1.16.53-1.88.4a96.41,96.41,0,0,1-29.5-10.55A137.94,137.94,0,0,1,50.75,260.65Z"/><path class="cls-10" d="M313.48,304.77c.4,2.08.76,4.18,1.21,6.25,1.31,6.16,4.28,11.57,7.55,16.87,2.46,4,5,8,8.37,11.2,5.25,5,10.65,9.93,15.72,15.15a46.43,46.43,0,0,1,6.31,7.8c3.42,5.52,6.18,11.31,7.18,17.81a29.93,29.93,0,0,1-1,13.62,3.39,3.39,0,0,1-1.57,2.27c-1.94-5.54-3.93-11.09-7.24-16a28.44,28.44,0,0,1-4.59-9.63c-.57-2.53-2.15-4.7-3.54-6.89a94.32,94.32,0,0,0-9.5-12.56,139.69,139.69,0,0,1-11.08-14.45c-5.34-7.71-7.57-16.33-7.85-25.56C313.36,308.69,313.45,306.73,313.48,304.77Z"/><path class="cls-2" d="M131.9,450.55c10.46-.67,18.67,4.28,26.33,10.57a75.07,75.07,0,0,1,7.66,7.58c1,1.14,1,1.61-.47,2-10,.89-20,1.18-30,1.1-.53,0-1.26.33-1.55-.3s.28-1,.61-1.5a46.89,46.89,0,0,1,4.58-5.08c.46-.47,1.19-.79,1.19-1.61-.12-.06-.29-.2-.33-.17-2.08,1.77-4.38.92-6.62.54-2.69-.45-5.37-.88-8-1.57-1.07-.29-1.16-.67-.63-1.56A65.74,65.74,0,0,1,131.9,450.55Z"/><path class="cls-9" d="M372.49,378.74c-.43-4.07-.22-8.27-2-11.91s-1.17-6.37,1.26-9.73c6.16-8.52,10.07-18.27,13.73-28.09,1.95-5.21,3.76-10.46,5.35-16.18C392.84,331.22,382.4,368.54,372.49,378.74Z"/><path class="cls-8" d="M315,281.62c-.67-.54-1,.1-1.45.4a31.12,31.12,0,0,1-16.23,5.65,34.68,34.68,0,0,1-18.58-3.59c.65-2,1.73-2.81,4.12-2.63,7.15.55,14.1-.25,20.69-3.59,5.73-2.9,10.46-6.62,13.2-13.18a38.73,38.73,0,0,1-.41,8.72C316,276.15,315.47,278.88,315,281.62Z"/><path class="cls-8" d="M321.75,360.4c2.8-2.16,5.63-4.28,7.24-7.57a5.6,5.6,0,0,0,.8-3.07c5.75,6.54,11.24,13.25,14.7,21.45-.77.21-1-.19-1.21-.42a38.4,38.4,0,0,0-20.83-10.13A3.46,3.46,0,0,1,321.75,360.4Z"/><path class="cls-8" d="M113.92,290.32c-1,.14-1,1.05-1.32,1.66-1.31,2.4-3,4.27-5.83,4.8-.86-3.1-1.7-6.2-2.57-9.3a1.69,1.69,0,0,1,.54-1.7c1.05-1.18,2.13-2.34,3.11-3.58.76-1,1.1-.59,1.56.24C110.89,285.09,112.42,287.7,113.92,290.32Z"/><path class="cls-8" d="M116.22,270.05a69,69,0,0,1-1.84,18.34c-1.41-2.44-2.8-4.9-4.24-7.33a1.46,1.46,0,0,1,.13-1.87A72.3,72.3,0,0,0,116.22,270.05Z"/><path class="cls-11" d="M202.78,160.83c-5.84.11-11.66-.27-17.48-.71-2-.15-2.84-.89-3.17-2.88a154.65,154.65,0,0,1-1.89-38.07,47.25,47.25,0,0,1,4.21-16.87c5-10.29,13-14.44,23.62-12.56a13.19,13.19,0,0,1,5.49,2.5c7.56,5.47,11.66,13.1,13.36,22.05,2.75,14.47,2.53,28.86-1.83,43.06-.48,1.55-1.11,2.37-2.94,2.56C215.71,160.58,209.25,160.73,202.78,160.83Z"/><path class="cls-11" d="M57,139.88c.1-10,.38-20,2.59-29.85,1.2-5.36,3.12-10.39,7.29-14.33C72,90.91,78.93,92,82,98.35c2.26,4.63,2.91,9.67,3.36,14.73a190.14,190.14,0,0,1,.81,27.52,121.84,121.84,0,0,1-1.56,13.2c-.18,1-.52,1.85-1.9,1.91a161.08,161.08,0,0,1-23.35-.47c-1.73-.18-2.43-.85-2.4-2.62C57.05,148.37,57,144.12,57,139.88Z"/><path class="cls-12" d="M175.21,96c1.25-5.5,4.49-9.64,9.07-12.85C181.24,87.42,177.52,91.21,175.21,96Z"/><path class="cls-13" d="M95.09,99.77c-.6-1.07-1.22-2.13-1.79-3.22a41.11,41.11,0,0,0-4.66-7.35c-.23-.28-.6-.58-.33-1s.59-.17.8.07c3,3.27,5.52,6.82,6.55,11.2Z"/><path class="cls-14" d="M124,179.42a29.57,29.57,0,0,1,4.43-3.84.55.55,0,0,1,.83.12c.33.5,0,.86-.34,1.13-1.48,1.06-3,2.08-4.46,3.12Z"/><path class="cls-15" d="M104.57,178.33c-1.5-.46-2.47-1.6-3.56-2.57a.53.53,0,0,1,0-.83.64.64,0,0,1,1,.12C102.93,176.08,104.08,176.91,104.57,178.33Z"/><path class="cls-6" d="M255.88,213c-6.28.07-11.69-2.43-16.77-5.81a2.05,2.05,0,0,1-.79-2.68c2-5,4.41-9.68,8.68-13.18,2.25-1.84,4.71-1.1,7.09-.66,4,.73,7.45,2.79,11,4.68,1.7.92,1.77,2.51,1.51,4.14-.81,5-4.08,8.75-7,12.66C258.7,213.42,257.18,213,255.88,213Z"/><path class="cls-16" d="M51.08,202c.47,0,.93-.1,1,.39s-.34.74-.77.88c-1.44.47-2.89.92-4.33,1.41A46.58,46.58,0,0,0,38.4,209a1.48,1.48,0,0,0-.57,2.46A114.64,114.64,0,0,0,45,221.76c.35.44,1.19,1,.52,1.58-.83.73-1.19-.32-1.57-.78a94.33,94.33,0,0,1-7.5-10.75c-.68-1.1-.91-2.24.18-3.07A39.74,39.74,0,0,1,51.08,202Z"/><path class="cls-17" d="M185.73,131.67c1.25,3.66,2.47,7.05,4.91,9.94,6.49,7.7,13.47,5.38,18.46-.9,2.79-3.52,3.84-7.78,3.83-12.52a15.75,15.75,0,0,1,5.94,7.84c2.52,7,3.42,14.08.85,21.31a2.19,2.19,0,0,1-2.28,1.69c-7.47.55-14.94.29-22.41.35a91.56,91.56,0,0,1-10.2-.76c-.62-.06-1-.15-1.2-.9-1.92-8.38-2.12-16.64,1.43-24.7C185.23,132.63,185.44,132.25,185.73,131.67Z"/><path class="cls-18" d="M204.46,101.57c0,8.3-3.08,14.28-9.43,18.49-4.87,3.24-8.68,1.89-10.21-3.8a19.4,19.4,0,0,1,3.31-17.62c2.34-3.06,5.1-5.58,9.09-6.44a4.56,4.56,0,0,1,5,1.8C204.18,96.44,204.4,99.32,204.46,101.57Z"/><path class="cls-19" d="M217.19,97.28c5.37,5.58,7.72,12.53,8.91,20,2.13,13.25,1.75,26.38-2.18,39.3-.62,2-.61,2-3.1,2a91.86,91.86,0,0,0,2.24-10.11c2.14-13.93,2.29-27.76-2.1-41.35a42.87,42.87,0,0,0-4.25-9.29Q216.59,97.16,217.19,97.28Z"/><path class="cls-20" d="M217.19,97.28l-.48.48L214,94.54A8.42,8.42,0,0,1,217.19,97.28Z"/><path class="cls-17" d="M81.49,131.88c2.47,1.94,2.94,4.53,3.15,7.08.39,4.76-.63,9.43-1.25,14.13-.13.93-.59,1.36-1.65,1.35-5.82-.06-11.65-.06-17.48-.06-1.3,0-2.08-.32-2.17-1.88-.28-4.47-.85-8.93.18-13.37a11.13,11.13,0,0,1,4.41-7c.24,3,.53,5.67,2,8.15,2.7,4.58,7.22,4.65,10,.1C80.25,137.85,80.61,134.93,81.49,131.88Z"/><path class="cls-18" d="M75.55,108.08c-.2,4-.31,8.75-3.44,12.76-1.13,1.45-2.43,2.38-4.37,2a4.73,4.73,0,0,1-3.18-2.19,12,12,0,0,1-2.11-8.81c.71-4.4.85-9,3.4-12.88a10.16,10.16,0,0,1,1.84-2.14,3.72,3.72,0,0,1,6.12,1.26C75.14,100.78,75.6,103.19,75.55,108.08Z"/><path class="cls-21" d="M60.75,114.88c-.52,10.34-.63,20.67-.4,31,0,2.34.27,4.68.37,7,0,.42.3,1.17-.58,1.05-.63-.09-1.46.12-1.73-.78a1.81,1.81,0,0,1,0-.57c0-13.37-.46-26.77,2-40C61.4,113.22,60.74,114.1,60.75,114.88Z"/><path class="cls-20" d="M60.75,114.88c-.39-.71.36-1.62-.37-2.28a11.17,11.17,0,0,1,.94-3.79A26.92,26.92,0,0,1,60.75,114.88Z"/></svg>